<svg width="189" height="183" viewBox="0 0 189 183" fill="none" xmlns="http://www.w3.org/2000/svg">
<ellipse rx="72.9622" ry="72.1993" transform="matrix(0.951542 0.307773 -0.334853 0.942363 94.4172 91.6777)" fill="#452AB6"/>
<rect width="5.75152" height="5.69138" rx="1" transform="matrix(0.951542 0.307772 -0.334853 0.942363 95.2476 97.9258)" fill="white"/>
<rect width="5.75152" height="17.0741" rx="1" transform="matrix(0.951542 0.307772 -0.334853 0.942363 81.6877 84.5703)" fill="white"/>
<rect width="5.69138" height="17.2546" rx="1" transform="matrix(-0.334853 0.942363 -0.951542 -0.307772 90.728 93.4741)" fill="white"/>
<rect width="5.75152" height="5.69138" rx="1" transform="matrix(0.951542 0.307772 -0.334853 0.942363 105.363 95.2178)" fill="white"/>
<path d="M103.767 74.9756L104.624 72.5628C105.128 71.146 105.379 70.4376 105.157 69.795C104.934 69.1523 104.3 68.7576 103.032 67.9682L98.3203 65.0343C97.0524 64.2448 96.4185 63.8501 96.1958 63.2075C95.9732 62.5649 96.2249 61.8565 96.7283 60.4397L98.5386 55.3452" stroke="white" stroke-width="4" stroke-linecap="round"/>
<path d="M67.8837 89.0749C70.322 82.213 71.5411 78.7821 74.0774 76.9672C74.7303 76.5 75.4333 76.1201 76.1684 75.8373C79.0236 74.7388 82.2329 75.7768 88.6513 77.8528L107.806 84.0484C114.225 86.1244 117.434 87.1624 119 89.6911C119.403 90.3421 119.719 91.0515 119.94 91.8013C120.796 94.7135 119.577 98.1444 117.139 105.006C114.701 111.868 113.482 115.299 110.945 117.114C110.292 117.581 109.589 117.961 108.854 118.244C105.999 119.342 102.79 118.304 96.3715 116.228L77.2167 110.033C70.7982 107.957 67.589 106.919 66.0226 104.39C65.6194 103.739 65.3034 103.03 65.0829 102.28C64.2264 99.3677 65.4455 95.9368 67.8837 89.0749Z" stroke="white" stroke-width="4"/>
</svg>
