<svg width="40" height="40" viewBox="0 0 40 40" fill="none" xmlns="http://www.w3.org/2000/svg">
<g clip-path="url(#clip0_2_369)">
<path d="M24.7126 25.3316C24.1559 25.3316 23.5962 25.1981 23.0785 24.9278L20.392 23.5251C20.1068 23.3762 19.7664 23.3762 19.4812 23.5251L16.7946 24.9277C15.5985 25.5523 14.1783 25.4464 13.0887 24.6514C12.0076 23.8626 11.477 22.5555 11.7042 21.2402L12.2173 18.2693C12.2705 17.9613 12.1671 17.6466 11.9408 17.4275L9.76733 15.3235C8.80353 14.3906 8.46089 13.0199 8.87297 11.7462C9.28702 10.4663 10.3745 9.55144 11.7111 9.35861L14.7147 8.92514C15.0321 8.87931 15.3058 8.68273 15.4466 8.39912L16.79 5.69617C17.3862 4.49636 18.5919 3.75098 19.9365 3.75098C21.2811 3.75098 22.4869 4.49636 23.0831 5.69617L24.4264 8.39906C24.5673 8.68266 24.841 8.87931 25.1584 8.92514L28.162 9.35861C29.4985 9.55151 30.586 10.4664 31.0001 11.7462C31.4122 13.0198 31.0695 14.3906 30.1057 15.3235L27.9323 17.4275C27.7059 17.6466 27.6025 17.9613 27.6557 18.2693L28.1689 21.24C28.396 22.5554 27.8655 23.8625 26.7843 24.6513C26.1664 25.1024 25.442 25.3316 24.7126 25.3316ZM19.9366 20.8747C20.4966 20.8747 21.0565 21.0079 21.5671 21.2744L24.2536 22.677C24.7425 22.9322 25.1398 22.7084 25.288 22.6002C25.432 22.4952 25.7572 22.1944 25.6671 21.6722L25.1539 18.7014C24.9577 17.565 25.3363 16.4068 26.1666 15.6031L28.34 13.4992C28.7241 13.1274 28.6389 12.6959 28.5845 12.5277C28.5291 12.3565 28.3418 11.9498 27.7996 11.8715L24.7959 11.438C23.653 11.2731 22.665 10.5594 22.1529 9.52897L20.8096 6.82608C20.5691 6.34215 20.119 6.28991 19.9367 6.28991C19.7543 6.28991 19.3043 6.34215 19.0637 6.82608L17.7204 9.52904C17.2084 10.5594 16.2203 11.2731 15.0774 11.438L12.0738 11.8715C11.5316 11.9498 11.3442 12.3565 11.2888 12.5277C11.2344 12.6959 11.1492 13.1274 11.5333 13.4992L13.7068 15.6031C14.537 16.4067 14.9156 17.565 14.7194 18.7013L14.2063 21.6722C14.1161 22.1944 14.4413 22.4951 14.5853 22.6002C14.7335 22.7083 15.131 22.9322 15.6197 22.6769L18.3062 21.2743C18.8165 21.008 19.3766 20.8747 19.9366 20.8747ZM17.9269 6.26122H17.9275H17.9269ZM14.8794 36.25C14.4407 36.25 13.9997 36.1448 13.5916 35.9318L11.7948 34.9937C11.7259 34.9579 11.6438 34.9579 11.5748 34.9937L9.77806 35.9318C8.83527 36.4241 7.71595 36.3405 6.85713 35.7139C6.00397 35.0914 5.58541 34.0596 5.76473 33.0212L6.10788 31.0344C6.11975 30.9656 6.09613 30.8948 6.04484 30.8451L4.59127 29.438C3.83058 28.7017 3.56012 27.6196 3.88549 26.614C4.21213 25.6042 5.06974 24.8825 6.12362 24.7305L8.13241 24.4406C8.18281 24.4333 8.22997 24.4097 8.26507 24.3742C8.75802 23.8756 9.56168 23.8709 10.0604 24.3638C10.559 24.8567 10.5637 25.6605 10.0707 26.1592C9.64914 26.5856 9.08961 26.8677 8.49511 26.9535L6.48625 27.2434C6.45102 27.2485 6.34381 27.264 6.30122 27.3955C6.26079 27.5204 6.3334 27.5906 6.35721 27.6137L7.81078 29.0208C8.46603 29.6551 8.76475 30.5693 8.60987 31.4665L8.26672 33.4534C8.2612 33.4854 8.24432 33.5831 8.35368 33.6628C8.43239 33.7203 8.51631 33.7263 8.60308 33.6811L10.3999 32.7431C11.2045 32.323 12.1652 32.323 12.9698 32.7431L14.7666 33.6812C14.8533 33.7264 14.9372 33.7203 15.016 33.6629C15.1254 33.5831 15.1085 33.4855 15.103 33.4534L14.7598 31.4666C14.605 30.5694 14.9037 29.6552 15.5589 29.0209L17.0125 27.6138C17.5162 27.1262 18.32 27.1391 18.8076 27.643C19.2952 28.1467 19.2822 28.9505 18.7784 29.4381L17.3248 30.8451C17.2734 30.8948 17.2499 30.9657 17.2618 31.0345L17.6049 33.0213C17.7842 34.0597 17.3657 35.0915 16.5125 35.714C16.0253 36.0693 15.4543 36.25 14.8794 36.25ZM33.1429 35.7139C33.996 35.0914 34.4146 34.0596 34.2353 33.0212L33.8921 31.0344C33.8803 30.9655 33.9039 30.8947 33.9552 30.845L35.4087 29.438C36.1694 28.7016 36.4399 27.6195 36.1145 26.6139C35.7879 25.6041 34.9303 24.8824 33.8764 24.7304L31.8677 24.4405C31.8172 24.4332 31.77 24.4097 31.7349 24.3742C31.2421 23.8756 30.4382 23.8709 29.9396 24.3638C29.441 24.8567 29.4363 25.6604 29.9293 26.1591C30.3509 26.5855 30.9104 26.8677 31.505 26.9535L33.5138 27.2434C33.549 27.2484 33.6562 27.2639 33.6988 27.3955C33.7392 27.5204 33.6666 27.5906 33.6428 27.6137L32.1892 29.0207C31.534 29.655 31.2353 30.5693 31.3901 31.4665L31.7333 33.4533C31.7388 33.4854 31.7557 33.583 31.6463 33.6628C31.5676 33.7202 31.4836 33.7263 31.3969 33.6811L29.6001 32.743C28.7955 32.3229 27.8347 32.3229 27.0302 32.743L25.2334 33.681C25.1466 33.7263 25.0628 33.7202 24.984 33.6627C24.8746 33.5829 24.8915 33.4853 24.897 33.4533L25.2402 31.4664C25.3951 30.5692 25.0963 29.655 24.4411 29.0207L22.9875 27.6136C22.4837 27.1259 21.68 27.139 21.1924 27.6428C20.7048 28.1466 20.7178 28.9503 21.2216 29.4379L22.6752 30.8449C22.7266 30.8946 22.7501 30.9655 22.7383 31.0343L22.3951 33.0211C22.2158 34.0595 22.6343 35.0913 23.4875 35.7138C24.3463 36.3405 25.4656 36.4239 26.4084 35.9317L28.2052 34.9936C28.2742 34.9577 28.3562 34.9577 28.4252 34.9936L30.222 35.9317C30.63 36.1447 31.0711 36.2499 31.5098 36.2499C32.0848 36.25 32.6558 36.0693 33.1429 35.7139Z" fill="url(#paint0_linear_2_369)"/>
</g>
<defs>
<linearGradient id="paint0_linear_2_369" x1="14.1802" y1="-3.56132" x2="67.5861" y2="21.3635" gradientUnits="userSpaceOnUse">
<stop stop-color="#FF1C96"/>
<stop offset="1" stop-color="#FCBB45"/>
</linearGradient>
<clipPath id="clip0_2_369">
<rect width="32.5" height="32.5" fill="white" transform="translate(3.75 3.75)"/>
</clipPath>
</defs>
</svg>
