<svg width="172" height="51" viewBox="0 0 172 51" fill="none" xmlns="http://www.w3.org/2000/svg">
<path opacity="0.2" d="M34.2521 30.6992L15.8701 41.195C15.5047 41.4716 15.0594 41.6212 14.6015 41.6212C14.1437 41.6212 13.6984 41.4716 13.3329 41.195L13.2441 41.2841L13.3329 41.3859C13.6984 41.6625 14.1437 41.8121 14.6015 41.8121C15.0594 41.8121 15.5047 41.6625 15.8701 41.3859L34.4043 30.8137L34.2521 30.6992Z" fill="black"/>
<path opacity="0.12" d="M13.2442 41.1181C12.8367 40.6134 12.637 39.9717 12.686 39.3242V39.5151C12.6428 40.1644 12.8571 40.8045 13.2822 41.2962L13.371 41.2071L13.2442 41.1181Z" fill="black"/>
<path opacity="0.12" d="M40.5952 27.0982L34.2522 30.6986L34.3664 30.8131L40.5952 27.2763C40.9629 27.1204 41.2818 26.868 41.5185 26.5456C41.7551 26.2232 41.9007 25.8427 41.9399 25.4443C41.8606 25.8064 41.6976 26.1447 41.464 26.4319C41.2304 26.7192 40.9328 26.9474 40.5952 27.0982Z" fill="black"/>
<path d="M55.0014 13.2999C55.0202 13.7665 54.9538 14.2324 54.8063 14.6697C54.6588 15.107 54.4331 15.5066 54.143 15.8444C53.8178 16.2175 53.4254 16.5101 52.9915 16.703C52.5575 16.896 52.0918 16.9849 51.6249 16.9639C51.1552 16.9755 50.6884 16.8799 50.2533 16.683C49.8182 16.486 49.424 16.1919 49.0953 15.8189C48.4284 15.0606 48.0549 14.0423 48.0549 12.9819C48.0549 11.9214 48.4284 10.9031 49.0953 10.1448C49.6052 9.591 50.251 9.21703 50.9516 9.0699C51.6521 8.92277 52.3761 9.00904 53.0327 9.31787C53.4455 9.50646 53.8136 9.79812 54.1086 10.1703L53.502 10.8445C53.2747 10.5402 52.9867 10.2989 52.6608 10.1399C52.335 9.98091 51.9803 9.90854 51.6249 9.92854C51.1762 9.93199 50.7351 10.0575 50.3402 10.2942C49.9453 10.5309 49.6085 10.8714 49.3594 11.2862C49.1102 11.7009 48.9562 12.1771 48.9109 12.6733C48.8656 13.1694 48.9302 13.6703 49.0993 14.1323C49.2684 14.5942 49.5366 15.0031 49.8807 15.3232C50.2247 15.6433 50.6341 15.8648 51.073 15.9685C51.5118 16.0721 51.9669 16.0547 52.3983 15.9177C52.8297 15.7808 53.2244 15.5284 53.5478 15.1828C53.8974 14.7567 54.1001 14.2069 54.1201 13.6307H51.6249V12.7147H54.9556C54.9817 12.9085 54.997 13.104 55.0014 13.2999Z" fill="#353535" stroke="#353535" stroke-width="0.411304" stroke-miterlimit="10"/>
<path d="M60.2434 10.1192H57.153V12.5364H59.9687V13.4524H57.153V15.8696H60.2434V16.8111H56.2603V9.17773H60.2434V10.1192Z" fill="#353535" stroke="#353535" stroke-width="0.411304" stroke-miterlimit="10"/>
<path d="M63.9981 16.8111H63.1168V10.1192H61.1938V9.17773H65.9668V10.1192H63.9981V16.8111Z" fill="#353535" stroke="#353535" stroke-width="0.411304" stroke-miterlimit="10"/>
<path d="M69.3318 16.8111V9.17773H70.213V16.8111H69.3318Z" fill="#353535" stroke="#353535" stroke-width="0.411304" stroke-miterlimit="10"/>
<path d="M74.1277 16.8111H73.2464V10.1192H71.3235V9.17773H76.0392V10.1192H74.1277V16.8111Z" fill="#353535" stroke="#353535" stroke-width="0.411304" stroke-miterlimit="10"/>
<path d="M84.9785 15.8203C84.6479 16.1881 84.2553 16.4798 83.8232 16.6789C83.3912 16.8779 82.928 16.9803 82.4603 16.9803C81.9926 16.9803 81.5295 16.8779 81.0974 16.6789C80.6653 16.4798 80.2728 16.1881 79.9422 15.8203C79.2951 15.0558 78.9348 14.0457 78.9348 12.996C78.9348 11.9464 79.2951 10.9362 79.9422 10.1717C80.2656 9.79359 80.6569 9.49517 81.0907 9.29574C81.5245 9.09631 81.9911 9.00032 82.4603 9.01397C82.9289 9.00573 83.3941 9.1042 83.8271 9.3033C84.2602 9.5024 84.652 9.79793 84.9785 10.1717C85.3076 10.5438 85.5663 10.9854 85.7393 11.4705C85.9123 11.9556 85.9961 12.4743 85.9857 12.996C86.0007 13.5184 85.9191 14.0386 85.7458 14.5244C85.5725 15.0102 85.3114 15.4513 84.9785 15.8203ZM80.5946 15.1842C80.8384 15.4589 81.1289 15.677 81.4492 15.8258C81.7695 15.9746 82.1132 16.0513 82.4603 16.0513C82.8075 16.0513 83.1511 15.9746 83.4714 15.8258C83.7917 15.677 84.0822 15.4589 84.326 15.1842C84.8199 14.5877 85.094 13.8067 85.094 12.996C85.094 12.1854 84.8199 11.4043 84.326 10.8078C84.0822 10.5332 83.7917 10.3151 83.4714 10.1662C83.1511 10.0174 82.8075 9.94075 82.4603 9.94075C82.1132 9.94075 81.7695 10.0174 81.4492 10.1662C81.1289 10.3151 80.8384 10.5332 80.5946 10.8078C80.1007 11.4043 79.8266 12.1854 79.8266 12.996C79.8266 13.8067 80.1007 14.5877 80.5946 15.1842Z" fill="#353535" stroke="#353535" stroke-width="0.411304" stroke-miterlimit="10"/>
<path d="M87.2334 16.8111V9.17773H88.2979L91.6402 15.119V13.6432V9.17773H92.5216V16.8111H91.6059L88.1148 10.5899V12.053V16.8111H87.2334Z" fill="#353535" stroke="#353535" stroke-width="0.411304" stroke-miterlimit="10"/>
<path d="M78.7176 27.9438C77.7532 27.9463 76.8112 28.2667 76.0106 28.8643C75.21 29.4619 74.5868 30.3099 74.2199 31.3012C73.8529 32.2925 73.7587 33.3824 73.949 34.4333C74.1394 35.4841 74.6058 36.4486 75.2893 37.2047C75.9729 37.9609 76.8428 38.4748 77.789 38.6815C78.7353 38.8881 79.7155 38.7782 80.6056 38.3657C81.4957 37.9532 82.2558 37.2565 82.7897 36.3639C83.3236 35.4712 83.6073 34.4227 83.6051 33.3508C83.6144 32.6357 83.4942 31.9258 83.2516 31.2635C83.009 30.6011 82.6489 29.9998 82.1929 29.4953C81.7369 28.9908 81.1942 28.5934 80.5971 28.3269C80.0001 28.0604 79.3609 27.9301 78.7176 27.9438ZM78.7176 36.6331C78.1265 36.679 77.5367 36.5263 77.0247 36.1947C76.5128 35.863 76.1024 35.3679 75.847 34.7737C75.5916 34.1794 75.5029 33.5134 75.5925 32.8624C75.6821 32.2114 75.9458 31.6054 76.3494 31.1231C76.753 30.6409 77.2777 30.3048 77.8555 30.1585C78.4332 30.0121 79.0372 30.0624 79.5889 30.3026C80.1406 30.5429 80.6145 30.9621 80.949 31.5057C81.2835 32.0493 81.4632 32.6922 81.4647 33.3508C81.4831 33.7681 81.4262 34.1852 81.2972 34.5777C81.1683 34.9702 80.97 35.33 80.714 35.6359C80.4579 35.9418 80.1494 36.1876 79.8065 36.3589C79.4637 36.5302 79.0934 36.6234 78.7176 36.6331ZM68.05 27.9438C67.0856 27.9463 66.1435 28.2667 65.343 28.8643C64.5424 29.4619 63.9192 30.3099 63.5522 31.3012C63.1853 32.2925 63.091 33.3824 63.2814 34.4333C63.4717 35.4841 63.9382 36.4486 64.6217 37.2047C65.3052 37.9609 66.1751 38.4748 67.1214 38.6815C68.0677 38.8881 69.0479 38.7782 69.938 38.3657C70.8281 37.9532 71.5881 37.2565 72.122 36.3639C72.6559 35.4712 72.9397 34.4227 72.9374 33.3508C72.9467 32.6357 72.8265 31.9258 72.5839 31.2635C72.3413 30.6011 71.9813 29.9998 71.5253 29.4953C71.0692 28.9908 70.5265 28.5934 69.9295 28.3269C69.3325 28.0604 68.6933 27.9301 68.05 27.9438ZM68.05 36.6331C67.4589 36.679 66.869 36.5263 66.3571 36.1947C65.8451 35.863 65.4348 35.3679 65.1793 34.7737C64.9239 34.1794 64.8352 33.5134 64.9248 32.8624C65.0144 32.2114 65.2782 31.6054 65.6818 31.1231C66.0853 30.6409 66.6101 30.3048 67.1878 30.1585C67.7656 30.0121 68.3695 30.0624 68.9212 30.3026C69.4729 30.5429 69.9468 30.9621 70.2814 31.5057C70.6159 32.0493 70.7956 32.6922 70.797 33.3508C70.8154 33.7681 70.7585 34.1852 70.6296 34.5777C70.5007 34.9702 70.3023 35.33 70.0463 35.6359C69.7903 35.9418 69.4817 36.1876 69.1389 36.3589C68.796 36.5302 68.4258 36.6234 68.05 36.6331ZM55.3678 29.6104V31.9004H60.3125C60.235 32.979 59.8316 33.9968 59.1679 34.7884C58.6719 35.3501 58.0753 35.7898 57.4168 36.0791C56.7582 36.3683 56.0524 36.5007 55.3449 36.4677C53.8878 36.4677 52.4904 35.8243 51.46 34.6791C50.4297 33.5339 49.8509 31.9806 49.8509 30.361C49.8509 28.7414 50.4297 27.1882 51.46 26.043C52.4904 24.8977 53.8878 24.2544 55.3449 24.2544C56.7419 24.2313 58.0907 24.8209 59.0992 25.8955L60.5529 24.2798C59.8707 23.5298 59.0607 22.9388 58.1703 22.5412C57.28 22.1436 56.3272 21.9475 55.3678 21.9644C54.3503 21.9204 53.3352 22.1051 52.3834 22.5076C51.4317 22.91 50.5628 23.5219 49.8288 24.3065C49.0949 25.0912 48.511 26.0324 48.1122 27.0739C47.7134 28.1153 47.5078 29.2355 47.5078 30.3674C47.5078 31.4993 47.7134 32.6195 48.1122 33.6609C48.511 34.7024 49.0949 35.6436 49.8288 36.4282C50.5628 37.2129 51.4317 37.8248 52.3834 38.2272C53.3352 38.6297 54.3503 38.8144 55.3678 38.7704C56.3469 38.8139 57.3232 38.6267 58.2326 38.221C59.142 37.8154 59.964 37.2005 60.6444 36.4168C61.8464 34.9492 62.4868 33.0189 62.43 31.0353C62.4341 30.5579 62.3996 30.081 62.327 29.6104H55.3678ZM107.23 31.3915C106.931 30.4154 106.373 29.5631 105.629 28.9474C104.885 28.3317 103.99 27.9818 103.063 27.9438C102.437 27.9425 101.817 28.0838 101.242 28.3592C100.667 28.6346 100.149 29.0382 99.7203 29.5449C99.2912 30.0517 98.9601 30.6509 98.7476 31.3055C98.5351 31.9601 98.4457 32.6562 98.4848 33.3508C98.475 34.5121 98.8035 35.6458 99.4212 36.5825C100.039 37.5193 100.913 38.2087 101.912 38.548C102.911 38.8872 103.983 38.858 104.966 38.4647C105.949 38.0714 106.791 37.3352 107.367 36.3659L105.707 35.0937C105.46 35.5521 105.109 35.9306 104.689 36.1917C104.27 36.4528 103.796 36.5874 103.315 36.5822C102.819 36.605 102.328 36.4604 101.907 36.1675C101.487 35.8746 101.155 35.447 100.957 34.941L107.47 31.9513L107.23 31.3915ZM100.591 33.1981C100.568 32.8029 100.616 32.4066 100.732 32.0322C100.848 31.6579 101.031 31.3132 101.268 31.0182C101.506 30.7232 101.794 30.4838 102.116 30.3142C102.438 30.1446 102.787 30.048 103.143 30.0303C103.512 30.0052 103.879 30.1017 104.199 30.3077C104.519 30.5136 104.777 30.8198 104.94 31.188L100.591 33.1981ZM95.3028 38.4396H97.4432V22.5369H95.3028V38.4396ZM91.8004 29.1524H91.7202C91.4005 28.7477 91.0059 28.4245 90.5634 28.2049C90.1209 27.9853 89.6409 27.8746 89.1563 27.8802C87.9055 27.9476 86.726 28.5474 85.8622 29.5552C84.9984 30.563 84.5165 31.9016 84.5165 33.2935C84.5165 34.6854 84.9984 36.024 85.8622 37.0318C86.726 38.0396 87.9055 38.6394 89.1563 38.7068C89.6416 38.7176 90.123 38.6092 90.5663 38.3893C91.0095 38.1694 91.4035 37.8434 91.7202 37.4346H91.8004V38.2106C91.8004 40.2844 90.8046 41.3912 89.2021 41.3912C88.6668 41.3781 88.1471 41.1885 87.7089 40.8465C87.2708 40.5044 86.934 40.0254 86.7412 39.4701L84.887 40.3225C85.2298 41.2796 85.8259 42.0984 86.5963 42.6709C87.3668 43.2433 88.2755 43.5424 89.2021 43.5285C91.7088 43.5285 93.7805 41.8874 93.7805 37.8926V28.2619H91.8004V29.1524ZM89.3395 36.6331C88.5895 36.5811 87.8856 36.2134 87.3711 35.6047C86.8566 34.9961 86.5702 34.1923 86.5702 33.3571C86.5702 32.5219 86.8566 31.7182 87.3711 31.1095C87.8856 30.5009 88.5895 30.1331 89.3395 30.0811C89.706 30.0987 90.0656 30.1981 90.3969 30.3733C90.7282 30.5485 91.0244 30.796 91.2679 31.1011C91.5114 31.4061 91.6972 31.7625 91.8142 32.149C91.9312 32.5354 91.9771 32.9441 91.9492 33.3508C91.9804 33.7587 91.9368 34.1695 91.8212 34.5583C91.7055 34.947 91.5201 35.3057 91.2761 35.6125C91.0322 35.9193 90.7348 36.168 90.4019 36.3434C90.069 36.5188 89.7076 36.6174 89.3395 36.6331ZM117.256 22.5369H112.128V38.4396H114.269V32.4093H117.256C117.866 32.458 118.479 32.3665 119.056 32.1405C119.632 31.9145 120.161 31.5589 120.609 31.0957C121.056 30.6326 121.413 30.0719 121.658 29.4486C121.902 28.8254 122.028 28.1529 122.028 27.4731C122.028 26.7933 121.902 26.1208 121.658 25.4975C121.413 24.8743 121.056 24.3136 120.609 23.8504C120.161 23.3873 119.632 23.0317 119.056 22.8057C118.479 22.5797 117.866 22.4882 117.256 22.5369ZM117.256 30.1702H114.269V24.7505H117.302C117.624 24.7505 117.942 24.821 118.239 24.9578C118.537 25.0946 118.807 25.2951 119.034 25.548C119.261 25.8008 119.442 26.1009 119.565 26.4312C119.688 26.7615 119.751 27.1156 119.751 27.4731C119.751 27.8306 119.688 28.1847 119.565 28.515C119.442 28.8453 119.261 29.1454 119.034 29.3982C118.807 29.651 118.537 29.8516 118.239 29.9884C117.942 30.1252 117.624 30.1956 117.302 30.1956L117.256 30.1702ZM130.465 27.8929C129.685 27.8395 128.909 28.0412 128.232 28.4731C127.554 28.905 127.005 29.5481 126.653 30.3229L128.542 31.2007C128.733 30.8183 129.019 30.5054 129.366 30.3C129.714 30.0946 130.107 30.0053 130.499 30.043C130.771 30.0077 131.046 30.0329 131.309 30.1172C131.572 30.2014 131.817 30.343 132.03 30.5337C132.243 30.7244 132.42 30.9603 132.55 31.2277C132.68 31.4951 132.761 31.7887 132.788 32.0913V32.2439C132.1 31.8418 131.334 31.6322 130.556 31.6333C128.519 31.6333 126.436 32.9055 126.436 35.2209C126.456 35.7131 126.565 36.1957 126.756 36.6401C126.947 37.0846 127.217 37.4818 127.549 37.8081C127.881 38.1345 128.269 38.3833 128.689 38.5399C129.109 38.6965 129.554 38.7575 129.996 38.7195C130.533 38.7526 131.068 38.6262 131.547 38.3535C132.025 38.0807 132.43 37.6714 132.72 37.1674H132.788V38.4396H134.849V32.3203C134.849 29.5341 132.949 27.9184 130.511 27.9184L130.465 27.8929ZM130.202 36.6076C129.503 36.6076 128.531 36.2133 128.531 35.2591C128.531 33.9869 129.744 33.5543 130.82 33.5543C131.5 33.5357 132.172 33.7202 132.766 34.0886C132.694 34.7795 132.399 35.4181 131.936 35.8859C131.473 36.3538 130.873 36.6192 130.247 36.6331L130.202 36.6076ZM142.357 28.2619L139.908 35.1573H139.839L137.298 28.2619H135.009L138.82 37.9053L136.646 43.2614H138.878L144.738 28.2619H142.357ZM123.128 38.4396H125.257V22.5369H123.128V38.4396Z" fill="#353535"/>
<path d="M34.252 30.8892L29.0508 25.635V25.2533L34.252 19.999L34.3662 20.0754L40.595 23.6121C42.371 24.6172 42.371 26.2711 40.595 27.2889L34.3916 30.8256L34.252 30.8892Z" fill="url(#paint0_linear_2_437)"/>
<path d="M31.766 20.3484L15.0434 9.78896C14.7035 9.48988 14.2796 9.33358 13.8462 9.34754C13.4129 9.3615 12.9978 9.54483 12.6741 9.86529L26.9358 25.7171L31.766 20.3484Z" fill="url(#paint1_linear_2_437)"/>
<path d="M12.6742 9.86542C12.2971 10.3611 12.1046 10.9983 12.1363 11.6465V39.788C12.0973 40.4374 12.2907 41.0775 12.6742 41.5691L12.7544 41.6709L26.936 25.9081V25.5265L12.7544 9.77637L12.6742 9.86542Z" fill="url(#paint2_linear_2_437)"/>
<path d="M31.766 31.0865L26.9358 25.7178L12.6741 41.5696C12.9975 41.8896 13.4115 42.0737 13.8443 42.09C14.277 42.1063 14.7013 41.9537 15.0434 41.6587L31.766 31.0865Z" fill="url(#paint3_linear_2_437)"/>
<path opacity="0.25" d="M15.0435 9.96753L37.3516 24.0637C37.6563 24.2145 37.9248 24.4428 38.1355 24.73C38.3463 25.0173 38.4934 25.3556 38.5649 25.7176C38.5296 25.3192 38.3982 24.9388 38.1847 24.6164C37.9712 24.294 37.6834 24.0415 37.3516 23.8856L15.0435 9.78942C13.4525 8.77164 12.1362 9.61131 12.1362 11.6469V11.8377C12.1706 9.80214 13.4525 8.96248 15.0435 9.96753Z" fill="#353535"/>
<defs>
<linearGradient id="paint0_linear_2_437" x1="42.9165" y1="25.4441" x2="12.2292" y2="25.4441" gradientUnits="userSpaceOnUse">
<stop stop-color="#FFE000"/>
<stop offset="0.41" stop-color="#FFBD00"/>
<stop offset="0.78" stop-color="#FFA500"/>
<stop offset="1" stop-color="#FF9C00"/>
</linearGradient>
<linearGradient id="paint1_linear_2_437" x1="9.08002" y1="0.501772" x2="21.9339" y2="12.0663" gradientUnits="userSpaceOnUse">
<stop stop-color="#32A071"/>
<stop offset="0.07" stop-color="#2DA771"/>
<stop offset="0.48" stop-color="#15CF74"/>
<stop offset="0.8" stop-color="#06E775"/>
<stop offset="1" stop-color="#00F076"/>
</linearGradient>
<linearGradient id="paint2_linear_2_437" x1="25.6769" y1="11.3539" x2="4.44779" y2="30.4536" gradientUnits="userSpaceOnUse">
<stop stop-color="#00A0FF"/>
<stop offset="0.01" stop-color="#00A1FF"/>
<stop offset="0.26" stop-color="#00BEFF"/>
<stop offset="0.51" stop-color="#00D2FF"/>
<stop offset="0.76" stop-color="#00DFFF"/>
<stop offset="1" stop-color="#00E3FF"/>
</linearGradient>
<linearGradient id="paint3_linear_2_437" x1="29.1449" y1="28.6439" x2="0.351506" y2="54.5376" gradientUnits="userSpaceOnUse">
<stop stop-color="#FF3A44"/>
<stop offset="1" stop-color="#C31162"/>
</linearGradient>
</defs>
</svg>
