<svg width="39" height="39" viewBox="0 0 39 39" fill="none" xmlns="http://www.w3.org/2000/svg">
<path d="M9.08058 23.6257L7.77391 28.5037L2.99808 28.6047C1.5708 25.9574 0.76123 22.9286 0.76123 19.71C0.76123 16.5975 1.51816 13.6625 2.85987 11.0781H2.8609L7.11273 11.8576L8.9753 16.084C8.58547 17.2205 8.37299 18.4405 8.37299 19.71C8.37314 21.0877 8.62271 22.4078 9.08058 23.6257Z" fill="#FBBB00"/>
<path d="M37.9721 16.2012C38.1876 17.3366 38.3 18.5091 38.3 19.7075C38.3 21.0513 38.1588 22.3621 37.8896 23.6264C36.9759 27.9289 34.5885 31.6859 31.2812 34.3445L31.2802 34.3435L25.9248 34.0702L25.1668 29.3387C27.3613 28.0516 29.0764 26.0375 29.9798 23.6264H19.9434V16.2012H30.1262H37.9721Z" fill="#518EF8"/>
<path d="M31.2799 34.3451L31.2809 34.3462C28.0644 36.9316 23.9784 38.4785 19.5305 38.4785C12.3827 38.4785 6.16823 34.4833 2.99805 28.604L9.08055 23.625C10.6656 27.8553 14.7464 30.8667 19.5305 30.8667C21.5868 30.8667 23.5133 30.3108 25.1664 29.3403L31.2799 34.3451Z" fill="#28B446"/>
<path d="M31.5109 5.2605L25.4305 10.2385C23.7196 9.16906 21.6972 8.55129 19.5305 8.55129C14.6381 8.55129 10.481 11.7008 8.97536 16.0828L2.86089 11.0769H2.85986C5.98363 5.05426 12.2765 0.939453 19.5305 0.939453C24.0847 0.939453 28.2603 2.56168 31.5109 5.2605Z" fill="#F14336"/>
</svg>
