<svg width="172" height="51" viewBox="0 0 172 51" fill="none" xmlns="http://www.w3.org/2000/svg">
<g clip-path="url(#clip0_216_495)">
<path d="M164.917 0H6.34298C2.83985 0 0 2.84796 0 6.3611V44.5277C0 48.0409 2.83985 50.8888 6.34298 50.8888H164.917C168.421 50.8888 171.26 48.0409 171.26 44.5277V6.3611C171.26 2.84796 168.421 0 164.917 0Z" fill="white"/>
<path d="M34.252 30.8892L29.0508 25.635V25.2533L34.252 19.999L34.3662 20.0754L40.595 23.6121C42.371 24.6172 42.371 26.2711 40.595 27.2889L34.3916 30.8256L34.252 30.8892Z" fill="url(#paint0_linear_216_495)"/>
<path opacity="0.2" d="M34.2521 30.6992L15.8701 41.195C15.5047 41.4716 15.0594 41.6212 14.6015 41.6212C14.1437 41.6212 13.6984 41.4716 13.3329 41.195V41.195L13.2441 41.2841L13.3329 41.3859C13.6984 41.6625 14.1437 41.8121 14.6015 41.8121C15.0594 41.8121 15.5047 41.6625 15.8701 41.3859L34.4043 30.8137L34.2521 30.6992Z" fill="black"/>
<path opacity="0.12" d="M13.2442 41.1181C12.8367 40.6134 12.637 39.9717 12.686 39.3242V39.5151C12.6428 40.1644 12.8571 40.8045 13.2822 41.2962L13.371 41.2071L13.2442 41.1181Z" fill="black"/>
<path opacity="0.12" d="M40.5952 27.0982L34.2522 30.6986L34.3664 30.8131L40.5952 27.2763C40.9629 27.1204 41.2818 26.868 41.5185 26.5456C41.7551 26.2232 41.9007 25.8427 41.9399 25.4443C41.8606 25.8064 41.6976 26.1447 41.464 26.4319C41.2304 26.7192 40.9328 26.9474 40.5952 27.0982Z" fill="black"/>
</g>
<path d="M55.0014 13.3976C55.0202 13.8641 54.9538 14.3301 54.8063 14.7674C54.6588 15.2047 54.4331 15.6042 54.143 15.942C53.8178 16.3152 53.4254 16.6078 52.9915 16.8007C52.5575 16.9936 52.0918 17.0825 51.6249 17.0616C51.1552 17.0732 50.6884 16.9776 50.2533 16.7806C49.8182 16.5837 49.424 16.2896 49.0953 15.9166C48.4284 15.1583 48.0549 14.14 48.0549 13.0795C48.0549 12.0191 48.4284 11.0008 49.0953 10.2425C49.6052 9.68865 50.251 9.31469 50.9516 9.16756C51.6521 9.02043 52.3761 9.1067 53.0327 9.41553C53.4455 9.60411 53.8136 9.89577 54.1086 10.2679L53.502 10.9422C53.2747 10.6378 52.9867 10.3966 52.6608 10.2376C52.335 10.0786 51.9803 10.0062 51.6249 10.0262C51.1762 10.0296 50.7351 10.1552 50.3402 10.3918C49.9453 10.6285 49.6085 10.9691 49.3594 11.3838C49.1102 11.7985 48.9562 12.2748 48.9109 12.7709C48.8656 13.2671 48.9302 13.768 49.0993 14.2299C49.2684 14.6919 49.5366 15.1008 49.8807 15.4208C50.2247 15.7409 50.6341 15.9625 51.073 16.0661C51.5118 16.1697 51.9669 16.1523 52.3983 16.0154C52.8297 15.8784 53.2244 15.6261 53.5478 15.2805C53.8974 14.8544 54.1001 14.3046 54.1201 13.7284H51.6249V12.8124H54.9556C54.9817 13.0062 54.997 13.2016 55.0014 13.3976Z" fill="#353535" stroke="#353535" stroke-width="0.411304" stroke-miterlimit="10"/>
<path d="M60.2434 10.2168H57.153V12.6341H59.9687V13.5501H57.153V15.9673H60.2434V16.9087H56.2603V9.27539H60.2434V10.2168Z" fill="#353535" stroke="#353535" stroke-width="0.411304" stroke-miterlimit="10"/>
<path d="M63.9981 16.9087H63.1168V10.2168H61.1938V9.27539H65.9668V10.2168H63.9981V16.9087Z" fill="#353535" stroke="#353535" stroke-width="0.411304" stroke-miterlimit="10"/>
<path d="M69.3318 16.9087V9.27539H70.213V16.9087H69.3318Z" fill="#353535" stroke="#353535" stroke-width="0.411304" stroke-miterlimit="10"/>
<path d="M74.1277 16.9087H73.2464V10.2168H71.3235V9.27539H76.0392V10.2168H74.1277V16.9087Z" fill="#353535" stroke="#353535" stroke-width="0.411304" stroke-miterlimit="10"/>
<path d="M84.9785 15.918C84.6479 16.2857 84.2553 16.5775 83.8232 16.7765C83.3912 16.9756 82.928 17.078 82.4603 17.078C81.9926 17.078 81.5295 16.9756 81.0974 16.7765C80.6653 16.5775 80.2728 16.2857 79.9422 15.918C79.2951 15.1535 78.9348 14.1433 78.9348 13.0937C78.9348 12.044 79.2951 11.0339 79.9422 10.2693C80.2656 9.89124 80.6569 9.59282 81.0907 9.3934C81.5245 9.19397 81.9911 9.09798 82.4603 9.11163C82.9289 9.10339 83.3941 9.20185 83.8271 9.40096C84.2602 9.60006 84.652 9.89559 84.9785 10.2693C85.3076 10.6415 85.5663 11.0831 85.7393 11.5682C85.9123 12.0533 85.9961 12.572 85.9857 13.0937C86.0007 13.616 85.9191 14.1362 85.7458 14.622C85.5725 15.1079 85.3114 15.549 84.9785 15.918ZM80.5946 15.2819C80.8384 15.5565 81.1289 15.7746 81.4492 15.9234C81.7695 16.0723 82.1132 16.1489 82.4603 16.1489C82.8075 16.1489 83.1511 16.0723 83.4714 15.9234C83.7917 15.7746 84.0822 15.5565 84.326 15.2819C84.8199 14.6854 85.094 13.9043 85.094 13.0937C85.094 12.283 84.8199 11.502 84.326 10.9055C84.0822 10.6308 83.7917 10.4127 83.4714 10.2639C83.1511 10.1151 82.8075 10.0384 82.4603 10.0384C82.1132 10.0384 81.7695 10.1151 81.4492 10.2639C81.1289 10.4127 80.8384 10.6308 80.5946 10.9055C80.1007 11.502 79.8266 12.283 79.8266 13.0937C79.8266 13.9043 80.1007 14.6854 80.5946 15.2819Z" fill="#353535" stroke="#353535" stroke-width="0.411304" stroke-miterlimit="10"/>
<path d="M87.2334 16.9087V9.27539H88.2979L91.6402 15.2167V13.7409V9.27539H92.5216V16.9087H91.6059L88.1148 10.6876V12.1506V16.9087H87.2334Z" fill="#353535" stroke="#353535" stroke-width="0.411304" stroke-miterlimit="10"/>
<path d="M78.7176 28.0415C77.7532 28.044 76.8112 28.3643 76.0106 28.9619C75.21 29.5595 74.5868 30.4076 74.2199 31.3989C73.8529 32.3901 73.7587 33.4801 73.949 34.5309C74.1394 35.5817 74.6058 36.5462 75.2893 37.3024C75.9729 38.0586 76.8428 38.5725 77.789 38.7791C78.7353 38.9858 79.7155 38.8759 80.6056 38.4634C81.4957 38.0508 82.2558 37.3542 82.7897 36.4615C83.3236 35.5689 83.6073 34.5203 83.6051 33.4484C83.6144 32.7333 83.4942 32.0235 83.2516 31.3611C83.009 30.6988 82.6489 30.0974 82.1929 29.5929C81.7369 29.0885 81.1942 28.6911 80.5971 28.4246C80.0001 28.158 79.3609 28.0277 78.7176 28.0415V28.0415ZM78.7176 36.7307C78.1265 36.7767 77.5367 36.6239 77.0247 36.2923C76.5128 35.9607 76.1024 35.4656 75.847 34.8713C75.5916 34.277 75.5029 33.6111 75.5925 32.9601C75.6821 32.309 75.9458 31.703 76.3494 31.2208C76.753 30.7386 77.2777 30.4025 77.8555 30.2561C78.4332 30.1098 79.0372 30.16 79.5889 30.4003C80.1406 30.6405 80.6145 31.0597 80.949 31.6033C81.2835 32.1469 81.4632 32.7898 81.4647 33.4484C81.4831 33.8657 81.4262 34.2829 81.2972 34.6754C81.1683 35.0678 80.97 35.4276 80.714 35.7335C80.4579 36.0395 80.1494 36.2853 79.8065 36.4566C79.4637 36.6278 79.0934 36.7211 78.7176 36.7307ZM68.05 28.0415C67.0856 28.044 66.1435 28.3643 65.343 28.9619C64.5424 29.5595 63.9192 30.4076 63.5522 31.3989C63.1853 32.3901 63.091 33.4801 63.2814 34.5309C63.4717 35.5817 63.9382 36.5462 64.6217 37.3024C65.3052 38.0586 66.1751 38.5725 67.1214 38.7791C68.0677 38.9858 69.0479 38.8759 69.938 38.4634C70.8281 38.0508 71.5881 37.3542 72.122 36.4615C72.6559 35.5689 72.9397 34.5203 72.9374 33.4484C72.9467 32.7333 72.8265 32.0235 72.5839 31.3611C72.3413 30.6988 71.9813 30.0974 71.5253 29.5929C71.0692 29.0885 70.5265 28.6911 69.9295 28.4246C69.3325 28.158 68.6933 28.0277 68.05 28.0415V28.0415ZM68.05 36.7307C67.4589 36.7767 66.869 36.6239 66.3571 36.2923C65.8451 35.9607 65.4348 35.4656 65.1793 34.8713C64.9239 34.277 64.8352 33.6111 64.9248 32.9601C65.0144 32.309 65.2782 31.703 65.6818 31.2208C66.0853 30.7386 66.6101 30.4025 67.1878 30.2561C67.7655 30.1098 68.3695 30.16 68.9212 30.4003C69.4729 30.6405 69.9468 31.0597 70.2814 31.6033C70.6159 32.1469 70.7956 32.7898 70.797 33.4484C70.8154 33.8657 70.7585 34.2829 70.6296 34.6754C70.5007 35.0678 70.3023 35.4276 70.0463 35.7335C69.7903 36.0395 69.4817 36.2853 69.1389 36.4566C68.796 36.6278 68.4258 36.7211 68.05 36.7307ZM55.3678 29.7081V31.9981H60.3125C60.235 33.0767 59.8316 34.0944 59.1679 34.886C58.6719 35.4477 58.0753 35.8874 57.4168 36.1767C56.7582 36.466 56.0524 36.5984 55.3449 36.5654C53.8878 36.5654 52.4904 35.922 51.46 34.7768C50.4297 33.6315 49.8509 32.0783 49.8509 30.4587C49.8509 28.8391 50.4297 27.2858 51.46 26.1406C52.4904 24.9954 53.8878 24.352 55.3449 24.352C56.7419 24.3289 58.0907 24.9186 59.0992 25.9932L60.5529 24.3775C59.8707 23.6275 59.0607 23.0364 58.1703 22.6388C57.28 22.2412 56.3272 22.0451 55.3678 22.062C54.3503 22.018 53.3352 22.2028 52.3834 22.6052C51.4317 23.0077 50.5628 23.6196 49.8288 24.4042C49.0949 25.1888 48.511 26.1301 48.1122 27.1715C47.7134 28.213 47.5078 29.3332 47.5078 30.465C47.5078 31.5969 47.7134 32.7171 48.1122 33.7586C48.511 34.8 49.0949 35.7413 49.8288 36.5259C50.5628 37.3105 51.4317 37.9224 52.3834 38.3249C53.3352 38.7273 54.3503 38.9121 55.3678 38.8681C56.3469 38.9115 57.3232 38.7243 58.2326 38.3187C59.142 37.913 59.964 37.2982 60.6444 36.5145C61.8464 35.0468 62.4868 33.1166 62.43 31.133C62.4341 30.6555 62.3996 30.1787 62.327 29.7081H55.3678ZM107.23 31.4892C106.931 30.5131 106.373 29.6607 105.629 29.0451C104.885 28.4294 103.99 28.0794 103.063 28.0415C102.437 28.0401 101.817 28.1815 101.242 28.4569C100.667 28.7323 100.149 29.1358 99.7203 29.6426C99.2912 30.1494 98.9601 30.7486 98.7476 31.4032C98.5351 32.0578 98.4457 32.7539 98.4848 33.4484C98.475 34.6098 98.8035 35.7435 99.4212 36.6802C100.039 37.6169 100.913 38.3064 101.912 38.6456C102.911 38.9849 103.983 38.9557 104.966 38.5624C105.949 38.1691 106.791 37.4328 107.367 36.4636L105.707 35.1914C105.46 35.6497 105.109 36.0282 104.689 36.2893C104.27 36.5504 103.796 36.685 103.315 36.6799C102.819 36.7026 102.328 36.5581 101.907 36.2651C101.487 35.9722 101.155 35.5447 100.957 35.0387L107.47 32.049L107.23 31.4892ZM100.591 33.2957C100.568 32.9006 100.616 32.5042 100.732 32.1299C100.848 31.7556 101.031 31.4108 101.268 31.1158C101.506 30.8208 101.794 30.5815 102.116 30.4119C102.438 30.2422 102.787 30.1457 103.143 30.1279C103.512 30.1029 103.879 30.1994 104.199 30.4053C104.519 30.6113 104.777 30.9175 104.94 31.2856L100.591 33.2957ZM95.3028 38.5373H97.4432V22.6345H95.3028V38.5373ZM91.8004 29.2501H91.7202C91.4005 28.8453 91.0059 28.5221 90.5634 28.3025C90.1209 28.083 89.6409 27.9722 89.1563 27.9779C87.9055 28.0453 86.726 28.645 85.8622 29.6528C84.9984 30.6606 84.5165 31.9992 84.5165 33.3912C84.5165 34.7831 84.9984 36.1217 85.8622 37.1295C86.726 38.1373 87.9055 38.737 89.1563 38.8045C89.6416 38.8153 90.123 38.7069 90.5663 38.4869C91.0095 38.267 91.4035 37.941 91.7202 37.5322H91.8004V38.3083C91.8004 40.382 90.8046 41.4889 89.2021 41.4889C88.6668 41.4758 88.1471 41.2862 87.7089 40.9441C87.2708 40.6021 86.934 40.123 86.7412 39.5678L84.887 40.4202C85.2298 41.3772 85.8259 42.1961 86.5963 42.7685C87.3668 43.3409 88.2755 43.64 89.2021 43.6262C91.7088 43.6262 93.7805 41.985 93.7805 37.9902V28.3595H91.8004V29.2501ZM89.3395 36.7307C88.5895 36.6788 87.8856 36.311 87.3711 35.7024C86.8566 35.0937 86.5702 34.2899 86.5702 33.4548C86.5702 32.6196 86.8566 31.8158 87.3711 31.2072C87.8856 30.5985 88.5895 30.2308 89.3395 30.1788C89.706 30.1964 90.0656 30.2957 90.3969 30.471C90.7282 30.6462 91.0244 30.8937 91.2679 31.1987C91.5114 31.5038 91.6972 31.8601 91.8142 32.2466C91.9312 32.6331 91.9771 33.0418 91.9492 33.4484C91.9804 33.8564 91.9368 34.2672 91.8212 34.6559C91.7055 35.0447 91.5201 35.4033 91.2761 35.7101C91.0322 36.017 90.7348 36.2656 90.4019 36.441C90.069 36.6165 89.7076 36.715 89.3395 36.7307V36.7307ZM117.256 22.6345H112.128V38.5373H114.269V32.507H117.256C117.866 32.5557 118.479 32.4642 119.056 32.2382C119.632 32.0122 120.161 31.6565 120.609 31.1934C121.056 30.7303 121.413 30.1696 121.658 29.5463C121.902 28.923 122.028 28.2505 122.028 27.5707C122.028 26.891 121.902 26.2185 121.658 25.5952C121.413 24.9719 121.056 24.4112 120.609 23.9481C120.161 23.485 119.632 23.1293 119.056 22.9033C118.479 22.6773 117.866 22.5858 117.256 22.6345V22.6345ZM117.256 30.2679H114.269V24.8482H117.302C117.624 24.8482 117.942 24.9186 118.239 25.0554C118.537 25.1923 118.807 25.3928 119.034 25.6456C119.261 25.8984 119.442 26.1986 119.565 26.5289C119.688 26.8592 119.751 27.2132 119.751 27.5707C119.751 27.9283 119.688 28.2823 119.565 28.6126C119.442 28.9429 119.261 29.2431 119.034 29.4959C118.807 29.7487 118.537 29.9492 118.239 30.0861C117.942 30.2229 117.624 30.2933 117.302 30.2933L117.256 30.2679ZM130.465 27.9906C129.685 27.9372 128.909 28.1389 128.232 28.5707C127.554 29.0026 127.005 29.6457 126.653 30.4205L128.542 31.2984C128.733 30.9159 129.019 30.6031 129.366 30.3977C129.714 30.1922 130.107 30.1029 130.499 30.1406C130.771 30.1054 131.046 30.1306 131.309 30.2148C131.572 30.2991 131.817 30.4407 132.03 30.6313C132.243 30.822 132.42 31.0579 132.55 31.3254C132.68 31.5928 132.761 31.8863 132.788 32.1889V32.3416C132.1 31.9395 131.334 31.7298 130.556 31.7309C128.519 31.7309 126.436 33.0031 126.436 35.3186C126.456 35.8107 126.565 36.2934 126.756 36.7378C126.947 37.1822 127.217 37.5794 127.549 37.9058C127.881 38.2321 128.269 38.481 128.689 38.6375C129.109 38.7941 129.554 38.8552 129.996 38.8172C130.533 38.8502 131.068 38.7239 131.547 38.4511C132.025 38.1784 132.43 37.769 132.72 37.2651H132.788V38.5373H134.849V32.4179C134.849 29.6317 132.949 28.016 130.511 28.016L130.465 27.9906ZM130.202 36.7053C129.503 36.7053 128.531 36.3109 128.531 35.3567C128.531 34.0845 129.744 33.652 130.82 33.652C131.5 33.6333 132.172 33.8178 132.766 34.1863C132.694 34.8772 132.399 35.5157 131.936 35.9836C131.473 36.4514 130.873 36.7169 130.247 36.7307L130.202 36.7053ZM142.357 28.3595L139.908 35.255H139.839L137.298 28.3595H135.009L138.82 38.003L136.646 43.359H138.878L144.738 28.3595H142.357ZM123.128 38.5373H125.257V22.6345H123.128V38.5373Z" fill="#353535"/>
<path d="M12.6742 9.96308C12.2971 10.4588 12.1046 11.0959 12.1363 11.7442V39.8857C12.0973 40.535 12.2907 41.1751 12.6742 41.6668L12.7544 41.7686L26.936 26.0058V25.6241L12.7544 9.87402L12.6742 9.96308Z" fill="url(#paint1_linear_216_495)"/>
<path d="M31.766 31.1842L26.9358 25.8154L12.6741 41.6673C12.9975 41.9873 13.4115 42.1714 13.8443 42.1877C14.277 42.2039 14.7013 42.0513 15.0434 41.7564L31.766 31.1842" fill="url(#paint2_linear_216_495)"/>
<path d="M31.766 20.446L15.0434 9.88661C14.7035 9.58753 14.2796 9.43124 13.8462 9.4452C13.4129 9.45916 12.9978 9.64249 12.6741 9.96295L26.9358 25.8148L31.766 20.446Z" fill="url(#paint3_linear_216_495)"/>
<path opacity="0.25" d="M15.0435 10.0652L37.3516 24.1614C37.6563 24.3122 37.9248 24.5404 38.1355 24.8277C38.3463 25.115 38.4934 25.4533 38.5649 25.8153C38.5296 25.4169 38.3982 25.0365 38.1847 24.7141C37.9712 24.3916 37.6834 24.1392 37.3516 23.9833L15.0435 9.88708C13.4525 8.8693 12.1362 9.70897 12.1362 11.7445V11.9354C12.1706 9.8998 13.4525 9.06013 15.0435 10.0652Z" fill="#353535"/>
<defs>
<linearGradient id="paint0_linear_216_495" x1="42.9165" y1="25.4441" x2="12.2292" y2="25.4441" gradientUnits="userSpaceOnUse">
<stop stop-color="#FFE000"/>
<stop offset="0.41" stop-color="#FFBD00"/>
<stop offset="0.78" stop-color="#FFA500"/>
<stop offset="1" stop-color="#FF9C00"/>
</linearGradient>
<linearGradient id="paint1_linear_216_495" x1="25.6769" y1="11.4516" x2="4.44779" y2="30.5512" gradientUnits="userSpaceOnUse">
<stop stop-color="#00A0FF"/>
<stop offset="0.01" stop-color="#00A1FF"/>
<stop offset="0.26" stop-color="#00BEFF"/>
<stop offset="0.51" stop-color="#00D2FF"/>
<stop offset="0.76" stop-color="#00DFFF"/>
<stop offset="1" stop-color="#00E3FF"/>
</linearGradient>
<linearGradient id="paint2_linear_216_495" x1="29.1449" y1="28.7415" x2="0.351506" y2="54.6352" gradientUnits="userSpaceOnUse">
<stop stop-color="#FF3A44"/>
<stop offset="1" stop-color="#C31162"/>
</linearGradient>
<linearGradient id="paint3_linear_216_495" x1="9.08002" y1="0.599429" x2="21.9339" y2="12.1639" gradientUnits="userSpaceOnUse">
<stop stop-color="#32A071"/>
<stop offset="0.07" stop-color="#2DA771"/>
<stop offset="0.48" stop-color="#15CF74"/>
<stop offset="0.8" stop-color="#06E775"/>
<stop offset="1" stop-color="#00F076"/>
</linearGradient>
<clipPath id="clip0_216_495">
<rect width="171.26" height="50.8888" fill="white"/>
</clipPath>
</defs>
</svg>
