<svg width="173" height="52" viewBox="0 0 173 52" fill="none" xmlns="http://www.w3.org/2000/svg">
<g clip-path="url(#clip0_2_406)">
<path d="M166.599 0H6.57644C3.04132 0 0.175537 2.87397 0.175537 6.4192V44.9344C0.175537 48.4796 3.04132 51.3536 6.57644 51.3536H166.599C170.134 51.3536 173 48.4796 173 44.9344V6.4192C173 2.87397 170.134 0 166.599 0Z" fill="white"/>
<path d="M39.8467 25.2585C39.861 24.1869 40.1574 23.1362 40.7083 22.2042C41.2592 21.2722 42.0466 20.4892 42.9973 19.9279C42.3933 19.0996 41.5966 18.418 40.6703 17.9371C39.744 17.4562 38.7137 17.1894 37.6613 17.1578C35.4162 16.9315 33.2397 18.4478 32.0956 18.4478C30.9294 18.4478 29.168 17.1803 27.2712 17.2177C26.0443 17.2558 24.8486 17.5984 23.8006 18.2121C22.7526 18.8259 21.888 19.6899 21.2911 20.7199C18.7054 25.0187 20.6341 31.3365 23.111 34.8114C24.3502 36.5129 25.7985 38.4136 27.6936 38.3462C29.548 38.2723 30.2406 37.2107 32.4791 37.2107C34.6968 37.2107 35.3466 38.3462 37.2801 38.3033C39.27 38.2723 40.5237 36.5942 41.7195 34.8766C42.6099 33.6642 43.295 32.3242 43.7496 30.9063C42.5935 30.4368 41.6069 29.6508 40.9129 28.6465C40.2188 27.6421 39.848 26.4638 39.8467 25.2585V25.2585Z" fill="#353535"/>
<path d="M36.1945 14.873C37.2795 13.6223 37.814 12.0147 37.6846 10.3916C36.027 10.5588 34.4958 11.3195 33.3962 12.5223C32.8585 13.1098 32.4468 13.7934 32.1844 14.5339C31.922 15.2744 31.8142 16.0572 31.8671 16.8378C32.6962 16.846 33.5164 16.6734 34.266 16.3331C35.0156 15.9927 35.675 15.4935 36.1945 14.873Z" fill="#353535"/>
<path d="M63.2883 34.0388H56.96L55.4402 38.348H52.7598L58.7539 22.4053H61.5388L67.5329 38.348H64.8068L63.2883 34.0388ZM57.6154 32.0504H62.6317L60.1588 25.057H60.0896L57.6154 32.0504Z" fill="#353535"/>
<path d="M80.478 32.5377C80.478 36.1498 78.4647 38.4705 75.4265 38.4705C74.6569 38.5091 73.8915 38.3389 73.2179 37.9792C72.5444 37.6196 71.9899 37.085 71.618 36.4369H71.5605V42.1941H69.0759V26.7253H71.4809V28.6586H71.5266C71.9156 28.0135 72.4795 27.4818 73.1581 27.1199C73.8368 26.7581 74.605 26.5797 75.3808 26.6037C78.4529 26.6037 80.478 28.9357 80.478 32.5377ZM77.9242 32.5377C77.9242 30.1844 76.6577 28.6373 74.7254 28.6373C72.827 28.6373 71.5501 30.217 71.5501 32.5377C71.5501 34.8797 72.827 36.4482 74.7254 36.4482C76.6577 36.4482 77.9242 34.9123 77.9242 32.5377Z" fill="#353535"/>
<path d="M93.8005 32.5377C93.8005 36.1498 91.7872 38.4704 88.749 38.4704C87.9794 38.5091 87.214 38.3389 86.5405 37.9792C85.8669 37.6196 85.3124 37.085 84.9405 36.4368H84.883V42.1941H82.3984V26.7253H84.8034V28.6586H84.8491C85.2381 28.0135 85.8019 27.4818 86.4806 27.1199C87.1593 26.7581 87.9274 26.5797 88.7033 26.6037C91.7755 26.6037 93.8005 28.9357 93.8005 32.5377ZM91.2467 32.5377C91.2467 30.1844 89.9802 28.6373 88.0479 28.6373C86.1495 28.6373 84.8726 30.217 84.8726 32.5377C84.8726 34.8797 86.1495 36.4481 88.0479 36.4481C89.9802 36.4481 91.2467 34.9123 91.2467 32.5377H91.2467Z" fill="#353535"/>
<path d="M102.606 33.9062C102.79 35.4871 104.389 36.5252 106.575 36.5252C108.669 36.5252 110.176 35.4871 110.176 34.0616C110.176 32.8241 109.267 32.0832 107.115 31.5754L104.964 31.0776C101.915 30.3705 100.5 29.0014 100.5 26.7798C100.5 24.029 102.996 22.1396 106.541 22.1396C110.049 22.1396 112.454 24.029 112.535 26.7798H110.027C109.877 25.1888 108.507 24.2284 106.506 24.2284C104.504 24.2284 103.134 25.2001 103.134 26.6143C103.134 27.7414 104.009 28.4046 106.149 28.9124L107.978 29.3437C111.385 30.1172 112.8 31.4312 112.8 33.7631C112.8 36.7458 110.326 38.6139 106.391 38.6139C102.709 38.6139 100.223 36.7897 100.062 33.906L102.606 33.9062Z" fill="#353535"/>
<path d="M118.162 23.9736V26.7244H120.464V28.6138H118.162V35.0217C118.162 36.0171 118.623 36.481 119.635 36.481C119.908 36.4765 120.181 36.458 120.452 36.4258V38.3039C119.997 38.3856 119.535 38.4225 119.072 38.4143C116.622 38.4143 115.666 37.5304 115.666 35.2761V28.6138H113.906V26.7244H115.666V23.9736H118.162Z" fill="#353535"/>
<path d="M121.797 32.5373C121.797 28.8802 124.04 26.582 127.538 26.582C131.047 26.582 133.28 28.8801 133.28 32.5373C133.28 36.2046 131.059 38.4926 127.538 38.4926C124.018 38.4926 121.797 36.2045 121.797 32.5373ZM130.748 32.5373C130.748 30.0286 129.551 28.5479 127.538 28.5479C125.525 28.5479 124.329 30.0399 124.329 32.5373C124.329 35.0561 125.525 36.5255 127.538 36.5255C129.551 36.5255 130.748 35.0561 130.748 32.5373H130.748Z" fill="#353535"/>
<path d="M135.329 26.7242H137.698V28.7026H137.756C137.916 28.0847 138.293 27.5387 138.823 27.1562C139.354 26.7738 140.005 26.5783 140.667 26.6026C140.954 26.6016 141.239 26.6315 141.519 26.6916V28.9233C141.157 28.8172 140.78 28.7685 140.402 28.7791C140.041 28.7651 139.681 28.8262 139.347 28.9583C139.013 29.0904 138.713 29.2903 138.467 29.5444C138.221 29.7984 138.035 30.1006 137.923 30.4301C137.81 30.7596 137.772 31.1087 137.813 31.4534V38.3477H135.329L135.329 26.7242Z" fill="#353535"/>
<path d="M152.974 34.9345C152.64 37.0446 150.5 38.4926 147.762 38.4926C144.241 38.4926 142.055 36.2271 142.055 32.5925C142.055 28.9466 144.253 26.582 147.658 26.582C151.007 26.582 153.113 28.7911 153.113 32.3154V33.1329H144.563V33.277C144.524 33.7048 144.58 34.1358 144.727 34.5413C144.874 34.9467 145.11 35.3175 145.418 35.6289C145.726 35.9403 146.099 36.1852 146.513 36.3473C146.927 36.5095 147.373 36.5852 147.82 36.5694C148.407 36.6222 148.996 36.4916 149.5 36.1971C150.003 35.9025 150.394 35.4597 150.615 34.9345L152.974 34.9345ZM144.575 31.4654H150.627C150.649 31.0807 150.588 30.6958 150.448 30.3348C150.308 29.9738 150.092 29.6444 149.813 29.3674C149.535 29.0904 149.199 28.8717 148.828 28.7251C148.457 28.5785 148.059 28.507 147.658 28.5153C147.253 28.513 146.852 28.5876 146.478 28.735C146.103 28.8823 145.763 29.0993 145.476 29.3736C145.19 29.6479 144.962 29.9739 144.808 30.3329C144.653 30.692 144.574 31.0769 144.575 31.4654V31.4654Z" fill="#353535"/>
<path d="M57.3036 10.4062C57.8245 10.3703 58.3472 10.4458 58.834 10.6274C59.3208 10.809 59.7596 11.092 60.1187 11.4562C60.4778 11.8203 60.7482 12.2564 60.9106 12.7331C61.0729 13.2097 61.123 13.715 61.0573 14.2125C61.0573 16.6598 59.6799 18.0666 57.3036 18.0666H54.4221V10.4062H57.3036ZM55.6611 16.9833H57.1652C57.5374 17.0046 57.9099 16.946 58.2556 16.8117C58.6013 16.6774 58.9114 16.4708 59.1634 16.2069C59.4154 15.9429 59.6029 15.6284 59.7124 15.2861C59.8218 14.9438 59.8504 14.5824 59.7961 14.2281C59.8465 13.8753 59.815 13.5161 59.7039 13.1763C59.5927 12.8365 59.4047 12.5246 59.1533 12.2628C58.9019 12.0009 58.5932 11.7958 58.2495 11.662C57.9058 11.5281 57.5355 11.469 57.1652 11.4887H55.6611V16.9833Z" fill="#353535"/>
<path d="M62.457 15.1734C62.4192 14.7934 62.4644 14.4101 62.5899 14.048C62.7154 13.6859 62.9183 13.3529 63.1856 13.0705C63.4529 12.7881 63.7787 12.5624 64.1422 12.408C64.5056 12.2536 64.8987 12.1738 65.2961 12.1738C65.6936 12.1738 66.0866 12.2536 66.4501 12.408C66.8135 12.5624 67.1394 12.7881 67.4067 13.0705C67.674 13.3529 67.8769 13.6859 68.0023 14.048C68.1278 14.4101 68.1731 14.7934 68.1352 15.1734C68.1738 15.5537 68.1291 15.9375 68.0039 16.3002C67.8788 16.6629 67.676 16.9965 67.4086 17.2795C67.1413 17.5625 66.8152 17.7886 66.4514 17.9433C66.0875 18.0981 65.694 18.178 65.2961 18.178C64.8982 18.178 64.5047 18.0981 64.1409 17.9433C63.7771 17.7886 63.451 17.5625 63.1836 17.2795C62.9162 16.9965 62.7134 16.6629 62.5883 16.3002C62.4632 15.9375 62.4185 15.5537 62.457 15.1734V15.1734ZM66.9131 15.1734C66.9131 13.9202 66.3269 13.1874 65.2981 13.1874C64.2653 13.1874 63.6844 13.9202 63.6844 15.1734C63.6844 16.4365 64.2654 17.1637 65.2981 17.1637C66.3269 17.1637 66.9131 16.4315 66.9131 15.1734H66.9131Z" fill="#353535"/>
<path d="M75.6829 18.0662H74.4504L73.2062 13.8085H73.1122L71.8731 18.0662H70.6524L68.9929 12.2852H70.198L71.2765 16.6964H71.3653L72.603 12.2852H73.7428L74.9805 16.6964H75.0745L76.1477 12.2852H77.3359L75.6829 18.0662Z" fill="#353535"/>
<path d="M78.7315 12.2853H79.8752V13.2036H79.964C80.1146 12.8738 80.3686 12.5973 80.6906 12.4126C81.0127 12.228 81.3867 12.1445 81.7605 12.1737C82.0534 12.1525 82.3476 12.1949 82.6211 12.2978C82.8946 12.4006 83.1406 12.5612 83.3407 12.7677C83.5408 12.9742 83.69 13.2213 83.7772 13.4907C83.8643 13.76 83.8873 14.0448 83.8443 14.3238V18.0662H82.6562V14.6103C82.6562 13.6813 82.2358 13.2193 81.3571 13.2193C81.1582 13.2104 80.9596 13.2429 80.7751 13.3146C80.5905 13.3863 80.4242 13.4954 80.2877 13.6346C80.1512 13.7737 80.0476 13.9396 79.984 14.1208C79.9205 14.3019 79.8985 14.4942 79.9196 14.6843V18.0663H78.7314L78.7315 12.2853Z" fill="#353535"/>
<path d="M85.7375 10.0283H86.9257V18.0661H85.7375V10.0283Z" fill="#353535"/>
<path d="M88.5774 15.1735C88.5395 14.7935 88.5848 14.4102 88.7103 14.0481C88.8358 13.6859 89.0387 13.3529 89.3061 13.0705C89.5734 12.7881 89.8993 12.5624 90.2628 12.408C90.6262 12.2536 91.0193 12.1738 91.4168 12.1738C91.8142 12.1738 92.2073 12.2536 92.5708 12.408C92.9343 12.5624 93.2601 12.7881 93.5275 13.0705C93.7948 13.3529 93.9977 13.6859 94.1232 14.0481C94.2487 14.4102 94.294 14.7935 94.2562 15.1735C94.2947 15.5538 94.2499 15.9376 94.1248 16.3003C93.9996 16.6631 93.7968 16.9966 93.5294 17.2796C93.262 17.5626 92.9359 17.7887 92.5721 17.9434C92.2082 18.0982 91.8147 18.1781 91.4168 18.1781C91.0189 18.1781 90.6253 18.0982 90.2615 17.9434C89.8977 17.7887 89.5716 17.5626 89.3042 17.2796C89.0367 16.9966 88.8339 16.6631 88.7088 16.3003C88.5836 15.9376 88.5388 15.5538 88.5774 15.1735V15.1735ZM93.0335 15.1735C93.0335 13.9204 92.4472 13.1875 91.4184 13.1875C90.3857 13.1875 89.8047 13.9204 89.8047 15.1735C89.8047 16.4366 90.3857 17.1638 91.4184 17.1638C92.4472 17.1638 93.0335 16.4316 93.0335 15.1735H93.0335Z" fill="#353535"/>
<path d="M95.5068 16.4316C95.5068 15.3909 96.3137 14.791 97.746 14.7058L99.3767 14.6155V14.1165C99.3767 13.5059 98.9563 13.1612 98.1442 13.1612C97.4809 13.1612 97.0214 13.395 96.8895 13.8037H95.7392C95.8607 12.8107 96.8334 12.1738 98.199 12.1738C99.7083 12.1738 100.56 12.8953 100.56 14.1165V18.0664H99.4159V17.254H99.3219C99.1311 17.5454 98.8631 17.783 98.5454 17.9425C98.2277 18.1019 97.8717 18.1776 97.5136 18.1617C97.2608 18.1869 97.0054 18.161 96.7637 18.0857C96.5221 18.0103 96.2995 17.8872 96.1105 17.7242C95.9214 17.5612 95.77 17.3619 95.666 17.1393C95.5621 16.9166 95.5078 16.6755 95.5068 16.4316V16.4316ZM99.3767 15.9376V15.4543L97.9066 15.5445C97.0775 15.5978 96.7015 15.8686 96.7015 16.3783C96.7015 16.8986 97.1715 17.2013 97.8178 17.2013C98.0072 17.2198 98.1985 17.2014 98.3803 17.1474C98.5622 17.0933 98.7308 17.0047 98.8763 16.8868C99.0217 16.7689 99.141 16.6241 99.2269 16.461C99.3129 16.2979 99.3638 16.1199 99.3767 15.9376V15.9376Z" fill="#353535"/>
<path d="M102.121 15.1731C102.121 13.3464 103.099 12.1892 104.62 12.1892C104.996 12.1725 105.37 12.2591 105.697 12.4387C106.024 12.6183 106.29 12.8835 106.466 13.2034H106.555V10.0283H107.743V18.0661H106.605V17.1527H106.511C106.321 17.4705 106.045 17.7324 105.712 17.9102C105.379 18.088 105.001 18.1749 104.62 18.1614C103.089 18.1614 102.121 17.0042 102.121 15.1731ZM103.348 15.1731C103.348 16.3993 103.95 17.1371 104.957 17.1371C105.958 17.1371 106.577 16.3886 106.577 15.1781C106.577 13.9733 105.952 13.2141 104.957 13.2141C103.957 13.2141 103.348 13.957 103.348 15.1731H103.348Z" fill="#353535"/>
<path d="M112.659 15.1734C112.621 14.7934 112.666 14.4101 112.792 14.048C112.917 13.6859 113.12 13.3529 113.387 13.0705C113.655 12.7881 113.981 12.5624 114.344 12.408C114.708 12.2536 115.101 12.1738 115.498 12.1738C115.895 12.1738 116.288 12.2536 116.652 12.408C117.015 12.5624 117.341 12.7881 117.609 13.0705C117.876 13.3529 118.079 13.6859 118.204 14.048C118.33 14.4101 118.375 14.7934 118.337 15.1734C118.376 15.5537 118.331 15.9375 118.206 16.3002C118.081 16.6629 117.878 16.9965 117.611 17.2795C117.343 17.5625 117.017 17.7886 116.653 17.9433C116.289 18.0981 115.896 18.178 115.498 18.178C115.1 18.178 114.707 18.0981 114.343 17.9433C113.979 17.7886 113.653 17.5625 113.385 17.2795C113.118 16.9965 112.915 16.6629 112.79 16.3002C112.665 15.9375 112.62 15.5537 112.659 15.1734V15.1734ZM117.115 15.1734C117.115 13.9202 116.529 13.1874 115.5 13.1874C114.467 13.1874 113.886 13.9202 113.886 15.1734C113.886 16.4365 114.467 17.1637 115.5 17.1637C116.529 17.1637 117.115 16.4315 117.115 15.1734Z" fill="#353535"/>
<path d="M119.931 12.2853H121.075V13.2036H121.164C121.314 12.8738 121.568 12.5973 121.89 12.4126C122.212 12.228 122.586 12.1445 122.96 12.1737C123.253 12.1525 123.547 12.1949 123.821 12.2978C124.094 12.4006 124.34 12.5612 124.54 12.7677C124.741 12.9742 124.89 13.2213 124.977 13.4907C125.064 13.76 125.087 14.0448 125.044 14.3238V18.0662H123.856V14.6103C123.856 13.6813 123.435 13.2193 122.557 13.2193C122.358 13.2104 122.159 13.2429 121.975 13.3146C121.79 13.3863 121.624 13.4954 121.487 13.6346C121.351 13.7737 121.247 13.9396 121.184 14.1208C121.12 14.3019 121.098 14.4942 121.119 14.6843V18.0663H119.931V12.2853Z" fill="#353535"/>
<path d="M131.758 10.8457V12.3113H133.062V13.2723H131.758V16.245C131.758 16.8505 132.018 17.1157 132.609 17.1157C132.76 17.1152 132.912 17.1064 133.062 17.0894V18.0397C132.849 18.0764 132.632 18.0959 132.416 18.098C131.094 18.098 130.568 17.6517 130.568 16.5371V13.2723H129.613V12.3113H130.568V10.8457H131.758Z" fill="#353535"/>
<path d="M134.685 10.0283H135.862V13.2141H135.956C136.114 12.8812 136.375 12.6031 136.704 12.4178C137.032 12.2325 137.412 12.1489 137.792 12.1785C138.083 12.1633 138.375 12.21 138.645 12.3153C138.915 12.4207 139.158 12.582 139.356 12.7878C139.554 12.9937 139.703 13.239 139.791 13.5062C139.879 13.7734 139.904 14.056 139.865 14.3337V18.0661H138.676V14.6152C138.676 13.6918 138.228 13.2241 137.389 13.2241C137.184 13.208 136.979 13.235 136.787 13.3031C136.595 13.3712 136.42 13.4788 136.276 13.6184C136.131 13.758 136.02 13.9263 135.951 14.1113C135.881 14.2963 135.855 14.4938 135.873 14.6897V18.0661H134.685L134.685 10.0283Z" fill="#353535"/>
<path d="M146.793 16.5046C146.632 17.033 146.282 17.49 145.805 17.7958C145.328 18.1015 144.755 18.2365 144.185 18.1771C143.788 18.1872 143.394 18.1142 143.029 17.9634C142.665 17.8125 142.339 17.5873 142.075 17.3034C141.81 17.0194 141.613 16.6837 141.497 16.3193C141.381 15.9549 141.349 15.5707 141.404 15.1932C141.351 14.8146 141.383 14.4296 141.499 14.0641C141.615 13.6986 141.811 13.3613 142.074 13.0749C142.337 12.7885 142.661 12.5598 143.024 12.4041C143.388 12.2485 143.782 12.1697 144.179 12.1729C145.854 12.1729 146.865 13.2719 146.865 15.0873V15.4854H142.614V15.5493C142.595 15.7615 142.623 15.975 142.695 16.1762C142.768 16.3775 142.883 16.562 143.034 16.7179C143.185 16.8738 143.368 16.9978 143.572 17.0817C143.776 17.1657 143.996 17.2078 144.217 17.2055C144.501 17.2382 144.789 17.1891 145.044 17.0643C145.299 16.9395 145.51 16.7447 145.649 16.5046L146.793 16.5046ZM142.614 14.6416H145.655C145.67 14.4476 145.642 14.2527 145.574 14.0694C145.506 13.8862 145.399 13.7187 145.259 13.5777C145.12 13.4366 144.951 13.3252 144.764 13.2505C144.577 13.1758 144.375 13.1395 144.173 13.144C143.967 13.1415 143.763 13.1785 143.573 13.2529C143.383 13.3273 143.21 13.4376 143.065 13.5771C142.919 13.7167 142.805 13.8828 142.727 14.0656C142.65 14.2484 142.611 14.4443 142.614 14.6416H142.614Z" fill="#353535"/>
</g>
<defs>
<clipPath id="clip0_2_406">
<rect width="172.824" height="51.3536" fill="white" transform="translate(0.175537)"/>
</clipPath>
</defs>
</svg>
