<svg width="40" height="39" viewBox="0 0 40 39" fill="none" xmlns="http://www.w3.org/2000/svg">
<rect x="3.23999" y="2.39429" width="33.5202" height="33.5202" rx="16.7601" fill="#1275B1"/>
<path d="M15.9521 11.6029C15.9521 12.7217 14.9823 13.6287 13.7861 13.6287C12.5899 13.6287 11.6201 12.7217 11.6201 11.6029C11.6201 10.4841 12.5899 9.57715 13.7861 9.57715C14.9823 9.57715 15.9521 10.4841 15.9521 11.6029Z" fill="white"/>
<path d="M11.9163 15.1177H15.6188V26.3372H11.9163V15.1177Z" fill="white"/>
<path d="M21.5799 15.1177H17.8774V26.3372H21.5799C21.5799 26.3372 21.5799 22.8052 21.5799 20.5967C21.5799 19.2712 22.0325 17.9399 23.8385 17.9399C25.8794 17.9399 25.8671 19.6745 25.8576 21.0184C25.8451 22.7751 25.8748 24.5677 25.8748 26.3372H29.5774V20.4158C29.546 16.6348 28.5608 14.8926 25.3195 14.8926C23.3946 14.8926 22.2014 15.7665 21.5799 16.5571V15.1177Z" fill="white"/>
</svg>
