<svg width="173" height="39" viewBox="0 0 173 39" fill="none" xmlns="http://www.w3.org/2000/svg">
<path fill-rule="evenodd" clip-rule="evenodd" d="M126.569 25.8493V7.31536H130.905V25.8493H126.569ZM128.79 0.00215195C129.138 -0.00119932 129.483 0.066057 129.805 0.199989C130.127 0.333921 130.42 0.531841 130.666 0.782178C130.912 1.03252 131.107 1.33025 131.239 1.65797C131.37 1.98569 131.437 2.33682 131.433 2.69083C131.433 3.41817 131.149 4.11573 130.643 4.63004C130.138 5.14435 129.452 5.43328 128.737 5.43328C128.022 5.43328 127.336 5.14435 126.83 4.63004C126.325 4.11573 126.041 3.41817 126.041 2.69083C126.04 2.32851 126.112 1.96988 126.251 1.63646C126.391 1.30304 126.595 1.00172 126.852 0.75059C127.109 0.499465 127.413 0.303716 127.746 0.175102C128.079 0.0464868 128.434 -0.0123409 128.79 0.00215195ZM167.349 13.8757C167.115 12.7382 166.459 11.7363 165.516 11.0795C164.549 10.4224 163.4 10.0959 162.238 10.1474C161.159 10.1121 160.105 10.4822 159.277 11.1871C158.371 11.848 157.722 12.8126 157.445 13.9116H167.349V13.8757ZM158.855 20.5437C157.921 19.8267 157.427 18.7189 157.209 17.3889H172.012V16.421C172.049 15.2938 171.906 14.1679 171.589 13.0871C171.323 12.098 170.868 11.1721 170.25 10.3625C169.353 9.04963 168.155 7.97904 166.76 7.24366C165.363 6.50228 163.814 6.10908 162.238 6.09649C160.995 6.10066 159.768 6.38211 158.643 6.92102C157.424 7.47301 156.341 8.29337 155.471 9.3229C154.623 10.1764 153.963 11.2027 153.532 12.3342C153.102 13.5057 152.864 14.7409 152.827 15.9908C152.847 17.2775 153.085 18.5511 153.532 19.755C154.025 20.9104 154.718 21.9667 155.577 22.8738C156.408 23.8467 157.461 24.5975 158.643 25.0606C159.854 25.5496 161.147 25.7931 162.45 25.7776C164.39 25.8257 166.294 25.2347 167.877 24.0927C169.449 22.889 170.657 21.2623 171.367 19.3965H166.75C166.3 20.1168 165.667 20.6992 164.917 21.0814C164.119 21.4889 163.237 21.6978 162.344 21.6908C161.086 21.7241 159.855 21.3193 158.855 20.5437ZM36.4808 20.0059C35.4967 18.8571 34.9799 17.3701 35.0357 15.8474C35.0235 14.386 35.5375 12.9706 36.4808 11.8682C36.974 11.3525 37.5668 10.9461 38.2219 10.6746C38.877 10.4032 39.5802 10.2725 40.2874 10.2908C40.9823 10.2867 41.6708 10.4264 42.311 10.7016C42.9511 10.9767 43.5295 11.3815 44.0109 11.8913C44.4923 12.401 44.8667 13.0052 45.1112 13.6668C45.3558 14.3284 45.4653 15.0338 45.4333 15.7399C45.4333 17.4965 45.0103 18.8588 44.0939 19.8984C43.5987 20.4113 43.0055 20.8159 42.3509 21.0871C41.6963 21.3584 40.9941 21.4906 40.2874 21.4757C38.6308 21.4757 37.3972 20.938 36.4808 20.0059ZM31.3349 12.1908C30.8548 13.3473 30.6148 14.5922 30.63 15.8474C30.5991 17.1425 30.8519 18.4283 31.3702 19.6116C31.8342 20.7899 32.4895 21.8805 33.3087 22.838C34.2349 23.7466 35.308 24.4863 36.4808 25.0248C37.6519 25.5232 38.9124 25.7674 40.1816 25.7418C41.5091 25.7815 42.8299 25.5372 44.0587 25.0248C45.2411 24.5616 46.294 23.8108 47.1251 22.838C48.0184 21.9594 48.7155 20.8957 49.1693 19.7191C49.6186 18.4414 49.8568 17.0968 49.8743 15.7399C49.8592 14.4421 49.5833 13.1611 49.0636 11.9757C48.5601 10.7412 47.789 9.63835 46.8079 8.74932C45.912 7.90812 44.8729 7.23998 43.7415 6.77762C42.5897 6.3402 41.3752 6.09799 40.1464 6.06064C38.8692 6.06458 37.6075 6.34568 36.4456 6.88517C35.2888 7.34675 34.243 8.05584 33.3792 8.96441C32.4952 9.89222 31.8004 10.9887 31.3349 12.1908ZM83.3226 6.06064C80.7146 6.07015 78.2171 7.13303 76.3795 9.01547C74.542 10.8979 73.5149 13.4457 73.5242 16.0984C73.5336 18.751 74.5786 21.2913 76.4294 23.1603C78.2801 25.0293 80.7851 26.0739 83.3931 26.0644C85.4021 26.0644 87.5169 25.4191 88.9267 24.3437V25.9927H93.1562V16.0625C93.1314 13.4177 92.0874 10.8883 90.2486 9.01802C88.4098 7.14774 85.9229 6.08587 83.3226 6.06064ZM83.3578 21.655C82.2704 21.655 81.2073 21.327 80.3031 20.7125C79.3989 20.098 78.6942 19.2246 78.278 18.2027C77.8619 17.1808 77.753 16.0563 77.9651 14.9715C78.1773 13.8867 78.701 12.8902 79.4699 12.1081C80.2389 11.3259 81.2186 10.7933 82.2852 10.5775C83.3517 10.3617 84.4573 10.4725 85.462 10.8958C86.4667 11.3191 87.3254 12.0359 87.9296 12.9555C88.5337 13.8752 88.8562 14.9564 88.8562 16.0625C88.8614 16.7984 88.7227 17.528 88.4482 18.2089C88.1737 18.8897 87.7689 19.5083 87.2573 20.0287C86.7457 20.549 86.1375 20.9608 85.4681 21.24C84.7986 21.5191 84.0813 21.6602 83.3578 21.655ZM5.49969 15.8474C5.50203 16.2153 5.43252 16.58 5.29519 16.9203C5.15786 17.2606 4.95544 17.5698 4.69969 17.83C4.44394 18.0901 4.13994 18.296 3.80534 18.4357C3.47074 18.5753 3.11219 18.646 2.75051 18.6437C2.0354 18.6437 1.34959 18.3547 0.84393 17.8404C0.338274 17.3261 0.0541992 16.6285 0.0541992 15.9012C0.0541992 15.1739 0.338274 14.4763 0.84393 13.962C1.34959 13.4477 2.0354 13.1588 2.75051 13.1588C3.46459 13.1481 4.15392 13.4246 4.66871 13.9281C5.18349 14.4315 5.48212 15.1213 5.49969 15.8474ZM138.059 25.7418V14.4493C138.059 13.3797 138.477 12.3539 139.221 11.5975C139.964 10.8412 140.973 10.4163 142.025 10.4163C143.076 10.4163 144.085 10.8412 144.828 11.5975C145.572 12.3539 145.99 13.3797 145.99 14.4493V25.7418H150.325V14.5569C150.325 12.3035 149.445 10.1425 147.878 8.54913C146.312 6.95578 144.187 6.06064 141.972 6.06064C139.756 6.06064 137.632 6.95578 136.065 8.54913C134.499 10.1425 133.618 12.3035 133.618 14.5569V25.7418H138.059ZM111.978 14.5569V25.7418H107.537V14.4493C107.521 13.3989 107.104 12.3958 106.374 11.653C105.643 10.9101 104.657 10.4858 103.624 10.4701C103.11 10.4687 102.601 10.5706 102.125 10.7701C101.65 10.9696 101.218 11.2626 100.855 11.6324C100.491 12.0022 100.203 12.4414 100.007 12.9249C99.8108 13.4083 99.7105 13.9264 99.7119 14.4493V25.7418H95.271V14.5569C95.2756 12.305 96.1572 10.1467 97.7227 8.55436C99.2882 6.96203 101.41 6.06538 103.624 6.06064C104.783 6.05635 105.93 6.30355 106.987 6.78573C108.045 7.26792 108.989 7.97401 109.757 8.85687C110.525 7.97401 111.469 7.26792 112.527 6.78573C113.584 6.30355 114.731 6.05635 115.89 6.06064C118.104 6.06538 120.226 6.96203 121.791 8.55436C123.357 10.1467 124.238 12.305 124.243 14.5569V25.7418H119.908V14.4493C119.908 13.3797 119.49 12.3539 118.746 11.5975C118.003 10.8412 116.994 10.4163 115.943 10.4163C114.891 10.4163 113.882 10.8412 113.139 11.5975C112.395 12.3539 111.978 13.3797 111.978 14.4493V14.5569ZM61.6816 5.84555C59.0765 5.85499 56.5806 6.91179 54.7385 8.78547C52.8963 10.6591 51.8573 13.1977 51.848 15.8474V33.1625H56.0775V24.1644C57.3519 25.0523 58.8134 25.6235 60.3445 25.8321C61.8755 26.0407 63.4333 25.8808 64.8925 25.3654C66.3517 24.8499 67.6716 23.9932 68.7459 22.8643C69.8202 21.7354 70.619 20.3657 71.0779 18.8655C71.5368 17.3653 71.6431 15.7765 71.3882 14.2269C71.1333 12.6773 70.5244 11.2102 69.6103 9.94361C68.6963 8.67706 67.5027 7.64642 66.1256 6.93465C64.7485 6.22288 63.2263 5.84984 61.6816 5.84555ZM61.6816 21.5833C60.2094 21.5833 58.7974 20.9884 57.7563 19.9295C56.7153 18.8707 56.1304 17.4345 56.1304 15.9371C56.1304 14.4396 56.7153 13.0034 57.7563 11.9446C58.7974 10.8857 60.2094 10.2908 61.6816 10.2908C63.1539 10.2908 64.5659 10.8857 65.6069 11.9446C66.648 13.0034 67.2328 14.4396 67.2328 15.9371C67.2328 17.4345 66.648 18.8707 65.6069 19.9295C64.5659 20.9884 63.1539 21.5833 61.6816 21.5833ZM18.8579 10.3984C17.7774 10.3984 16.7211 10.7243 15.8227 11.3348C14.9243 11.9454 14.2241 12.8132 13.8106 13.8286C13.3971 14.8439 13.2889 15.9611 13.4997 17.039C13.7105 18.1169 14.2308 19.107 14.9949 19.8841C15.7589 20.6612 16.7323 21.1904 17.7921 21.4048C18.8518 21.6192 19.9503 21.5092 20.9485 21.0886C21.9468 20.668 22.8 19.9558 23.4003 19.0421C24.0006 18.1283 24.321 17.054 24.321 15.955C24.321 14.4813 23.7454 13.0679 22.7209 12.0259C21.6963 10.9838 20.3068 10.3984 18.8579 10.3984ZM9.16526 15.955C9.16526 13.3403 10.1864 10.8328 12.0042 8.98397C13.8219 7.13515 16.2872 6.09649 18.8579 6.09649C21.4285 6.09649 23.8939 7.13515 25.7116 8.98397C27.5293 10.8328 28.5505 13.3403 28.5505 15.955V16.1342V23.8418C28.551 25.7015 28.1912 27.543 27.4917 29.2613C26.7922 30.9795 25.7667 32.5407 24.4738 33.8557C23.181 35.1707 21.646 36.2137 19.9567 36.9252C18.2674 37.6367 16.4568 38.0026 14.6284 38.0021H14.1843C10.6097 38.0021 7.18149 36.5578 4.65387 33.987C2.12625 31.4161 0.706248 27.9292 0.706248 24.2935H4.93575C4.93575 26.7883 5.91015 29.181 7.64458 30.9451C9.37902 32.7092 11.7314 33.7003 14.1843 33.7003H14.6284C17.1553 33.7021 19.583 32.6997 21.3937 30.9069C23.2044 29.1141 24.2548 26.6728 24.321 24.1035C22.8639 25.1132 21.1637 25.6998 19.4033 25.8C17.6428 25.9002 15.8889 25.5103 14.3301 24.6722C12.7713 23.8342 11.4667 22.5796 10.5567 21.0436C9.6466 19.5076 9.16555 17.7483 9.16526 15.955Z" fill="white"/>
</svg>
