<svg width="97" height="96" viewBox="0 0 97 96" fill="none" xmlns="http://www.w3.org/2000/svg">
<circle cx="48.99" cy="48" r="48" fill="#452AB6"/>
<path d="M50.4035 35.9964C49.811 35.6257 49.0898 35.5352 48.4252 35.748C48.1529 35.8352 47.8692 35.9017 47.6023 35.9407C46.6754 36.075 45.7175 35.9985 45.3687 35.8488C44.3375 35.4064 43.191 35.5504 42.3014 36.234C41.4118 36.9175 40.9768 37.9889 41.1377 39.0998L42.2106 46.5055C39.2135 45.1604 35.7875 47.7634 36.294 51.0329C37.3144 56.5394 45.1939 55.4922 44.7531 49.9204L43.1433 38.8092C43.0654 38.2716 43.3952 37.9565 43.5386 37.8463C43.6821 37.7361 44.0695 37.5029 44.5685 37.717C45.4323 38.0876 46.8631 38.1018 47.8938 37.9525C48.2691 37.8976 48.6678 37.8047 49.0444 37.6841C49.1745 37.6427 49.2772 37.6888 49.3271 37.7201C49.3779 37.7518 49.4661 37.8258 49.4861 37.964L49.8528 40.4954C49.8747 40.6461 49.7967 40.7938 49.6633 40.8546C49.2919 41.024 48.8141 41.1569 48.3178 41.2288L48.3173 41.2289C47.5892 41.3343 46.7082 41.1642 46.6994 41.1624C46.15 41.0535 45.616 41.4102 45.5062 41.9601C45.3963 42.5105 45.7531 43.046 46.3031 43.1561C46.4273 43.181 47.5468 43.3945 48.6085 43.2408L48.6092 43.2407C49.3007 43.1405 49.9566 42.955 50.5061 42.7044C51.4556 42.2713 52.0136 41.2432 51.8631 40.2042L51.4963 37.6727C51.3958 36.979 50.9975 36.368 50.4035 35.9964ZM40.8361 52.6342C39.6168 52.8109 38.481 51.9618 38.3042 50.7416C38.0003 47.7882 42.1805 47.1834 42.7267 50.1009C42.9035 51.3211 42.0554 52.4576 40.8361 52.6342ZM60.5805 43.2002C59.988 42.8296 59.267 42.7391 58.6022 42.9519C58.3299 43.039 58.0449 43.1057 57.7781 43.1448L57.77 43.1459C56.8431 43.2802 55.8946 43.2023 55.5457 43.0526C54.5146 42.6103 53.3681 42.7543 52.4784 43.4378C51.5888 44.1214 51.1538 45.1927 51.3148 46.3036L52.2419 52.7035C49.2448 51.3584 45.8189 53.9614 46.3254 57.2309C47.3456 62.7368 55.2245 61.6912 54.783 56.1186C54.7817 56.0816 53.325 46.0124 53.325 46.0124C53.2471 45.4748 53.5723 45.1604 53.7157 45.0502C53.8592 44.94 54.2465 44.7068 54.7456 44.9209C55.6094 45.2915 57.0318 45.3069 58.0625 45.1576L58.0722 45.1562C58.4475 45.1013 58.8449 45.0086 59.2215 44.888C59.3515 44.8466 59.4543 44.8927 59.5041 44.924C59.5549 44.9557 59.6431 45.0297 59.6631 45.1679L60.0299 47.6993C60.0517 47.85 59.9738 47.9977 59.8404 48.0585C59.469 48.2279 58.9912 48.3608 58.4948 48.4327L58.4943 48.4328C57.7662 48.5382 56.8852 48.3681 56.8764 48.3663C56.327 48.2573 55.7931 48.6141 55.6832 49.164C55.5733 49.7144 55.9301 50.2499 56.4802 50.36C56.6043 50.3849 57.7239 50.5984 58.7855 50.4447L58.7862 50.4446C59.4777 50.3444 60.1337 50.1589 60.6832 49.9083C61.6326 49.4752 62.1906 48.4471 62.0401 47.4081L61.6734 44.8767C61.5728 44.1829 61.1745 43.5719 60.5805 43.2002ZM50.8674 58.8322C49.6481 59.0088 48.5123 58.1598 48.3355 56.9395C48.0316 53.9861 52.2118 53.3814 52.7581 56.2988C52.9348 57.5191 52.0867 58.6555 50.8674 58.8322Z" fill="white"/>
</svg>
