<svg width="88" height="112" viewBox="0 0 88 112" fill="none" xmlns="http://www.w3.org/2000/svg">
<g clip-path="url(#clip0_613_1434)">
<path d="M56.8279 22.8694L46.7295 -0.000356674C34.5987 5.35612 25.0925 15.3122 20.3023 27.6776C15.5121 40.043 15.8303 53.8049 21.1867 65.9357C26.5432 78.0666 36.4993 87.5727 48.8647 92.3629C61.2301 97.1531 74.992 96.835 87.1228 91.4785L77.0245 68.6088C70.9591 71.287 64.0781 71.4461 57.8954 69.051C51.7127 66.6559 46.7347 61.9028 44.0565 55.8374C41.3782 49.772 41.2191 42.891 43.6142 36.7083C46.0093 30.5256 50.7624 25.5476 56.8279 22.8694Z" fill="#FF1C96"/>
</g>
<defs>
<clipPath id="clip0_613_1434">
<rect width="50" height="100" fill="white" transform="translate(87.1228 91.4785) rotate(156.176)"/>
</clipPath>
</defs>
</svg>
