<svg width="100" height="100" viewBox="0 0 100 100" fill="none" xmlns="http://www.w3.org/2000/svg">
<g clip-path="url(#clip0_612_1433)">
<path d="M50 0C40.1109 0 30.444 2.93244 22.2215 8.42651C13.999 13.9206 7.59042 21.7295 3.80604 30.8658C0.0216558 40.0021 -0.9685 50.0555 0.960761 59.7545C2.89002 69.4536 7.65203 78.3627 14.6447 85.3553C21.6373 92.3479 30.5464 97.11 40.2455 99.0392C49.9445 100.969 59.9979 99.9783 69.1342 96.194C78.2705 92.4096 86.0794 86.001 91.5735 77.7785C97.0676 69.556 100 59.8891 100 50C100 36.7392 94.7322 24.0215 85.3554 14.6447C75.9785 5.26783 63.2608 0 50 0ZM50 75C45.0555 75 40.222 73.5338 36.1108 70.7867C31.9996 68.0397 28.7952 64.1352 26.903 59.5671C25.0108 54.9989 24.5158 49.9723 25.4804 45.1227C26.445 40.2732 28.826 35.8186 32.3223 32.3223C35.8186 28.826 40.2732 26.445 45.1227 25.4803C49.9723 24.5157 54.9989 25.0108 59.5671 26.903C64.1352 28.7952 68.0397 31.9995 70.7868 36.1107C73.5338 40.2219 75 45.0555 75 50C75 56.6304 72.3661 62.9892 67.6777 67.6776C62.9893 72.3661 56.6304 75 50 75Z" fill="#FF1C96"/>
</g>
<defs>
<clipPath id="clip0_612_1433">
<rect width="100" height="100" fill="white"/>
</clipPath>
</defs>
</svg>
