<svg width="138" height="145" viewBox="0 0 138 145" fill="none" xmlns="http://www.w3.org/2000/svg">
<g clip-path="url(#clip0_619_1383)">
<path d="M53.4724 119.238L7.33085 121.13C6.83819 121.15 6.34639 121.073 5.88351 120.903C5.42062 120.733 4.9957 120.474 4.63306 120.14C4.27042 119.806 3.97716 119.403 3.76997 118.956C3.56278 118.509 3.44576 118.025 3.42557 117.532C3.40537 117.039 3.48236 116.548 3.65224 116.085C3.82211 115.622 4.08155 115.197 4.41563 114.834C4.74971 114.472 5.15189 114.178 5.59932 113.971C6.04674 113.764 6.53066 113.647 7.02331 113.627L45.6618 112.043L43.9241 69.6528L86.3142 67.9152L84.5765 25.5251L130.718 23.6337C131.211 23.6135 131.703 23.6905 132.165 23.8604C132.628 24.0303 133.053 24.2896 133.416 24.6237C133.778 24.9578 134.072 25.36 134.279 25.8075C134.486 26.2549 134.603 26.7387 134.623 27.2314C134.644 27.724 134.567 28.2159 134.397 28.6787C134.227 29.1416 133.967 29.5665 133.633 29.9292C133.299 30.2918 132.897 30.5851 132.45 30.7923C132.002 30.9995 131.518 31.1165 131.026 31.1367L92.3872 32.7206L94.1248 75.1107L51.7348 76.8483L53.4724 119.238Z" fill="#FF1C96"/>
</g>
<defs>
<clipPath id="clip0_619_1383">
<rect width="157.497" height="40.6043" fill="white" transform="translate(0.731201 116.539) rotate(-47.3474)"/>
</clipPath>
</defs>
</svg>
