<svg width="39" height="39" viewBox="0 0 39 39" fill="none" xmlns="http://www.w3.org/2000/svg">
<path d="M3.25096 11.901C3.40483 9.53207 5.30939 7.67557 7.68037 7.5581C11.1137 7.38801 16.0209 7.18286 19.7184 7.18286C23.4158 7.18286 28.323 7.38801 31.7563 7.5581C34.1273 7.67557 36.0319 9.53207 36.1857 11.901C36.3332 14.1705 36.4785 16.9632 36.4785 19.1544C36.4785 21.3456 36.3332 24.1382 36.1857 26.4078C36.0319 28.7767 34.1273 30.6332 31.7563 30.7506C28.323 30.9207 23.4158 31.1259 19.7184 31.1259C16.0209 31.1259 11.1137 30.9207 7.68037 30.7506C5.30939 30.6332 3.40483 28.7767 3.25096 26.4078C3.10354 24.1382 2.95825 21.3456 2.95825 19.1544C2.95825 16.9632 3.10354 14.1705 3.25096 11.901Z" fill="#FC0D1B"/>
<path d="M16.127 14.3657V23.9429L25.7042 19.1543L16.127 14.3657Z" fill="white"/>
</svg>
