<svg width="131" height="33" viewBox="0 0 131 33" fill="none" xmlns="http://www.w3.org/2000/svg">
<path d="M19.8858 15.7588C19.8999 14.7085 20.1904 13.6786 20.7304 12.765C21.2703 11.8515 22.0422 11.0839 22.9741 10.5338C22.3821 9.72187 21.6011 9.05371 20.6931 8.58237C19.7852 8.11102 18.7753 7.84946 17.7436 7.81847C15.543 7.59666 13.4096 9.08298 12.2882 9.08298C11.145 9.08298 9.41846 7.84049 7.55921 7.87722C6.3566 7.91453 5.18456 8.25035 4.15729 8.85195C3.13002 9.45356 2.28255 10.3004 1.69745 11.3101C-0.837057 15.5238 1.05346 21.7166 3.4813 25.1227C4.69601 26.7905 6.11565 28.6536 7.97321 28.5875C9.79096 28.5151 10.4698 27.4745 12.664 27.4745C14.8378 27.4745 15.4748 28.5875 17.37 28.5455C19.3205 28.5151 20.5495 26.8702 21.7216 25.1866C22.5943 23.9982 23.2659 22.6847 23.7114 21.2949C22.5782 20.8346 21.6112 20.0643 20.9309 19.0798C20.2506 18.0953 19.8871 16.9403 19.8858 15.7588V15.7588Z" fill="#353535"/>
<path d="M16.3059 5.57825C17.3694 4.35228 17.8933 2.7765 17.7665 1.18555C16.1417 1.34942 14.6408 2.09511 13.5629 3.27405C13.0359 3.84999 12.6323 4.52002 12.3751 5.24585C12.1179 5.97167 12.0122 6.73906 12.0641 7.50413C12.8768 7.51216 13.6808 7.34301 14.4155 7.00942C15.1503 6.67582 15.7966 6.18648 16.3059 5.57825Z" fill="#353535"/>
<path d="M42.8634 24.3652H36.6603L35.1706 28.5891H32.5432L38.4187 12.9619H41.1485L47.024 28.5891H44.3518L42.8634 24.3652ZM37.3027 22.4161H42.2197L39.7958 15.5611H39.728L37.3027 22.4161Z" fill="#353535"/>
<path d="M59.713 22.8929C59.713 26.4335 57.7396 28.7082 54.7615 28.7082C54.0071 28.7461 53.2569 28.5792 52.5967 28.2267C51.9364 27.8742 51.3929 27.3502 51.0284 26.7149H50.9721V32.3581H48.5366V17.1955H50.894V19.0906H50.9388C51.3201 18.4582 51.8728 17.937 52.538 17.5823C53.2033 17.2276 53.9562 17.0528 54.7167 17.0763C57.728 17.0763 59.713 19.3621 59.713 22.8929ZM57.2098 22.8929C57.2098 20.5862 55.9684 19.0697 54.0743 19.0697C52.2135 19.0697 50.9618 20.6181 50.9618 22.8929C50.9618 25.1885 52.2135 26.7259 54.0743 26.7259C55.9684 26.7259 57.2098 25.2205 57.2098 22.8929Z" fill="#353535"/>
<path d="M72.7719 22.8929C72.7719 26.4334 70.7984 28.7082 67.8204 28.7082C67.066 28.7461 66.3157 28.5792 65.6555 28.2267C64.9953 27.8741 64.4518 27.3502 64.0872 26.7148H64.0309V32.3581H61.5955V17.1955H63.9528V19.0905H63.9976C64.3789 18.4582 64.9316 17.937 65.5968 17.5823C66.2621 17.2276 67.015 17.0528 67.7755 17.0763C70.7869 17.0763 72.7719 19.3621 72.7719 22.8929ZM70.2686 22.8929C70.2686 20.5862 69.0272 19.0696 67.1331 19.0696C65.2723 19.0696 64.0207 20.6181 64.0207 22.8929C64.0207 25.1885 65.2723 26.7259 67.1331 26.7259C69.0272 26.7259 70.2686 25.2205 70.2686 22.8929H70.2686Z" fill="#353535"/>
<path d="M81.4027 24.2348C81.5832 25.7845 83.1509 26.802 85.2933 26.802C87.3461 26.802 88.8229 25.7844 88.8229 24.3871C88.8229 23.1742 87.9322 22.4479 85.8231 21.9502L83.714 21.4623C80.7257 20.7691 79.3384 19.4271 79.3384 17.2495C79.3384 14.5532 81.7854 12.7012 85.26 12.7012C88.6988 12.7012 91.0561 14.5532 91.1355 17.2495H88.677C88.5298 15.6899 87.1873 14.7486 85.2254 14.7486C83.2635 14.7486 81.921 15.701 81.921 17.0873C81.921 18.1921 82.7785 18.8422 84.876 19.3398L86.669 19.7626C90.008 20.5209 91.3953 21.8088 91.3953 24.0946C91.3953 27.0182 88.9701 28.8493 85.1128 28.8493C81.5038 28.8493 79.0671 27.0612 78.9097 24.2347L81.4027 24.2348Z" fill="#353535"/>
<path d="M96.6513 14.499V17.1953H98.9076V19.0473H96.6513V25.3284C96.6513 26.3042 97.1031 26.7589 98.0949 26.7589C98.3628 26.7544 98.6302 26.7363 98.8961 26.7048V28.5457C98.4502 28.6257 97.9969 28.662 97.5433 28.6539C95.1412 28.6539 94.2044 27.7875 94.2044 25.5778V19.0473H92.4792V17.1953H94.2044V14.499H96.6513Z" fill="#353535"/>
<path d="M100.214 22.8931C100.214 19.3083 102.413 17.0557 105.842 17.0557C109.282 17.0557 111.47 19.3083 111.47 22.8931C111.47 26.4877 109.293 28.7305 105.842 28.7305C102.391 28.7305 100.214 26.4877 100.214 22.8931ZM108.989 22.8931C108.989 20.434 107.815 18.9826 105.842 18.9826C103.868 18.9826 102.696 20.4451 102.696 22.8931C102.696 25.362 103.868 26.8024 105.842 26.8024C107.815 26.8024 108.988 25.362 108.988 22.8931H108.989Z" fill="#353535"/>
<path d="M113.478 17.1954H115.801V19.1347H115.857C116.014 18.529 116.384 17.9937 116.904 17.6189C117.423 17.244 118.062 17.0524 118.711 17.0762C118.992 17.0753 119.272 17.1045 119.546 17.1635V19.351C119.191 19.247 118.822 19.1993 118.451 19.2096C118.097 19.1959 117.745 19.2558 117.417 19.3852C117.09 19.5147 116.796 19.7107 116.554 19.9597C116.313 20.2088 116.131 20.5049 116.021 20.8279C115.91 21.1509 115.873 21.4931 115.913 21.831V28.5889H113.478L113.478 17.1954Z" fill="#353535"/>
<path d="M130.774 25.2428C130.447 27.3111 128.349 28.7306 125.665 28.7306C122.214 28.7306 120.072 26.5099 120.072 22.9472C120.072 19.3734 122.225 17.0557 125.563 17.0557C128.846 17.0557 130.91 19.221 130.91 22.6756V23.4769H122.53V23.6182C122.491 24.0375 122.546 24.4599 122.69 24.8574C122.835 25.2548 123.066 25.6182 123.367 25.9235C123.669 26.2287 124.035 26.4688 124.441 26.6277C124.847 26.7866 125.284 26.8608 125.722 26.8454C126.297 26.8971 126.875 26.7691 127.369 26.4804C127.862 26.1917 128.246 25.7576 128.462 25.2428L130.774 25.2428ZM122.542 21.8424H128.473C128.495 21.4653 128.436 21.0881 128.298 20.7342C128.161 20.3803 127.949 20.0575 127.676 19.7859C127.403 19.5144 127.074 19.3 126.711 19.1563C126.347 19.0126 125.956 18.9426 125.563 18.9507C125.166 18.9484 124.773 19.0216 124.406 19.166C124.039 19.3104 123.706 19.5231 123.425 19.792C123.144 20.0608 122.921 20.3804 122.77 20.7323C122.618 21.0843 122.54 21.4615 122.542 21.8424V21.8424Z" fill="#353535"/>
<path d="M36.9976 1.19993C37.5082 1.16474 38.0205 1.23881 38.4977 1.4168C38.9749 1.59478 39.405 1.87224 39.7569 2.22916C40.1089 2.58608 40.374 3.01357 40.5331 3.48079C40.6922 3.94801 40.7413 4.44331 40.677 4.93097C40.677 7.32985 39.3268 8.70878 36.9976 8.70878H34.1731V1.19993H36.9976ZM35.3876 7.64686H36.8619C37.2268 7.66781 37.5919 7.61036 37.9307 7.47871C38.2695 7.34706 38.5735 7.14452 38.8205 6.88583C39.0675 6.62714 39.2514 6.31881 39.3587 5.98329C39.4659 5.64777 39.494 5.2935 39.4407 4.94627C39.4901 4.60041 39.4592 4.24834 39.3503 3.91528C39.2414 3.58222 39.0571 3.27642 38.8106 3.01978C38.5642 2.76315 38.2617 2.56205 37.9247 2.43087C37.5878 2.2997 37.2249 2.2417 36.8619 2.26105H35.3876V7.64686Z" fill="#353535"/>
<path d="M42.0491 5.87279C42.012 5.50039 42.0563 5.12467 42.1793 4.7697C42.3023 4.41474 42.5011 4.08837 42.7632 3.81154C43.0252 3.53471 43.3446 3.31352 43.7008 3.16216C44.0571 3.0108 44.4424 2.93262 44.8319 2.93262C45.2215 2.93262 45.6068 3.0108 45.9631 3.16216C46.3193 3.31352 46.6387 3.53471 46.9007 3.81154C47.1627 4.08837 47.3616 4.41474 47.4846 4.7697C47.6076 5.12467 47.6519 5.50039 47.6148 5.87279C47.6526 6.24556 47.6088 6.62181 47.4862 6.97735C47.3635 7.33288 47.1648 7.65985 46.9027 7.93722C46.6406 8.2146 46.3209 8.43625 45.9643 8.58793C45.6077 8.73962 45.222 8.81798 44.8319 8.81798C44.4419 8.81798 44.0562 8.73962 43.6996 8.58793C43.343 8.43625 43.0233 8.2146 42.7612 7.93722C42.4991 7.65985 42.3004 7.33288 42.1777 6.97735C42.0551 6.62181 42.0112 6.24556 42.0491 5.87279V5.87279ZM46.417 5.87279C46.417 4.64447 45.8423 3.92616 44.8339 3.92616C43.8216 3.92616 43.2521 4.64447 43.2521 5.8728C43.2521 7.11096 43.8216 7.82373 44.8339 7.82373C45.8424 7.82372 46.417 7.10602 46.417 5.87279H46.417Z" fill="#353535"/>
<path d="M55.0132 8.70861H53.8051L52.5854 4.53514H52.4933L51.2788 8.70861H50.0822L48.4556 3.04199H49.6368L50.6939 7.36596H50.7809L51.9942 3.04199H53.1114L54.3247 7.36596H54.4168L55.4688 3.04199H56.6334L55.0132 8.70861Z" fill="#353535"/>
<path d="M58.0015 3.04172H59.1226V3.94191H59.2096C59.3572 3.61859 59.6062 3.34756 59.9219 3.16659C60.2375 2.98562 60.6041 2.90373 60.9706 2.93234C61.2577 2.91161 61.546 2.95318 61.8141 3.05397C62.0823 3.15477 62.3233 3.3122 62.5195 3.51461C62.7157 3.71703 62.8619 3.95922 62.9473 4.22327C63.0328 4.48731 63.0552 4.76643 63.0131 5.03995V8.70828H61.8485V5.32079C61.8485 4.41015 61.4364 3.95728 60.5751 3.95728C60.3802 3.94856 60.1856 3.98042 60.0046 4.05068C59.8237 4.12094 59.6608 4.22793 59.5269 4.36433C59.3931 4.50072 59.2915 4.66329 59.2293 4.84089C59.167 5.0185 59.1454 5.20693 59.1661 5.39328V8.70834H58.0015L58.0015 3.04172Z" fill="#353535"/>
<path d="M64.8689 0.830078H66.0335V8.70878H64.8689V0.830078Z" fill="#353535"/>
<path d="M67.6523 5.87289C67.6152 5.50047 67.6596 5.12473 67.7826 4.76975C67.9056 4.41477 68.1045 4.0884 68.3666 3.81156C68.6286 3.53472 68.9481 3.31353 69.3043 3.16217C69.6606 3.0108 70.0459 2.93262 70.4355 2.93262C70.8251 2.93262 71.2104 3.0108 71.5667 3.16217C71.923 3.31353 72.2424 3.53472 72.5044 3.81156C72.7665 4.0884 72.9654 4.41477 73.0884 4.76975C73.2114 5.12473 73.2558 5.50047 73.2187 5.87289C73.2565 6.24568 73.2126 6.62193 73.0899 6.97747C72.9672 7.33301 72.7684 7.65996 72.5063 7.93733C72.2442 8.2147 71.9246 8.43634 71.5679 8.58802C71.2113 8.7397 70.8256 8.81805 70.4355 8.81805C70.0455 8.81805 69.6597 8.7397 69.3031 8.58802C68.9465 8.43634 68.6268 8.2147 68.3647 7.93733C68.1026 7.65996 67.9038 7.33301 67.7811 6.97747C67.6584 6.62193 67.6145 6.24568 67.6523 5.87289V5.87289ZM72.0202 5.87289C72.0202 4.64458 71.4456 3.92626 70.4371 3.92626C69.4248 3.92626 68.8553 4.64458 68.8553 5.87291C68.8553 7.11106 69.4248 7.82384 70.4371 7.82384C71.4456 7.82383 72.0202 7.10613 72.0202 5.87289H72.0202Z" fill="#353535"/>
<path d="M74.4446 7.10608C74.4446 6.08606 75.2355 5.49802 76.6394 5.41444L78.2379 5.32596V4.83685C78.2379 4.23835 77.8258 3.9004 77.0297 3.9004C76.3796 3.9004 75.9291 4.1296 75.7999 4.53023H74.6724C74.7914 3.55691 75.7448 2.93262 77.0835 2.93262C78.5629 2.93262 79.3973 3.63986 79.3973 4.83685V8.70861H78.2763V7.91226H78.1841C77.9971 8.19792 77.7345 8.43079 77.423 8.5871C77.1116 8.74341 76.7626 8.81756 76.4116 8.80197C76.1639 8.82672 75.9135 8.80134 75.6766 8.72747C75.4397 8.6536 75.2216 8.53289 75.0363 8.3731C74.8509 8.21332 74.7025 8.01802 74.6006 7.79979C74.4987 7.58156 74.4456 7.34524 74.4446 7.10608V7.10608ZM78.2379 6.62187V6.14812L76.7968 6.2366C75.9842 6.28883 75.6156 6.55428 75.6156 7.05384C75.6156 7.56384 76.0763 7.86063 76.7098 7.86063C76.8955 7.87868 77.083 7.86068 77.2612 7.80771C77.4394 7.75474 77.6048 7.66789 77.7473 7.55231C77.8899 7.43673 78.0068 7.2948 78.0911 7.13496C78.1753 6.97511 78.2253 6.80062 78.2379 6.62187V6.62187Z" fill="#353535"/>
<path d="M80.9282 5.87303C80.9282 4.08248 81.8868 2.94817 83.3777 2.94817C83.7465 2.93185 84.1125 3.01667 84.433 3.19272C84.7534 3.36877 85.0151 3.62877 85.1873 3.94233H85.2744V0.830078H86.439V8.70878H85.323V7.8135H85.2309C85.0453 8.12495 84.7745 8.38171 84.4479 8.55598C84.1212 8.73025 83.7512 8.81539 83.3777 8.80217C81.8766 8.80223 80.9282 7.6679 80.9282 5.87303ZM82.1313 5.87303C82.1313 7.07494 82.7213 7.79817 83.708 7.79817C84.6895 7.79817 85.2962 7.0645 85.2962 5.87795C85.2962 4.69694 84.6832 3.95282 83.708 3.95282C82.7276 3.95282 82.1312 4.68096 82.1312 5.87303H82.1313Z" fill="#353535"/>
<path d="M91.2573 5.87279C91.2202 5.50039 91.2646 5.12467 91.3875 4.7697C91.5105 4.41474 91.7094 4.08837 91.9714 3.81154C92.2334 3.53471 92.5528 3.31352 92.9091 3.16216C93.2653 3.0108 93.6506 2.93262 94.0402 2.93262C94.4298 2.93262 94.815 3.0108 95.1713 3.16216C95.5275 3.31352 95.8469 3.53471 96.1089 3.81154C96.371 4.08837 96.5698 4.41474 96.6928 4.7697C96.8158 5.12467 96.8602 5.50039 96.8231 5.87279C96.8609 6.24556 96.817 6.62181 96.6944 6.97735C96.5717 7.33288 96.373 7.65985 96.1109 7.93722C95.8488 8.2146 95.5292 8.43625 95.1726 8.58793C94.8159 8.73962 94.4302 8.81798 94.0402 8.81798C93.6502 8.81798 93.2644 8.73962 92.9078 8.58793C92.5512 8.43625 92.2316 8.2146 91.9695 7.93722C91.7074 7.65985 91.5086 7.33288 91.386 6.97735C91.2633 6.62181 91.2195 6.24556 91.2573 5.87279V5.87279ZM95.6252 5.87279C95.6252 4.64447 95.0506 3.92616 94.0421 3.92616C93.0298 3.92616 92.4603 4.64447 92.4603 5.8728C92.4603 7.11096 93.0298 7.82373 94.0421 7.82373C95.0506 7.82372 95.6252 7.10602 95.6252 5.87279Z" fill="#353535"/>
<path d="M98.3857 3.04172H99.5068V3.94191H99.5939C99.7415 3.61859 99.9905 3.34756 100.306 3.16659C100.622 2.98562 100.988 2.90373 101.355 2.93234C101.642 2.91161 101.93 2.95318 102.198 3.05397C102.467 3.15477 102.708 3.3122 102.904 3.51461C103.1 3.71703 103.246 3.95922 103.332 4.22327C103.417 4.48731 103.44 4.76643 103.397 5.03995V8.70828H102.233V5.32079C102.233 4.41015 101.821 3.95728 100.959 3.95728C100.764 3.94856 100.57 3.98042 100.389 4.05068C100.208 4.12094 100.045 4.22793 99.9112 4.36433C99.7774 4.50072 99.6758 4.66329 99.6135 4.84089C99.5512 5.0185 99.5297 5.20693 99.5503 5.39328V8.70834H98.3857V3.04172Z" fill="#353535"/>
<path d="M109.978 1.63086V3.06748H111.257V4.00947H109.978V6.92327C109.978 7.51685 110.233 7.77677 110.813 7.77677C110.961 7.77631 111.109 7.76769 111.257 7.75096V8.68248C111.048 8.71841 110.836 8.73753 110.623 8.73963C109.328 8.73963 108.812 8.30212 108.812 7.2096V4.00942H107.875V3.06743H108.812V1.63086H109.978Z" fill="#353535"/>
<path d="M112.847 0.830078H114.002V3.95281H114.094C114.248 3.62647 114.504 3.35391 114.826 3.17226C115.148 2.99061 115.521 2.9087 115.893 2.93771C116.179 2.92278 116.464 2.96858 116.729 3.07182C116.994 3.17506 117.232 3.33321 117.427 3.53499C117.621 3.73676 117.766 3.97719 117.852 4.23911C117.938 4.50103 117.963 4.778 117.925 5.05025V8.70879H116.76V5.32613C116.76 4.42102 116.321 3.96262 115.498 3.96262C115.297 3.94686 115.096 3.97328 114.908 4.04005C114.719 4.10681 114.548 4.2123 114.407 4.34914C114.265 4.48598 114.157 4.65086 114.088 4.83225C114.02 5.01364 113.994 5.20715 114.012 5.39925V8.70877H112.847L112.847 0.830078Z" fill="#353535"/>
<path d="M124.716 7.17868C124.558 7.69657 124.215 8.14455 123.747 8.44425C123.28 8.74394 122.718 8.87627 122.159 8.81807C121.77 8.82793 121.384 8.75642 121.027 8.60852C120.669 8.46062 120.35 8.23987 120.091 7.96158C119.831 7.68329 119.638 7.35414 119.525 6.99697C119.411 6.6398 119.38 6.26317 119.433 5.89322C119.381 5.52213 119.413 5.14468 119.526 4.78644C119.64 4.4282 119.832 4.09753 120.09 3.81681C120.348 3.53608 120.666 3.31187 121.022 3.15934C121.378 3.0068 121.764 2.92952 122.154 2.93271C123.796 2.93271 124.786 4.00993 124.786 5.78935V6.17957H120.619V6.24224C120.601 6.45019 120.628 6.65951 120.699 6.85677C120.77 7.05403 120.883 7.23487 121.031 7.38772C121.179 7.54056 121.359 7.66203 121.558 7.74432C121.758 7.82662 121.973 7.86793 122.191 7.86562C122.469 7.89773 122.752 7.84956 123.002 7.72723C123.252 7.60491 123.458 7.41395 123.595 7.17864L124.716 7.17868ZM120.619 5.35248H123.6C123.615 5.1623 123.588 4.97127 123.521 4.79167C123.454 4.61207 123.349 4.44787 123.212 4.30962C123.075 4.17137 122.91 4.06214 122.726 3.98893C122.543 3.91572 122.346 3.88015 122.147 3.88452C121.946 3.88209 121.746 3.91841 121.559 3.99133C121.373 4.06425 121.203 4.1723 121.061 4.30911C120.919 4.44591 120.806 4.60871 120.73 4.78791C120.654 4.9671 120.617 5.15907 120.619 5.35248H120.619Z" fill="#353535"/>
</svg>
