<svg width="84" height="86" viewBox="0 0 84 86" fill="none" xmlns="http://www.w3.org/2000/svg">
<ellipse cx="42.0533" cy="42.8921" rx="41.9466" ry="42.8921" fill="black"/>
<path d="M49.0989 23.0732C46.9843 23.2228 44.5126 24.6069 43.0722 26.4093C41.7583 28.0443 40.6774 30.4728 41.0989 32.8329C43.4094 32.9064 45.7968 31.4894 47.1801 29.6566C48.4742 27.9505 49.4534 25.5372 49.0989 23.0732Z" fill="white"/>
<path d="M57.4555 36.6817C55.4251 34.0782 52.5717 32.5674 49.8769 32.5674C46.3194 32.5674 44.8146 34.3089 42.3429 34.3089C39.7944 34.3089 37.8582 32.5725 34.7817 32.5725C31.7596 32.5725 28.5418 34.461 26.5015 37.6906C23.6332 42.2383 24.124 50.7888 28.7723 58.0718C30.4358 60.6777 32.6571 63.6082 35.5626 63.6335C38.1483 63.6589 38.8771 61.9376 42.3801 61.9199C45.8831 61.8996 46.5474 63.6563 49.1282 63.6285C52.0362 63.6056 54.3789 60.3583 56.0424 57.7524C57.2348 55.8841 57.6786 54.9436 58.6033 52.8345C51.8775 50.2159 50.7991 40.436 57.4555 36.6817Z" fill="white"/>
</svg>
