<svg width="83" height="84" viewBox="0 0 83 84" fill="none" xmlns="http://www.w3.org/2000/svg">
<path d="M18.238 50.8017L15.3819 61.7044L4.94279 61.9302C1.82304 56.0133 0.0534668 49.2436 0.0534668 42.0497C0.0534668 35.0932 1.70798 28.5331 4.64071 22.7568H4.64295L13.9367 24.4991L18.0079 33.9453C17.1558 36.4854 16.6913 39.2123 16.6913 42.0497C16.6917 45.1291 17.2372 48.0796 18.238 50.8017Z" fill="#FBBB00"/>
<path d="M81.3888 34.2119C81.86 36.7496 82.1057 39.3704 82.1057 42.0489C82.1057 45.0523 81.7969 47.982 81.2086 50.8079C79.2114 60.4244 73.9929 68.8214 66.7638 74.7637L66.7616 74.7614L55.0557 74.1507L53.3989 63.5753C58.1958 60.6987 61.9445 56.197 63.9192 50.8079H41.9814V34.2119H64.2393H81.3888Z" fill="#518EF8"/>
<path d="M66.7616 74.7621L66.7639 74.7644C59.7332 80.543 50.802 84.0005 41.0797 84.0005C25.456 84.0005 11.8723 75.071 4.94287 61.9302L18.2381 50.8018C21.7027 60.2568 30.6225 66.9874 41.0797 66.9874C45.5745 66.9874 49.7854 65.745 53.3988 63.576L66.7616 74.7621Z" fill="#28B446"/>
<path d="M67.2667 9.75555L53.976 20.8817C50.2363 18.4915 45.8158 17.1107 41.0798 17.1107C30.3859 17.1107 21.2993 24.1501 18.0082 33.9442L4.64311 22.7558H4.64087C11.4688 9.29458 25.2238 0.0976562 41.0798 0.0976562C51.0343 0.0976562 60.1615 3.72346 67.2667 9.75555Z" fill="#F14336"/>
</svg>
