<svg width="39" height="39" viewBox="0 0 39 39" fill="none" xmlns="http://www.w3.org/2000/svg">
<rect x="2.52148" y="2.39453" width="33.5202" height="33.5202" rx="7.1829" fill="url(#paint0_radial_386_1594)"/>
<rect x="2.52148" y="2.39453" width="33.5202" height="33.5202" rx="7.1829" fill="url(#paint1_radial_386_1594)"/>
<rect x="2.52148" y="2.39453" width="33.5202" height="33.5202" rx="7.1829" fill="url(#paint2_radial_386_1594)"/>
<path d="M27.6616 12.5698C27.6616 13.5615 26.8576 14.3655 25.8659 14.3655C24.8741 14.3655 24.0702 13.5615 24.0702 12.5698C24.0702 11.578 24.8741 10.7741 25.8659 10.7741C26.8576 10.7741 27.6616 11.578 27.6616 12.5698Z" fill="white"/>
<path fill-rule="evenodd" clip-rule="evenodd" d="M19.2816 25.1399C22.5874 25.1399 25.2673 22.46 25.2673 19.1541C25.2673 15.8483 22.5874 13.1684 19.2816 13.1684C15.9757 13.1684 13.2958 15.8483 13.2958 19.1541C13.2958 22.46 15.9757 25.1399 19.2816 25.1399ZM19.2816 22.7456C21.2651 22.7456 22.873 21.1376 22.873 19.1541C22.873 17.1706 21.2651 15.5627 19.2816 15.5627C17.2981 15.5627 15.6901 17.1706 15.6901 19.1541C15.6901 21.1376 17.2981 22.7456 19.2816 22.7456Z" fill="white"/>
<path fill-rule="evenodd" clip-rule="evenodd" d="M7.31006 18.6753C7.31006 14.6525 7.31006 12.6411 8.09295 11.1045C8.7816 9.753 9.88044 8.65416 11.232 7.96551C12.7685 7.18262 14.7799 7.18262 18.8027 7.18262H19.7604C23.7832 7.18262 25.7946 7.18262 27.3311 7.96551C28.6827 8.65416 29.7815 9.753 30.4702 11.1045C31.2531 12.6411 31.2531 14.6525 31.2531 18.6753V19.633C31.2531 23.6558 31.2531 25.6672 30.4702 27.2037C29.7815 28.5552 28.6827 29.6541 27.3311 30.3427C25.7946 31.1256 23.7832 31.1256 19.7604 31.1256H18.8027C14.7799 31.1256 12.7685 31.1256 11.232 30.3427C9.88044 29.6541 8.7816 28.5552 8.09295 27.2037C7.31006 25.6672 7.31006 23.6558 7.31006 19.633V18.6753ZM18.8027 9.57692H19.7604C21.8113 9.57692 23.2055 9.57878 24.2832 9.66683C25.3329 9.75259 25.8697 9.90804 26.2441 10.0988C27.1452 10.5579 27.8777 11.2905 28.3368 12.1915C28.5276 12.566 28.6831 13.1028 28.7688 14.1525C28.8569 15.2302 28.8588 16.6243 28.8588 18.6753V19.633C28.8588 21.6839 28.8569 23.0781 28.7688 24.1557C28.6831 25.2054 28.5276 25.7422 28.3368 26.1167C27.8777 27.0177 27.1452 27.7503 26.2441 28.2094C25.8697 28.4002 25.3329 28.5556 24.2832 28.6414C23.2055 28.7295 21.8113 28.7313 19.7604 28.7313H18.8027C16.7518 28.7313 15.3576 28.7295 14.28 28.6414C13.2303 28.5556 12.6934 28.4002 12.319 28.2094C11.4179 27.7503 10.6854 27.0177 10.2263 26.1167C10.0355 25.7422 9.88003 25.2054 9.79427 24.1557C9.70622 23.0781 9.70436 21.6839 9.70436 19.633V18.6753C9.70436 16.6243 9.70622 15.2302 9.79427 14.1525C9.88003 13.1028 10.0355 12.566 10.2263 12.1915C10.6854 11.2905 11.4179 10.5579 12.319 10.0988C12.6934 9.90804 13.2303 9.75259 14.28 9.66683C15.3576 9.57878 16.7518 9.57692 18.8027 9.57692Z" fill="white"/>
<defs>
<radialGradient id="paint0_radial_386_1594" cx="0" cy="0" r="1" gradientUnits="userSpaceOnUse" gradientTransform="translate(14.493 27.5347) rotate(-55.3758) scale(30.5508)">
<stop stop-color="#B13589"/>
<stop offset="0.79309" stop-color="#C62F94"/>
<stop offset="1" stop-color="#8A3AC8"/>
</radialGradient>
<radialGradient id="paint1_radial_386_1594" cx="0" cy="0" r="1" gradientUnits="userSpaceOnUse" gradientTransform="translate(13.2958 37.1119) rotate(-65.1363) scale(27.0487)">
<stop stop-color="#E0E8B7"/>
<stop offset="0.444662" stop-color="#FB8A2E"/>
<stop offset="0.71474" stop-color="#E2425C"/>
<stop offset="1" stop-color="#E2425C" stop-opacity="0"/>
</radialGradient>
<radialGradient id="paint2_radial_386_1594" cx="0" cy="0" r="1" gradientUnits="userSpaceOnUse" gradientTransform="translate(0.725761 3.59168) rotate(-8.1301) scale(46.5582 9.95832)">
<stop offset="0.156701" stop-color="#406ADC"/>
<stop offset="0.467799" stop-color="#6A45BE"/>
<stop offset="1" stop-color="#6A45BE" stop-opacity="0"/>
</radialGradient>
</defs>
</svg>
