<svg width="84" height="86" viewBox="0 0 84 86" fill="none" xmlns="http://www.w3.org/2000/svg">
<ellipse cx="41.9466" cy="42.8921" rx="41.9466" ry="42.8921" fill="#0A66C2"/>
<path d="M62.2201 63.6337V63.632H62.23V48.7568C62.23 41.4797 60.6979 35.874 52.3781 35.874C48.3785 35.874 45.6944 38.1183 44.5987 40.246H44.483V36.5534H36.5945V63.632H44.8086V50.2237C44.8086 46.6933 45.463 43.2795 49.7386 43.2795C53.9515 43.2795 54.0143 47.3085 54.0143 50.4501V63.6337H62.2201Z" fill="white"/>
<path d="M23.219 36.5537H31.443V63.6323H23.219V36.5537Z" fill="white"/>
<path d="M27.3276 23.0732C24.6981 23.0732 22.5645 25.255 22.5645 27.9438C22.5645 30.6325 24.6981 32.8599 27.3276 32.8599C29.9571 32.8599 32.0908 30.6325 32.0908 27.9438C32.0891 25.255 29.9555 23.0732 27.3276 23.0732V23.0732Z" fill="white"/>
</svg>
