<svg width="41" height="40" viewBox="0 0 41 40" fill="none" xmlns="http://www.w3.org/2000/svg">
<path d="M32.5392 17.399C31.8429 16.8105 30.963 16.4861 30.0678 16.4861H29.2338H26.2344H24.8112V12.8269C24.8112 11.0765 24.2833 9.80146 23.235 9.03944C21.5823 7.84737 19.3405 8.51886 19.241 8.54903C18.8584 8.66975 18.5983 9.01681 18.5983 9.40914V13.8228C18.5983 15.1658 17.9479 16.305 16.6548 17.2179C15.6754 17.9121 14.6731 18.2289 14.543 18.2667L14.4512 18.2893C14.1069 17.9045 13.6019 17.6631 13.0357 17.6631H9.54664C8.50605 17.6631 7.65674 18.5005 7.65674 19.5266V30.8136C7.65674 31.8396 8.50605 32.6771 9.54664 32.6771H13.051C13.5101 32.6771 13.9386 32.5111 14.2599 32.2395C14.9638 32.9185 15.9203 33.3335 16.9532 33.3335H20.4346H20.7942H27.9177C29.0195 33.3335 29.9912 33.0694 30.7334 32.579C31.6822 31.9453 32.2714 30.9418 32.4397 29.6592L33.8552 20.9828C34.0771 19.6398 33.5721 18.2667 32.5392 17.399ZM13.1046 30.8136C13.1046 30.8437 13.0816 30.8664 13.051 30.8664H9.54664C9.51603 30.8664 9.49308 30.8437 9.49308 30.8136V19.5266C9.49308 19.4964 9.51603 19.4738 9.54664 19.4738H13.051C13.0816 19.4738 13.1046 19.4964 13.1046 19.5266V30.8136ZM32.0418 20.7036L30.6263 29.3951C30.6263 29.4027 30.6263 29.4178 30.6187 29.4329C30.5574 29.9535 30.3585 31.5303 27.9177 31.5303H20.7942H20.4346H16.9532C15.9738 31.5303 15.1169 30.806 14.9638 29.8478C14.9562 29.8101 14.9485 29.7724 14.9409 29.7422V20.0397L14.9945 20.0246C15.0098 20.0246 15.0174 20.017 15.0327 20.017C15.0863 20.0019 16.387 19.6398 17.6801 18.7269C19.4782 17.4669 20.4346 15.7693 20.4346 13.8228V10.1561C20.9396 10.1033 21.6359 10.1259 22.1485 10.4956C22.6994 10.8954 22.9749 11.6801 22.9749 12.8194V17.3839C22.9749 17.8819 23.3881 18.2893 23.8931 18.2893H26.2344H29.2338H30.0678C30.5268 18.2893 30.9783 18.4628 31.3455 18.7646C31.8964 19.2324 32.1566 19.9718 32.0418 20.7036Z" fill="white"/>
</svg>
