<svg width="29" height="29" viewBox="0 0 29 29" fill="none" xmlns="http://www.w3.org/2000/svg">
<path d="M2.09388 8.93879C2.20945 7.15951 3.63997 5.76509 5.42081 5.67686C7.99959 5.5491 11.6854 5.39502 14.4626 5.39502C17.2397 5.39502 20.9255 5.5491 23.5043 5.67686C25.2851 5.76509 26.7157 7.15951 26.8312 8.93879C26.9419 10.6435 27.0511 12.741 27.0511 14.3868C27.0511 16.0326 26.9419 18.1302 26.8312 19.8349C26.7157 21.6141 25.2851 23.0086 23.5043 23.0968C20.9255 23.2245 17.2397 23.3786 14.4626 23.3786C11.6854 23.3786 7.99959 23.2245 5.42081 23.0968C3.63997 23.0086 2.20945 21.6141 2.09388 19.8349C1.98315 18.1302 1.87402 16.0326 1.87402 14.3868C1.87402 12.741 1.98315 10.6435 2.09388 8.93879Z" fill="#FC0D1B"/>
<path d="M11.7651 10.7903V17.9837L18.9586 14.387L11.7651 10.7903Z" fill="white"/>
</svg>
