<svg width="22" height="27" viewBox="0 0 22 27" fill="none" xmlns="http://www.w3.org/2000/svg">
<path d="M18.3447 14.1078C18.3578 13.1274 18.6263 12.1662 19.1255 11.3136C19.6247 10.4609 20.3382 9.74456 21.1996 9.23109C20.6524 8.47333 19.9304 7.84973 19.091 7.40981C18.2517 6.96989 17.3181 6.72577 16.3645 6.69684C14.3301 6.48982 12.3579 7.87704 11.3212 7.87704C10.2645 7.87704 8.66838 6.7174 6.94963 6.75168C5.83789 6.78651 4.75442 7.09993 3.80478 7.66142C2.85513 8.22291 2.0717 9.01331 1.53082 9.95562C-0.812165 13.8884 0.935489 19.6683 3.17987 22.8473C4.30278 24.4039 5.61515 26.1427 7.33235 26.0811C9.01273 26.0135 9.64032 25.0422 11.6687 25.0422C13.6782 25.0422 14.267 26.0811 16.0191 26.0419C17.8222 26.0135 18.9583 24.4783 20.0418 22.9069C20.8486 21.7977 21.4694 20.5719 21.8813 19.2747C20.8337 18.8451 19.9398 18.1261 19.3109 17.2073C18.682 16.2885 18.3459 15.2105 18.3447 14.1078Z" fill="#353535"/>
<path d="M15.0354 4.60664C16.0185 3.46241 16.5029 1.9917 16.3856 0.506836C14.8836 0.659783 13.4961 1.35576 12.4997 2.45608C12.0125 2.99362 11.6394 3.61898 11.4017 4.29641C11.1639 4.97384 11.0662 5.69005 11.1142 6.40411C11.8654 6.41161 12.6087 6.25374 13.2879 5.94239C13.9671 5.63103 14.5646 5.17432 15.0354 4.60664Z" fill="#353535"/>
</svg>
