<svg width="40" height="39" viewBox="0 0 40 39" fill="none" xmlns="http://www.w3.org/2000/svg">
<circle cx="19.8706" cy="19.1904" r="19.1904" fill="black"/>
<path d="M23.0939 10.3232C22.1265 10.3902 20.9957 11.0094 20.3367 11.8158C19.7356 12.5474 19.2411 13.6339 19.4339 14.6898C20.491 14.7227 21.5832 14.0887 22.2161 13.2687C22.8081 12.5054 23.2561 11.4257 23.0939 10.3232Z" fill="white"/>
<path d="M26.9171 16.413C25.9882 15.2482 24.6828 14.5723 23.45 14.5723C21.8224 14.5723 21.134 15.3514 20.0032 15.3514C18.8373 15.3514 17.9515 14.5745 16.544 14.5745C15.1614 14.5745 13.6892 15.4195 12.7558 16.8644C11.4436 18.8991 11.6681 22.7247 13.7947 25.9832C14.5557 27.1491 15.572 28.4603 16.9012 28.4716C18.0842 28.4829 18.4176 27.7128 20.0202 27.7049C21.6228 27.6958 21.9268 28.4818 23.1074 28.4693C24.4378 28.4591 25.5096 27.0062 26.2707 25.8403C26.8162 25.0044 27.0192 24.5836 27.4423 23.64C24.3652 22.4684 23.8719 18.0927 26.9171 16.413Z" fill="white"/>
</svg>
