<svg width="134" height="33" viewBox="0 0 134 33" fill="none" xmlns="http://www.w3.org/2000/svg">
<path d="M19.8467 15.2585C19.861 14.1869 20.1574 13.1362 20.7083 12.2042C21.2592 11.2722 22.0466 10.4892 22.9973 9.9279C22.3933 9.09962 21.5966 8.41798 20.6703 7.93711C19.744 7.45625 18.7137 7.18941 17.6613 7.15779C15.4162 6.9315 13.2397 8.44783 12.0956 8.44783C10.9294 8.44783 9.16799 7.18026 7.2712 7.21773C6.04431 7.2558 4.84861 7.59839 3.80059 8.21214C2.75258 8.82589 1.888 9.68986 1.29109 10.7199C-1.29459 15.0187 0.634091 21.3365 3.11096 24.8114C4.35019 26.5129 5.79849 28.4136 7.69356 28.3462C9.54801 28.2723 10.2406 27.2107 12.4791 27.2107C14.6968 27.2107 15.3466 28.3462 17.2801 28.3033C19.27 28.2723 20.5237 26.5942 21.7195 24.8766C22.6099 23.6642 23.295 22.3242 23.7496 20.9063C22.5935 20.4368 21.6069 19.6508 20.9129 18.6465C20.2188 17.6421 19.848 16.4638 19.8467 15.2585Z" fill="#353535"/>
<path d="M16.1945 4.873C17.2795 3.62227 17.814 2.01467 17.6846 0.391602C16.027 0.558784 14.4958 1.31953 13.3962 2.52227C12.8585 3.10984 12.4468 3.79341 12.1844 4.53388C11.922 5.27436 11.8142 6.05724 11.8671 6.83776C12.6962 6.84596 13.5164 6.67339 14.266 6.33306C15.0156 5.99273 15.675 5.49351 16.1945 4.873Z" fill="#353535"/>
<path d="M43.2883 24.0388H36.96L35.4402 28.348H32.7598L38.7539 12.4053H41.5388L47.5329 28.348H44.8068L43.2883 24.0388ZM37.6154 22.0504H42.6317L40.1588 15.057H40.0896L37.6154 22.0504Z" fill="#353535"/>
<path d="M60.478 22.5377C60.478 26.1498 58.4647 28.4705 55.4265 28.4705C54.6569 28.5091 53.8915 28.3389 53.2179 27.9792C52.5444 27.6196 51.9899 27.085 51.618 26.4369H51.5605V32.1941H49.0759V16.7253H51.4809V18.6586H51.5266C51.9156 18.0135 52.4795 17.4818 53.1581 17.1199C53.8368 16.7581 54.605 16.5797 55.3808 16.6037C58.4529 16.6037 60.478 18.9357 60.478 22.5377ZM57.9242 22.5377C57.9242 20.1844 56.6577 18.6373 54.7254 18.6373C52.827 18.6373 51.5501 20.217 51.5501 22.5377C51.5501 24.8797 52.827 26.4482 54.7254 26.4482C56.6577 26.4482 57.9242 24.9123 57.9242 22.5377Z" fill="#353535"/>
<path d="M73.8005 22.5377C73.8005 26.1498 71.7872 28.4704 68.749 28.4704C67.9794 28.5091 67.214 28.3389 66.5405 27.9792C65.8669 27.6196 65.3124 27.085 64.9405 26.4368H64.883V32.1941H62.3984V16.7253H64.8034V18.6586H64.8491C65.2381 18.0135 65.8019 17.4818 66.4806 17.1199C67.1593 16.7581 67.9274 16.5797 68.7033 16.6037C71.7755 16.6037 73.8005 18.9357 73.8005 22.5377ZM71.2467 22.5377C71.2467 20.1844 69.9802 18.6373 68.0479 18.6373C66.1495 18.6373 64.8726 20.217 64.8726 22.5377C64.8726 24.8797 66.1495 26.4481 68.0479 26.4481C69.9802 26.4481 71.2467 24.9123 71.2467 22.5377H71.2467Z" fill="#353535"/>
<path d="M82.6057 23.9062C82.7898 25.4871 84.3892 26.5252 86.5748 26.5252C88.669 26.5252 90.1757 25.4871 90.1757 24.0616C90.1757 22.8241 89.2669 22.0832 87.1153 21.5754L84.9636 21.0776C81.915 20.3705 80.4997 19.0014 80.4997 16.7798C80.4997 14.029 82.996 12.1396 86.5408 12.1396C90.049 12.1396 92.454 14.029 92.5349 16.7798H90.0268C89.8767 15.1888 88.507 14.2284 86.5055 14.2284C84.504 14.2284 83.1344 15.2001 83.1344 16.6143C83.1344 17.7414 84.0092 18.4046 86.1491 18.9124L87.9783 19.3437C91.3846 20.1172 92.7999 21.4312 92.7999 23.7631C92.7999 26.7458 90.3258 28.6139 86.3906 28.6139C82.7088 28.6139 80.2229 26.7897 80.0623 23.906L82.6057 23.9062Z" fill="#353535"/>
<path d="M98.1623 13.9736V16.7244H100.464V18.6138H98.1623V25.0217C98.1623 26.0171 98.6232 26.481 99.6351 26.481C99.9083 26.4765 100.181 26.458 100.452 26.4258V28.3039C99.9975 28.3856 99.5351 28.4225 99.0724 28.4143C96.6217 28.4143 95.666 27.5304 95.666 25.2761V18.6138H93.906V16.7244H95.6659V13.9736H98.1623Z" fill="#353535"/>
<path d="M101.797 22.5373C101.797 18.8802 104.04 16.582 107.538 16.582C111.047 16.582 113.28 18.8801 113.28 22.5373C113.28 26.2046 111.059 28.4926 107.538 28.4926C104.018 28.4926 101.797 26.2045 101.797 22.5373ZM110.748 22.5373C110.748 20.0286 109.551 18.5479 107.538 18.5479C105.525 18.5479 104.329 20.0399 104.329 22.5373C104.329 25.0561 105.525 26.5255 107.538 26.5255C109.551 26.5255 110.748 25.0561 110.748 22.5373H110.748Z" fill="#353535"/>
<path d="M115.329 16.7242H117.698V18.7026H117.756C117.916 18.0847 118.293 17.5387 118.823 17.1562C119.354 16.7738 120.005 16.5783 120.667 16.6026C120.954 16.6016 121.239 16.6315 121.519 16.6916V18.9233C121.157 18.8172 120.78 18.7685 120.402 18.7791C120.041 18.7651 119.681 18.8262 119.347 18.9583C119.013 19.0904 118.713 19.2903 118.467 19.5444C118.221 19.7984 118.035 20.1006 117.923 20.4301C117.81 20.7596 117.772 21.1087 117.813 21.4534V28.3477H115.329L115.329 16.7242Z" fill="#353535"/>
<path d="M132.974 24.9345C132.64 27.0446 130.5 28.4926 127.762 28.4926C124.241 28.4926 122.055 26.2271 122.055 22.5925C122.055 18.9466 124.253 16.582 127.658 16.582C131.007 16.582 133.113 18.7911 133.113 22.3154V23.1329H124.563V23.277C124.524 23.7048 124.58 24.1358 124.727 24.5413C124.874 24.9467 125.11 25.3175 125.418 25.6289C125.726 25.9403 126.099 26.1852 126.513 26.3473C126.927 26.5095 127.373 26.5852 127.82 26.5694C128.407 26.6222 128.996 26.4916 129.5 26.1971C130.003 25.9025 130.394 25.4597 130.615 24.9345L132.974 24.9345ZM124.575 21.4654H130.627C130.649 21.0807 130.588 20.6958 130.448 20.3348C130.308 19.9738 130.092 19.6444 129.813 19.3674C129.535 19.0904 129.199 18.8717 128.828 18.7251C128.457 18.5785 128.059 18.507 127.658 18.5153C127.253 18.513 126.852 18.5876 126.478 18.735C126.103 18.8823 125.763 19.0993 125.476 19.3736C125.19 19.6479 124.962 19.9739 124.808 20.3329C124.653 20.692 124.574 21.0769 124.575 21.4654V21.4654Z" fill="#353535"/>
<path d="M37.3036 0.406154C37.8245 0.370258 38.3472 0.445825 38.834 0.627402C39.3208 0.80898 39.7596 1.09204 40.1187 1.45617C40.4778 1.8203 40.7482 2.25642 40.9106 2.73307C41.0729 3.20972 41.123 3.71502 41.0573 4.21253C41.0573 6.65985 39.6799 8.06662 37.3036 8.06662H34.4221V0.406154H37.3036ZM35.6611 6.98326H37.1652C37.5374 7.00463 37.9099 6.94602 38.2556 6.81171C38.6013 6.67741 38.9114 6.47077 39.1634 6.20686C39.4154 5.94295 39.6029 5.6284 39.7124 5.2861C39.8218 4.94381 39.8504 4.58238 39.7961 4.22814C39.8465 3.8753 39.815 3.51612 39.7039 3.17633C39.5927 2.83655 39.4047 2.52457 39.1533 2.26276C38.9019 2.00094 38.5932 1.79578 38.2495 1.66195C37.9058 1.52813 37.5355 1.46897 37.1652 1.4887H35.6611V6.98326Z" fill="#353535"/>
<path d="M42.457 5.17336C42.4192 4.79345 42.4644 4.41014 42.5899 4.04801C42.7154 3.68587 42.9183 3.35292 43.1856 3.0705C43.4529 2.78808 43.7787 2.56242 44.1422 2.40801C44.5056 2.25359 44.8987 2.17383 45.2961 2.17383C45.6936 2.17383 46.0866 2.25359 46.4501 2.40801C46.8135 2.56242 47.1394 2.78808 47.4067 3.0705C47.674 3.35292 47.8769 3.68587 48.0023 4.04801C48.1278 4.41014 48.1731 4.79345 48.1352 5.17336C48.1738 5.55366 48.1291 5.93751 48.0039 6.30022C47.8788 6.66294 47.676 6.9965 47.4086 7.27948C47.1413 7.56246 46.8152 7.78858 46.4514 7.94333C46.0875 8.09808 45.694 8.17802 45.2961 8.17802C44.8982 8.17802 44.5047 8.09808 44.1409 7.94333C43.7771 7.78858 43.451 7.56246 43.1836 7.27948C42.9162 6.9965 42.7134 6.66294 42.5883 6.30022C42.4632 5.93751 42.4185 5.55366 42.457 5.17336V5.17336ZM46.9131 5.17336C46.9131 3.92024 46.3269 3.18743 45.2981 3.18743C44.2653 3.18743 43.6844 3.92025 43.6844 5.17337C43.6844 6.43653 44.2654 7.1637 45.2981 7.1637C46.3269 7.16368 46.9131 6.4315 46.9131 5.17336H46.9131Z" fill="#353535"/>
<path d="M55.6829 8.06619H54.4504L53.2062 3.80846H53.1122L51.8731 8.06619H50.6524L48.9929 2.28516H50.198L51.2765 6.69643H51.3653L52.603 2.28516H53.7428L54.9805 6.69643H55.0745L56.1477 2.28516H57.3359L55.6829 8.06619Z" fill="#353535"/>
<path d="M58.7315 2.28525H59.8752V3.20362H59.964C60.1146 2.87377 60.3686 2.59727 60.6906 2.41265C61.0127 2.22802 61.3867 2.14448 61.7605 2.17366C62.0534 2.15251 62.3476 2.19492 62.6211 2.29775C62.8946 2.40058 63.1406 2.5612 63.3407 2.7677C63.5408 2.97419 63.69 3.22128 63.7772 3.49066C63.8643 3.76003 63.8873 4.04479 63.8443 4.32383V8.06623H62.6562V4.61034C62.6562 3.68131 62.2358 3.2193 61.3571 3.2193C61.1582 3.2104 60.9596 3.24291 60.7751 3.31458C60.5905 3.38626 60.4242 3.49541 60.2877 3.63456C60.1512 3.77371 60.0476 3.93956 59.984 4.12075C59.9205 4.30194 59.8985 4.49418 59.9196 4.6843V8.06629H58.7314L58.7315 2.28525Z" fill="#353535"/>
<path d="M65.7375 0.0283203H66.9257V8.0661H65.7375V0.0283203Z" fill="#353535"/>
<path d="M68.5774 5.17347C68.5395 4.79353 68.5848 4.4102 68.7103 4.04805C68.8358 3.68591 69.0387 3.35294 69.3061 3.07051C69.5734 2.78809 69.8993 2.56243 70.2628 2.40801C70.6262 2.25359 71.0193 2.17383 71.4168 2.17383C71.8142 2.17383 72.2073 2.25359 72.5708 2.40801C72.9343 2.56243 73.2601 2.78809 73.5275 3.07051C73.7948 3.35294 73.9977 3.68591 74.1232 4.04805C74.2487 4.4102 74.294 4.79353 74.2562 5.17347C74.2947 5.55379 74.2499 5.93763 74.1248 6.30035C73.9996 6.66306 73.7968 6.99662 73.5294 7.27959C73.262 7.56256 72.9359 7.78868 72.5721 7.94342C72.2082 8.09816 71.8147 8.1781 71.4168 8.1781C71.0189 8.1781 70.6253 8.09816 70.2615 7.94342C69.8977 7.78868 69.5716 7.56256 69.3042 7.27959C69.0367 6.99662 68.8339 6.66306 68.7088 6.30035C68.5836 5.93763 68.5388 5.55379 68.5774 5.17347V5.17347ZM73.0335 5.17347C73.0335 3.92035 72.4472 3.18754 71.4184 3.18754C70.3857 3.18754 69.8047 3.92035 69.8047 5.17348C69.8047 6.43664 70.3857 7.16381 71.4184 7.16381C72.4472 7.16379 73.0335 6.43161 73.0335 5.17347H73.0335Z" fill="#353535"/>
<path d="M75.5068 6.43155C75.5068 5.39094 76.3137 4.79102 77.746 4.70576L79.3767 4.6155V4.11651C79.3767 3.50593 78.9563 3.16115 78.1442 3.16115C77.4809 3.16115 77.0214 3.39498 76.8895 3.8037H75.7392C75.8607 2.81073 76.8334 2.17383 78.199 2.17383C79.7083 2.17383 80.5596 2.89535 80.5596 4.11651V8.06644H79.4159V7.25402H79.3219C79.1311 7.54544 78.8631 7.78301 78.5454 7.94248C78.2277 8.10195 77.8717 8.17759 77.5136 8.16169C77.2608 8.18694 77.0054 8.16104 76.7637 8.08568C76.5221 8.01033 76.2995 7.88717 76.1105 7.72416C75.9214 7.56115 75.77 7.36191 75.666 7.13927C75.5621 6.91664 75.5078 6.67555 75.5068 6.43155V6.43155ZM79.3767 5.93757V5.45426L77.9066 5.54452C77.0775 5.5978 76.7015 5.86861 76.7015 6.37826C76.7015 6.89856 77.1715 7.20134 77.8178 7.20134C78.0072 7.21975 78.1985 7.20139 78.3803 7.14735C78.5622 7.09331 78.7308 7.0047 78.8763 6.8868C79.0217 6.76889 79.141 6.62409 79.2269 6.46102C79.3129 6.29794 79.3638 6.11993 79.3767 5.93757V5.93757Z" fill="#353535"/>
<path d="M82.1211 5.1731C82.1211 3.34639 83.099 2.18917 84.6201 2.18917C84.9963 2.17253 85.3697 2.25906 85.6966 2.43866C86.0235 2.61827 86.2905 2.88352 86.4662 3.20341H86.555V0.0283203H87.7431V8.0661H86.6046V7.15274H86.5106C86.3213 7.47048 86.045 7.73242 85.7118 7.91021C85.3786 8.088 85.001 8.17486 84.6201 8.16137C83.0886 8.16144 82.1211 7.0042 82.1211 5.1731ZM83.3484 5.1731C83.3484 6.39927 83.9503 7.1371 84.957 7.1371C85.9583 7.1371 86.5772 6.38862 86.5772 5.17812C86.5772 3.97326 85.9518 3.21411 84.957 3.21411C83.9568 3.21411 83.3484 3.95696 83.3484 5.1731H83.3484Z" fill="#353535"/>
<path d="M92.6589 5.17336C92.6211 4.79345 92.6663 4.41014 92.7918 4.04801C92.9173 3.68587 93.1202 3.35292 93.3875 3.0705C93.6548 2.78808 93.9806 2.56242 94.3441 2.40801C94.7075 2.25359 95.1006 2.17383 95.498 2.17383C95.8954 2.17383 96.2885 2.25359 96.6519 2.40801C97.0154 2.56242 97.3412 2.78808 97.6085 3.0705C97.8759 3.35292 98.0787 3.68587 98.2042 4.04801C98.3297 4.41014 98.3749 4.79345 98.3371 5.17336C98.3757 5.55366 98.3309 5.93751 98.2058 6.30022C98.0807 6.66294 97.8779 6.9965 97.6105 7.27948C97.3431 7.56246 97.0171 7.78858 96.6532 7.94333C96.2894 8.09808 95.8959 8.17802 95.498 8.17802C95.1001 8.17802 94.7066 8.09808 94.3428 7.94333C93.979 7.78858 93.6529 7.56246 93.3855 7.27948C93.1181 6.9965 92.9153 6.66294 92.7902 6.30022C92.6651 5.93751 92.6204 5.55366 92.6589 5.17336V5.17336ZM97.115 5.17336C97.115 3.92024 96.5288 3.18743 95.5 3.18743C94.4672 3.18743 93.8863 3.92025 93.8863 5.17337C93.8863 6.43653 94.4673 7.1637 95.5 7.1637C96.5288 7.16368 97.115 6.4315 97.115 5.17336Z" fill="#353535"/>
<path d="M99.9312 2.28525H101.075V3.20362H101.164C101.314 2.87377 101.568 2.59727 101.89 2.41265C102.212 2.22802 102.586 2.14448 102.96 2.17366C103.253 2.15251 103.547 2.19492 103.821 2.29775C104.094 2.40058 104.34 2.5612 104.54 2.7677C104.741 2.97419 104.89 3.22128 104.977 3.49066C105.064 3.76003 105.087 4.04479 105.044 4.32383V8.06623H103.856V4.61034C103.856 3.68131 103.435 3.2193 102.557 3.2193C102.358 3.2104 102.159 3.24291 101.975 3.31458C101.79 3.38626 101.624 3.49541 101.487 3.63456C101.351 3.77371 101.247 3.93956 101.184 4.12075C101.12 4.30194 101.098 4.49418 101.119 4.6843V8.06629H99.9312V2.28525Z" fill="#353535"/>
<path d="M111.758 0.845703V2.31133H113.062V3.27234H111.758V6.24498C111.758 6.85054 112.018 7.1157 112.609 7.1157C112.76 7.11524 112.912 7.10644 113.062 7.08937V8.03971C112.849 8.07636 112.632 8.09586 112.416 8.09801C111.094 8.09801 110.568 7.65167 110.568 6.53709V3.27229H109.613V2.31128H110.568V0.845703H111.758Z" fill="#353535"/>
<path d="M114.685 0.0283203H115.862V3.2141H115.956C116.114 2.88118 116.375 2.60311 116.704 2.41779C117.032 2.23247 117.412 2.14891 117.792 2.17851C118.083 2.16328 118.375 2.21 118.645 2.31533C118.915 2.42065 119.158 2.582 119.356 2.78785C119.554 2.99369 119.703 3.23897 119.791 3.50619C119.879 3.7734 119.904 4.05595 119.865 4.3337V8.06612H118.676V4.61516C118.676 3.69177 118.228 3.22412 117.389 3.22412C117.184 3.20803 116.979 3.23499 116.787 3.3031C116.595 3.37122 116.42 3.47884 116.276 3.61844C116.131 3.75804 116.02 3.92625 115.951 4.1113C115.881 4.29635 115.855 4.49377 115.873 4.68975V8.06609H114.685L114.685 0.0283203Z" fill="#353535"/>
<path d="M126.793 6.50465C126.632 7.033 126.282 7.49002 125.805 7.79577C125.328 8.10151 124.755 8.23651 124.185 8.17714C123.788 8.18719 123.394 8.11425 123.029 7.96336C122.665 7.81247 122.339 7.58726 122.075 7.30335C121.81 7.01945 121.613 6.68365 121.497 6.31927C121.381 5.95489 121.349 5.57065 121.404 5.19323C121.351 4.81464 121.383 4.42958 121.499 4.06411C121.615 3.69863 121.811 3.36128 122.074 3.07489C122.337 2.7885 122.661 2.55976 123.024 2.40415C123.388 2.24854 123.782 2.16969 124.179 2.17295C125.854 2.17295 126.865 3.27191 126.865 5.08726V5.48537H122.614V5.5493C122.595 5.76145 122.623 5.97499 122.695 6.17623C122.768 6.37748 122.883 6.56198 123.034 6.71791C123.185 6.87383 123.368 6.99775 123.572 7.08171C123.776 7.16567 123.996 7.20782 124.217 7.20545C124.501 7.23822 124.789 7.18908 125.044 7.06428C125.299 6.93948 125.51 6.74467 125.649 6.50461L126.793 6.50465ZM122.614 4.64158H125.655C125.67 4.44755 125.642 4.25267 125.574 4.06944C125.506 3.88621 125.399 3.7187 125.259 3.57766C125.12 3.43662 124.951 3.32518 124.764 3.25049C124.577 3.1758 124.375 3.13952 124.173 3.14398C123.967 3.1415 123.763 3.17855 123.573 3.25294C123.383 3.32733 123.21 3.43756 123.065 3.57713C122.919 3.7167 122.805 3.88279 122.727 4.0656C122.65 4.24841 122.611 4.44425 122.614 4.64158H122.614Z" fill="#353535"/>
</svg>
