<svg width="127" height="127" viewBox="0 0 127 127" fill="none" xmlns="http://www.w3.org/2000/svg">
<path d="M1.71622 3.43243C2.66406 3.43243 3.43243 2.66406 3.43243 1.71622C3.43243 0.768376 2.66406 0 1.71622 0C0.768376 0 0 0.768376 0 1.71622C0 2.66406 0.768376 3.43243 1.71622 3.43243Z" fill="white"/>
<path d="M15.4167 3.43243C16.3645 3.43243 17.1329 2.66406 17.1329 1.71622C17.1329 0.768376 16.3645 0 15.4167 0C14.4688 0 13.7004 0.768376 13.7004 1.71622C13.7004 2.66406 14.4688 3.43243 15.4167 3.43243Z" fill="white"/>
<path d="M29.1171 3.43243C30.0649 3.43243 30.8333 2.66406 30.8333 1.71622C30.8333 0.768376 30.0649 0 29.1171 0C28.1693 0 27.4009 0.768376 27.4009 1.71622C27.4009 2.66406 28.1693 3.43243 29.1171 3.43243Z" fill="white"/>
<path d="M42.8178 3.43243C43.7656 3.43243 44.534 2.66406 44.534 1.71622C44.534 0.768376 43.7656 0 42.8178 0C41.8699 0 41.1016 0.768376 41.1016 1.71622C41.1016 2.66406 41.8699 3.43243 42.8178 3.43243Z" fill="white"/>
<path d="M56.5182 3.43243C57.4661 3.43243 58.2344 2.66406 58.2344 1.71622C58.2344 0.768376 57.4661 0 56.5182 0C55.5704 0 54.802 0.768376 54.802 1.71622C54.802 2.66406 55.5704 3.43243 56.5182 3.43243Z" fill="white"/>
<path d="M70.2187 3.43243C71.1665 3.43243 71.9349 2.66406 71.9349 1.71622C71.9349 0.768376 71.1665 0 70.2187 0C69.2708 0 68.5024 0.768376 68.5024 1.71622C68.5024 2.66406 69.2708 3.43243 70.2187 3.43243Z" fill="white"/>
<path d="M83.9193 3.43243C84.8672 3.43243 85.6356 2.66406 85.6356 1.71622C85.6356 0.768376 84.8672 0 83.9193 0C82.9715 0 82.2031 0.768376 82.2031 1.71622C82.2031 2.66406 82.9715 3.43243 83.9193 3.43243Z" fill="white"/>
<path d="M97.6198 3.43243C98.5676 3.43243 99.336 2.66406 99.336 1.71622C99.336 0.768376 98.5676 0 97.6198 0C96.6719 0 95.9036 0.768376 95.9036 1.71622C95.9036 2.66406 96.6719 3.43243 97.6198 3.43243Z" fill="white"/>
<path d="M111.32 3.43243C112.268 3.43243 113.037 2.66406 113.037 1.71622C113.037 0.768376 112.268 0 111.32 0C110.373 0 109.604 0.768376 109.604 1.71622C109.604 2.66406 110.373 3.43243 111.32 3.43243Z" fill="white"/>
<path d="M125.021 3.43243C125.969 3.43243 126.737 2.66406 126.737 1.71622C126.737 0.768376 125.969 0 125.021 0C124.073 0 123.305 0.768376 123.305 1.71622C123.305 2.66406 124.073 3.43243 125.021 3.43243Z" fill="white"/>
<path d="M1.71622 17.1619C2.66406 17.1619 3.43243 16.3935 3.43243 15.4457C3.43243 14.4979 2.66406 13.7295 1.71622 13.7295C0.768376 13.7295 0 14.4979 0 15.4457C0 16.3935 0.768376 17.1619 1.71622 17.1619Z" fill="white"/>
<path d="M15.4167 17.1619C16.3645 17.1619 17.1329 16.3935 17.1329 15.4457C17.1329 14.4979 16.3645 13.7295 15.4167 13.7295C14.4688 13.7295 13.7004 14.4979 13.7004 15.4457C13.7004 16.3935 14.4688 17.1619 15.4167 17.1619Z" fill="white"/>
<path d="M29.1171 17.1619C30.0649 17.1619 30.8333 16.3935 30.8333 15.4457C30.8333 14.4979 30.0649 13.7295 29.1171 13.7295C28.1693 13.7295 27.4009 14.4979 27.4009 15.4457C27.4009 16.3935 28.1693 17.1619 29.1171 17.1619Z" fill="white"/>
<path d="M42.8178 17.1619C43.7656 17.1619 44.534 16.3935 44.534 15.4457C44.534 14.4979 43.7656 13.7295 42.8178 13.7295C41.8699 13.7295 41.1016 14.4979 41.1016 15.4457C41.1016 16.3935 41.8699 17.1619 42.8178 17.1619Z" fill="white"/>
<path d="M56.5185 17.1619C57.4663 17.1619 58.2347 16.3935 58.2347 15.4457C58.2347 14.4979 57.4663 13.7295 56.5185 13.7295C55.5706 13.7295 54.8022 14.4979 54.8022 15.4457C54.8022 16.3935 55.5706 17.1619 56.5185 17.1619Z" fill="white"/>
<path d="M70.2187 17.1619C71.1665 17.1619 71.9349 16.3935 71.9349 15.4457C71.9349 14.4979 71.1665 13.7295 70.2187 13.7295C69.2708 13.7295 68.5024 14.4979 68.5024 15.4457C68.5024 16.3935 69.2708 17.1619 70.2187 17.1619Z" fill="white"/>
<path d="M83.9193 17.1619C84.8672 17.1619 85.6356 16.3935 85.6356 15.4457C85.6356 14.4979 84.8672 13.7295 83.9193 13.7295C82.9715 13.7295 82.2031 14.4979 82.2031 15.4457C82.2031 16.3935 82.9715 17.1619 83.9193 17.1619Z" fill="white"/>
<path d="M97.6198 17.1619C98.5676 17.1619 99.336 16.3935 99.336 15.4457C99.336 14.4979 98.5676 13.7295 97.6198 13.7295C96.6719 13.7295 95.9036 14.4979 95.9036 15.4457C95.9036 16.3935 96.6719 17.1619 97.6198 17.1619Z" fill="white"/>
<path d="M111.32 17.1619C112.268 17.1619 113.036 16.3935 113.036 15.4457C113.036 14.4979 112.268 13.7295 111.32 13.7295C110.372 13.7295 109.604 14.4979 109.604 15.4457C109.604 16.3935 110.372 17.1619 111.32 17.1619Z" fill="white"/>
<path d="M125.021 17.1619C125.969 17.1619 126.737 16.3935 126.737 15.4457C126.737 14.4979 125.969 13.7295 125.021 13.7295C124.073 13.7295 123.305 14.4979 123.305 15.4457C123.305 16.3935 124.073 17.1619 125.021 17.1619Z" fill="white"/>
<path d="M1.71622 30.8914C2.66406 30.8914 3.43243 30.123 3.43243 29.1752C3.43243 28.2274 2.66406 27.459 1.71622 27.459C0.768376 27.459 0 28.2274 0 29.1752C0 30.123 0.768376 30.8914 1.71622 30.8914Z" fill="white"/>
<path d="M15.4167 30.8914C16.3645 30.8914 17.1329 30.123 17.1329 29.1752C17.1329 28.2274 16.3645 27.459 15.4167 27.459C14.4688 27.459 13.7004 28.2274 13.7004 29.1752C13.7004 30.123 14.4688 30.8914 15.4167 30.8914Z" fill="white"/>
<path d="M29.1171 30.8914C30.0649 30.8914 30.8333 30.123 30.8333 29.1752C30.8333 28.2274 30.0649 27.459 29.1171 27.459C28.1693 27.459 27.4009 28.2274 27.4009 29.1752C27.4009 30.123 28.1693 30.8914 29.1171 30.8914Z" fill="white"/>
<path d="M42.8178 30.8914C43.7656 30.8914 44.534 30.123 44.534 29.1752C44.534 28.2274 43.7656 27.459 42.8178 27.459C41.8699 27.459 41.1016 28.2274 41.1016 29.1752C41.1016 30.123 41.8699 30.8914 42.8178 30.8914Z" fill="white"/>
<path d="M56.5185 30.8914C57.4663 30.8914 58.2347 30.123 58.2347 29.1752C58.2347 28.2274 57.4663 27.459 56.5185 27.459C55.5706 27.459 54.8022 28.2274 54.8022 29.1752C54.8022 30.123 55.5706 30.8914 56.5185 30.8914Z" fill="white"/>
<path d="M70.2187 30.8914C71.1665 30.8914 71.9349 30.123 71.9349 29.1752C71.9349 28.2274 71.1665 27.459 70.2187 27.459C69.2708 27.459 68.5024 28.2274 68.5024 29.1752C68.5024 30.123 69.2708 30.8914 70.2187 30.8914Z" fill="white"/>
<path d="M83.9193 30.8914C84.8672 30.8914 85.6356 30.123 85.6356 29.1752C85.6356 28.2274 84.8672 27.459 83.9193 27.459C82.9715 27.459 82.2031 28.2274 82.2031 29.1752C82.2031 30.123 82.9715 30.8914 83.9193 30.8914Z" fill="white"/>
<path d="M97.6198 30.8914C98.5676 30.8914 99.336 30.123 99.336 29.1752C99.336 28.2274 98.5676 27.459 97.6198 27.459C96.6719 27.459 95.9036 28.2274 95.9036 29.1752C95.9036 30.123 96.6719 30.8914 97.6198 30.8914Z" fill="white"/>
<path d="M111.32 30.8914C112.268 30.8914 113.036 30.123 113.036 29.1752C113.036 28.2274 112.268 27.459 111.32 27.459C110.372 27.459 109.604 28.2274 109.604 29.1752C109.604 30.123 110.372 30.8914 111.32 30.8914Z" fill="white"/>
<path d="M125.021 30.8914C125.969 30.8914 126.737 30.123 126.737 29.1752C126.737 28.2274 125.969 27.459 125.021 27.459C124.073 27.459 123.305 28.2274 123.305 29.1752C123.305 30.123 124.073 30.8914 125.021 30.8914Z" fill="white"/>
<path d="M1.71622 44.6219C2.66406 44.6219 3.43243 43.8535 3.43243 42.9057C3.43243 41.9578 2.66406 41.1895 1.71622 41.1895C0.768376 41.1895 0 41.9578 0 42.9057C0 43.8535 0.768376 44.6219 1.71622 44.6219Z" fill="white"/>
<path d="M15.4167 44.6219C16.3645 44.6219 17.1329 43.8535 17.1329 42.9057C17.1329 41.9578 16.3645 41.1895 15.4167 41.1895C14.4688 41.1895 13.7004 41.9578 13.7004 42.9057C13.7004 43.8535 14.4688 44.6219 15.4167 44.6219Z" fill="white"/>
<path d="M29.1171 44.6219C30.0649 44.6219 30.8333 43.8535 30.8333 42.9057C30.8333 41.9578 30.0649 41.1895 29.1171 41.1895C28.1693 41.1895 27.4009 41.9578 27.4009 42.9057C27.4009 43.8535 28.1693 44.6219 29.1171 44.6219Z" fill="white"/>
<path d="M42.8178 44.6219C43.7656 44.6219 44.534 43.8535 44.534 42.9057C44.534 41.9578 43.7656 41.1895 42.8178 41.1895C41.8699 41.1895 41.1016 41.9578 41.1016 42.9057C41.1016 43.8535 41.8699 44.6219 42.8178 44.6219Z" fill="white"/>
<path d="M56.5185 44.6219C57.4663 44.6219 58.2347 43.8535 58.2347 42.9057C58.2347 41.9578 57.4663 41.1895 56.5185 41.1895C55.5706 41.1895 54.8022 41.9578 54.8022 42.9057C54.8022 43.8535 55.5706 44.6219 56.5185 44.6219Z" fill="white"/>
<path d="M70.2187 44.6219C71.1665 44.6219 71.9349 43.8535 71.9349 42.9057C71.9349 41.9578 71.1665 41.1895 70.2187 41.1895C69.2708 41.1895 68.5024 41.9578 68.5024 42.9057C68.5024 43.8535 69.2708 44.6219 70.2187 44.6219Z" fill="white"/>
<path d="M83.9193 44.6219C84.8672 44.6219 85.6356 43.8535 85.6356 42.9057C85.6356 41.9578 84.8672 41.1895 83.9193 41.1895C82.9715 41.1895 82.2031 41.9578 82.2031 42.9057C82.2031 43.8535 82.9715 44.6219 83.9193 44.6219Z" fill="white"/>
<path d="M97.6198 44.6219C98.5676 44.6219 99.336 43.8535 99.336 42.9057C99.336 41.9578 98.5676 41.1895 97.6198 41.1895C96.6719 41.1895 95.9036 41.9578 95.9036 42.9057C95.9036 43.8535 96.6719 44.6219 97.6198 44.6219Z" fill="white"/>
<path d="M111.32 44.6219C112.268 44.6219 113.036 43.8535 113.036 42.9057C113.036 41.9578 112.268 41.1895 111.32 41.1895C110.372 41.1895 109.604 41.9578 109.604 42.9057C109.604 43.8535 110.372 44.6219 111.32 44.6219Z" fill="white"/>
<path d="M125.021 44.6219C125.969 44.6219 126.737 43.8535 126.737 42.9057C126.737 41.9578 125.969 41.1895 125.021 41.1895C124.073 41.1895 123.305 41.9578 123.305 42.9057C123.305 43.8535 124.073 44.6219 125.021 44.6219Z" fill="white"/>
<path d="M1.71622 58.3514C2.66406 58.3514 3.43243 57.583 3.43243 56.6352C3.43243 55.6873 2.66406 54.9189 1.71622 54.9189C0.768376 54.9189 0 55.6873 0 56.6352C0 57.583 0.768376 58.3514 1.71622 58.3514Z" fill="white"/>
<path d="M15.4167 58.3514C16.3645 58.3514 17.1329 57.583 17.1329 56.6352C17.1329 55.6873 16.3645 54.9189 15.4167 54.9189C14.4688 54.9189 13.7004 55.6873 13.7004 56.6352C13.7004 57.583 14.4688 58.3514 15.4167 58.3514Z" fill="white"/>
<path d="M29.1171 58.3514C30.0649 58.3514 30.8333 57.583 30.8333 56.6352C30.8333 55.6873 30.0649 54.9189 29.1171 54.9189C28.1693 54.9189 27.4009 55.6873 27.4009 56.6352C27.4009 57.583 28.1693 58.3514 29.1171 58.3514Z" fill="white"/>
<path d="M42.8178 58.3514C43.7656 58.3514 44.534 57.583 44.534 56.6352C44.534 55.6873 43.7656 54.9189 42.8178 54.9189C41.8699 54.9189 41.1016 55.6873 41.1016 56.6352C41.1016 57.583 41.8699 58.3514 42.8178 58.3514Z" fill="white"/>
<path d="M56.5185 58.3514C57.4663 58.3514 58.2347 57.583 58.2347 56.6352C58.2347 55.6873 57.4663 54.9189 56.5185 54.9189C55.5706 54.9189 54.8022 55.6873 54.8022 56.6352C54.8022 57.583 55.5706 58.3514 56.5185 58.3514Z" fill="white"/>
<path d="M70.2187 58.3514C71.1665 58.3514 71.9349 57.583 71.9349 56.6352C71.9349 55.6873 71.1665 54.9189 70.2187 54.9189C69.2708 54.9189 68.5024 55.6873 68.5024 56.6352C68.5024 57.583 69.2708 58.3514 70.2187 58.3514Z" fill="white"/>
<path d="M83.9193 58.3514C84.8672 58.3514 85.6356 57.583 85.6356 56.6352C85.6356 55.6873 84.8672 54.9189 83.9193 54.9189C82.9715 54.9189 82.2031 55.6873 82.2031 56.6352C82.2031 57.583 82.9715 58.3514 83.9193 58.3514Z" fill="white"/>
<path d="M97.6198 58.3514C98.5676 58.3514 99.336 57.583 99.336 56.6352C99.336 55.6873 98.5676 54.9189 97.6198 54.9189C96.6719 54.9189 95.9036 55.6873 95.9036 56.6352C95.9036 57.583 96.6719 58.3514 97.6198 58.3514Z" fill="white"/>
<path d="M111.32 58.3514C112.268 58.3514 113.036 57.583 113.036 56.6352C113.036 55.6873 112.268 54.9189 111.32 54.9189C110.372 54.9189 109.604 55.6873 109.604 56.6352C109.604 57.583 110.372 58.3514 111.32 58.3514Z" fill="white"/>
<path d="M125.021 58.3514C125.969 58.3514 126.737 57.583 126.737 56.6352C126.737 55.6873 125.969 54.9189 125.021 54.9189C124.073 54.9189 123.305 55.6873 123.305 56.6352C123.305 57.583 124.073 58.3514 125.021 58.3514Z" fill="white"/>
<path d="M1.71622 72.0809C2.66406 72.0809 3.43243 71.3125 3.43243 70.3647C3.43243 69.4168 2.66406 68.6484 1.71622 68.6484C0.768376 68.6484 0 69.4168 0 70.3647C0 71.3125 0.768376 72.0809 1.71622 72.0809Z" fill="white"/>
<path d="M15.4167 72.0809C16.3645 72.0809 17.1329 71.3125 17.1329 70.3647C17.1329 69.4168 16.3645 68.6484 15.4167 68.6484C14.4688 68.6484 13.7004 69.4168 13.7004 70.3647C13.7004 71.3125 14.4688 72.0809 15.4167 72.0809Z" fill="white"/>
<path d="M29.1171 72.0809C30.0649 72.0809 30.8333 71.3125 30.8333 70.3647C30.8333 69.4168 30.0649 68.6484 29.1171 68.6484C28.1693 68.6484 27.4009 69.4168 27.4009 70.3647C27.4009 71.3125 28.1693 72.0809 29.1171 72.0809Z" fill="white"/>
<path d="M42.8178 72.0809C43.7656 72.0809 44.534 71.3125 44.534 70.3647C44.534 69.4168 43.7656 68.6484 42.8178 68.6484C41.8699 68.6484 41.1016 69.4168 41.1016 70.3647C41.1016 71.3125 41.8699 72.0809 42.8178 72.0809Z" fill="white"/>
<path d="M56.5185 72.0809C57.4663 72.0809 58.2347 71.3125 58.2347 70.3647C58.2347 69.4168 57.4663 68.6484 56.5185 68.6484C55.5706 68.6484 54.8022 69.4168 54.8022 70.3647C54.8022 71.3125 55.5706 72.0809 56.5185 72.0809Z" fill="white"/>
<path d="M70.2187 72.0809C71.1665 72.0809 71.9349 71.3125 71.9349 70.3647C71.9349 69.4168 71.1665 68.6484 70.2187 68.6484C69.2708 68.6484 68.5024 69.4168 68.5024 70.3647C68.5024 71.3125 69.2708 72.0809 70.2187 72.0809Z" fill="white"/>
<path d="M83.9193 72.0809C84.8672 72.0809 85.6356 71.3125 85.6356 70.3647C85.6356 69.4168 84.8672 68.6484 83.9193 68.6484C82.9715 68.6484 82.2031 69.4168 82.2031 70.3647C82.2031 71.3125 82.9715 72.0809 83.9193 72.0809Z" fill="white"/>
<path d="M97.6198 72.0809C98.5676 72.0809 99.336 71.3125 99.336 70.3647C99.336 69.4168 98.5676 68.6484 97.6198 68.6484C96.6719 68.6484 95.9036 69.4168 95.9036 70.3647C95.9036 71.3125 96.6719 72.0809 97.6198 72.0809Z" fill="white"/>
<path d="M111.32 72.0809C112.268 72.0809 113.036 71.3125 113.036 70.3647C113.036 69.4168 112.268 68.6484 111.32 68.6484C110.372 68.6484 109.604 69.4168 109.604 70.3647C109.604 71.3125 110.372 72.0809 111.32 72.0809Z" fill="white"/>
<path d="M125.021 72.0809C125.969 72.0809 126.737 71.3125 126.737 70.3647C126.737 69.4168 125.969 68.6484 125.021 68.6484C124.073 68.6484 123.305 69.4168 123.305 70.3647C123.305 71.3125 124.073 72.0809 125.021 72.0809Z" fill="white"/>
<path d="M1.71622 85.8113C2.66406 85.8113 3.43243 85.043 3.43243 84.0951C3.43243 83.1473 2.66406 82.3789 1.71622 82.3789C0.768376 82.3789 0 83.1473 0 84.0951C0 85.043 0.768376 85.8113 1.71622 85.8113Z" fill="white"/>
<path d="M15.4167 85.8113C16.3645 85.8113 17.1329 85.043 17.1329 84.0951C17.1329 83.1473 16.3645 82.3789 15.4167 82.3789C14.4688 82.3789 13.7004 83.1473 13.7004 84.0951C13.7004 85.043 14.4688 85.8113 15.4167 85.8113Z" fill="white"/>
<path d="M29.1171 85.8113C30.0649 85.8113 30.8333 85.043 30.8333 84.0951C30.8333 83.1473 30.0649 82.3789 29.1171 82.3789C28.1693 82.3789 27.4009 83.1473 27.4009 84.0951C27.4009 85.043 28.1693 85.8113 29.1171 85.8113Z" fill="white"/>
<path d="M42.8178 85.8113C43.7656 85.8113 44.534 85.043 44.534 84.0951C44.534 83.1473 43.7656 82.3789 42.8178 82.3789C41.8699 82.3789 41.1016 83.1473 41.1016 84.0951C41.1016 85.043 41.8699 85.8113 42.8178 85.8113Z" fill="white"/>
<path d="M56.5185 85.8113C57.4663 85.8113 58.2347 85.043 58.2347 84.0951C58.2347 83.1473 57.4663 82.3789 56.5185 82.3789C55.5706 82.3789 54.8022 83.1473 54.8022 84.0951C54.8022 85.043 55.5706 85.8113 56.5185 85.8113Z" fill="white"/>
<path d="M70.2187 85.8113C71.1665 85.8113 71.9349 85.043 71.9349 84.0951C71.9349 83.1473 71.1665 82.3789 70.2187 82.3789C69.2708 82.3789 68.5024 83.1473 68.5024 84.0951C68.5024 85.043 69.2708 85.8113 70.2187 85.8113Z" fill="white"/>
<path d="M83.9193 85.8113C84.8672 85.8113 85.6356 85.043 85.6356 84.0951C85.6356 83.1473 84.8672 82.3789 83.9193 82.3789C82.9715 82.3789 82.2031 83.1473 82.2031 84.0951C82.2031 85.043 82.9715 85.8113 83.9193 85.8113Z" fill="white"/>
<path d="M97.6198 85.8113C98.5676 85.8113 99.336 85.043 99.336 84.0951C99.336 83.1473 98.5676 82.3789 97.6198 82.3789C96.6719 82.3789 95.9036 83.1473 95.9036 84.0951C95.9036 85.043 96.6719 85.8113 97.6198 85.8113Z" fill="white"/>
<path d="M111.32 85.8113C112.268 85.8113 113.036 85.043 113.036 84.0951C113.036 83.1473 112.268 82.3789 111.32 82.3789C110.372 82.3789 109.604 83.1473 109.604 84.0951C109.604 85.043 110.372 85.8113 111.32 85.8113Z" fill="white"/>
<path d="M125.021 85.8113C125.969 85.8113 126.737 85.043 126.737 84.0951C126.737 83.1473 125.969 82.3789 125.021 82.3789C124.073 82.3789 123.305 83.1473 123.305 84.0951C123.305 85.043 124.073 85.8113 125.021 85.8113Z" fill="white"/>
<path d="M1.71622 99.5408C2.66406 99.5408 3.43243 98.7725 3.43243 97.8246C3.43243 96.8768 2.66406 96.1084 1.71622 96.1084C0.768376 96.1084 0 96.8768 0 97.8246C0 98.7725 0.768376 99.5408 1.71622 99.5408Z" fill="white"/>
<path d="M15.4167 99.5408C16.3645 99.5408 17.1329 98.7725 17.1329 97.8246C17.1329 96.8768 16.3645 96.1084 15.4167 96.1084C14.4688 96.1084 13.7004 96.8768 13.7004 97.8246C13.7004 98.7725 14.4688 99.5408 15.4167 99.5408Z" fill="white"/>
<path d="M29.1171 99.5408C30.0649 99.5408 30.8333 98.7725 30.8333 97.8246C30.8333 96.8768 30.0649 96.1084 29.1171 96.1084C28.1693 96.1084 27.4009 96.8768 27.4009 97.8246C27.4009 98.7725 28.1693 99.5408 29.1171 99.5408Z" fill="white"/>
<path d="M42.8178 99.5408C43.7656 99.5408 44.534 98.7725 44.534 97.8246C44.534 96.8768 43.7656 96.1084 42.8178 96.1084C41.8699 96.1084 41.1016 96.8768 41.1016 97.8246C41.1016 98.7725 41.8699 99.5408 42.8178 99.5408Z" fill="white"/>
<path d="M56.5185 99.5408C57.4663 99.5408 58.2347 98.7725 58.2347 97.8246C58.2347 96.8768 57.4663 96.1084 56.5185 96.1084C55.5706 96.1084 54.8022 96.8768 54.8022 97.8246C54.8022 98.7725 55.5706 99.5408 56.5185 99.5408Z" fill="white"/>
<path d="M70.2187 99.5408C71.1665 99.5408 71.9349 98.7725 71.9349 97.8246C71.9349 96.8768 71.1665 96.1084 70.2187 96.1084C69.2708 96.1084 68.5024 96.8768 68.5024 97.8246C68.5024 98.7725 69.2708 99.5408 70.2187 99.5408Z" fill="white"/>
<path d="M83.9193 99.5408C84.8672 99.5408 85.6356 98.7725 85.6356 97.8246C85.6356 96.8768 84.8672 96.1084 83.9193 96.1084C82.9715 96.1084 82.2031 96.8768 82.2031 97.8246C82.2031 98.7725 82.9715 99.5408 83.9193 99.5408Z" fill="white"/>
<path d="M97.6198 99.5408C98.5676 99.5408 99.336 98.7725 99.336 97.8246C99.336 96.8768 98.5676 96.1084 97.6198 96.1084C96.6719 96.1084 95.9036 96.8768 95.9036 97.8246C95.9036 98.7725 96.6719 99.5408 97.6198 99.5408Z" fill="white"/>
<path d="M111.32 99.5408C112.268 99.5408 113.036 98.7725 113.036 97.8246C113.036 96.8768 112.268 96.1084 111.32 96.1084C110.372 96.1084 109.604 96.8768 109.604 97.8246C109.604 98.7725 110.372 99.5408 111.32 99.5408Z" fill="white"/>
<path d="M125.021 99.5408C125.969 99.5408 126.737 98.7725 126.737 97.8246C126.737 96.8768 125.969 96.1084 125.021 96.1084C124.073 96.1084 123.305 96.8768 123.305 97.8246C123.305 98.7725 124.073 99.5408 125.021 99.5408Z" fill="white"/>
<path d="M1.71622 113.27C2.66406 113.27 3.43243 112.502 3.43243 111.554C3.43243 110.606 2.66406 109.838 1.71622 109.838C0.768376 109.838 0 110.606 0 111.554C0 112.502 0.768376 113.27 1.71622 113.27Z" fill="white"/>
<path d="M15.4167 113.27C16.3645 113.27 17.1329 112.502 17.1329 111.554C17.1329 110.606 16.3645 109.838 15.4167 109.838C14.4688 109.838 13.7004 110.606 13.7004 111.554C13.7004 112.502 14.4688 113.27 15.4167 113.27Z" fill="white"/>
<path d="M29.1171 113.27C30.0649 113.27 30.8333 112.502 30.8333 111.554C30.8333 110.606 30.0649 109.838 29.1171 109.838C28.1693 109.838 27.4009 110.606 27.4009 111.554C27.4009 112.502 28.1693 113.27 29.1171 113.27Z" fill="white"/>
<path d="M42.8178 113.27C43.7656 113.27 44.534 112.502 44.534 111.554C44.534 110.606 43.7656 109.838 42.8178 109.838C41.8699 109.838 41.1016 110.606 41.1016 111.554C41.1016 112.502 41.8699 113.27 42.8178 113.27Z" fill="white"/>
<path d="M56.5182 113.27C57.4661 113.27 58.2344 112.502 58.2344 111.554C58.2344 110.606 57.4661 109.838 56.5182 109.838C55.5704 109.838 54.802 110.606 54.802 111.554C54.802 112.502 55.5704 113.27 56.5182 113.27Z" fill="white"/>
<path d="M70.2187 113.27C71.1665 113.27 71.9349 112.502 71.9349 111.554C71.9349 110.606 71.1665 109.838 70.2187 109.838C69.2708 109.838 68.5024 110.606 68.5024 111.554C68.5024 112.502 69.2708 113.27 70.2187 113.27Z" fill="white"/>
<path d="M83.9193 113.27C84.8672 113.27 85.6356 112.502 85.6356 111.554C85.6356 110.606 84.8672 109.838 83.9193 109.838C82.9715 109.838 82.2031 110.606 82.2031 111.554C82.2031 112.502 82.9715 113.27 83.9193 113.27Z" fill="white"/>
<path d="M97.6198 113.27C98.5676 113.27 99.336 112.502 99.336 111.554C99.336 110.606 98.5676 109.838 97.6198 109.838C96.6719 109.838 95.9036 110.606 95.9036 111.554C95.9036 112.502 96.6719 113.27 97.6198 113.27Z" fill="white"/>
<path d="M111.32 113.27C112.268 113.27 113.037 112.502 113.037 111.554C113.037 110.606 112.268 109.838 111.32 109.838C110.373 109.838 109.604 110.606 109.604 111.554C109.604 112.502 110.373 113.27 111.32 113.27Z" fill="white"/>
<path d="M125.021 113.27C125.969 113.27 126.737 112.502 126.737 111.554C126.737 110.606 125.969 109.838 125.021 109.838C124.073 109.838 123.305 110.606 123.305 111.554C123.305 112.502 124.073 113.27 125.021 113.27Z" fill="white"/>
<path d="M1.71622 127C2.66406 127 3.43243 126.231 3.43243 125.284C3.43243 124.336 2.66406 123.567 1.71622 123.567C0.768376 123.567 0 124.336 0 125.284C0 126.231 0.768376 127 1.71622 127Z" fill="white"/>
<path d="M15.4167 127C16.3645 127 17.1329 126.231 17.1329 125.284C17.1329 124.336 16.3645 123.567 15.4167 123.567C14.4688 123.567 13.7004 124.336 13.7004 125.284C13.7004 126.231 14.4688 127 15.4167 127Z" fill="white"/>
<path d="M29.1171 127C30.0649 127 30.8333 126.231 30.8333 125.284C30.8333 124.336 30.0649 123.567 29.1171 123.567C28.1693 123.567 27.4009 124.336 27.4009 125.284C27.4009 126.231 28.1693 127 29.1171 127Z" fill="white"/>
<path d="M42.8178 127C43.7656 127 44.534 126.231 44.534 125.284C44.534 124.336 43.7656 123.567 42.8178 123.567C41.8699 123.567 41.1016 124.336 41.1016 125.284C41.1016 126.231 41.8699 127 42.8178 127Z" fill="white"/>
<path d="M56.5182 127C57.4661 127 58.2344 126.231 58.2344 125.284C58.2344 124.336 57.4661 123.567 56.5182 123.567C55.5704 123.567 54.802 124.336 54.802 125.284C54.802 126.231 55.5704 127 56.5182 127Z" fill="white"/>
<path d="M70.2187 127C71.1665 127 71.9349 126.231 71.9349 125.284C71.9349 124.336 71.1665 123.567 70.2187 123.567C69.2708 123.567 68.5024 124.336 68.5024 125.284C68.5024 126.231 69.2708 127 70.2187 127Z" fill="white"/>
<path d="M83.9193 127C84.8672 127 85.6356 126.231 85.6356 125.284C85.6356 124.336 84.8672 123.567 83.9193 123.567C82.9715 123.567 82.2031 124.336 82.2031 125.284C82.2031 126.231 82.9715 127 83.9193 127Z" fill="white"/>
<path d="M97.6198 127C98.5676 127 99.336 126.231 99.336 125.284C99.336 124.336 98.5676 123.567 97.6198 123.567C96.6719 123.567 95.9036 124.336 95.9036 125.284C95.9036 126.231 96.6719 127 97.6198 127Z" fill="white"/>
<path d="M111.32 127C112.268 127 113.037 126.231 113.037 125.284C113.037 124.336 112.268 123.567 111.32 123.567C110.373 123.567 109.604 124.336 109.604 125.284C109.604 126.231 110.373 127 111.32 127Z" fill="white"/>
<path d="M125.021 127C125.969 127 126.737 126.231 126.737 125.284C126.737 124.336 125.969 123.567 125.021 123.567C124.073 123.567 123.305 124.336 123.305 125.284C123.305 126.231 124.073 127 125.021 127Z" fill="white"/>
</svg>
