<svg width="39" height="39" viewBox="0 0 39 39" fill="none" xmlns="http://www.w3.org/2000/svg">
<rect x="2.52173" y="2.39429" width="33.5202" height="33.5202" rx="7.1829" fill="url(#paint0_radial_2_363)"/>
<rect x="2.52173" y="2.39429" width="33.5202" height="33.5202" rx="7.1829" fill="url(#paint1_radial_2_363)"/>
<rect x="2.52173" y="2.39429" width="33.5202" height="33.5202" rx="7.1829" fill="url(#paint2_radial_2_363)"/>
<path d="M27.6619 12.57C27.6619 13.5618 26.8579 14.3658 25.8661 14.3658C24.8744 14.3658 24.0704 13.5618 24.0704 12.57C24.0704 11.5783 24.8744 10.7743 25.8661 10.7743C26.8579 10.7743 27.6619 11.5783 27.6619 12.57Z" fill="white"/>
<path fill-rule="evenodd" clip-rule="evenodd" d="M19.2818 25.1401C22.5876 25.1401 25.2676 22.4602 25.2676 19.1544C25.2676 15.8485 22.5876 13.1686 19.2818 13.1686C15.976 13.1686 13.2961 15.8485 13.2961 19.1544C13.2961 22.4602 15.976 25.1401 19.2818 25.1401ZM19.2818 22.7458C21.2653 22.7458 22.8733 21.1379 22.8733 19.1544C22.8733 17.1709 21.2653 15.5629 19.2818 15.5629C17.2983 15.5629 15.6904 17.1709 15.6904 19.1544C15.6904 21.1379 17.2983 22.7458 19.2818 22.7458Z" fill="white"/>
<path fill-rule="evenodd" clip-rule="evenodd" d="M7.3103 18.6755C7.3103 14.6527 7.3103 12.6413 8.09319 11.1048C8.78184 9.75324 9.88068 8.6544 11.2322 7.96575C12.7687 7.18286 14.7801 7.18286 18.8029 7.18286H19.7607C23.7835 7.18286 25.7949 7.18286 27.3314 7.96575C28.6829 8.6544 29.7818 9.75324 30.4704 11.1048C31.2533 12.6413 31.2533 14.6527 31.2533 18.6755V19.6332C31.2533 23.656 31.2533 25.6674 30.4704 27.2039C29.7818 28.5555 28.6829 29.6543 27.3314 30.343C25.7949 31.1259 23.7835 31.1259 19.7607 31.1259H18.8029C14.7801 31.1259 12.7687 31.1259 11.2322 30.343C9.88068 29.6543 8.78184 28.5555 8.09319 27.2039C7.3103 25.6674 7.3103 23.656 7.3103 19.6332V18.6755ZM18.8029 9.57716H19.7607C21.8116 9.57716 23.2058 9.57902 24.2834 9.66707C25.3331 9.75283 25.8699 9.90829 26.2444 10.0991C27.1454 10.5582 27.878 11.2907 28.3371 12.1918C28.5279 12.5662 28.6833 13.1031 28.7691 14.1528C28.8571 15.2304 28.859 16.6246 28.859 18.6755V19.6332C28.859 21.6841 28.8571 23.0783 28.7691 24.156C28.6833 25.2057 28.5279 25.7425 28.3371 26.1169C27.878 27.018 27.1454 27.7505 26.2444 28.2096C25.8699 28.4004 25.3331 28.5559 24.2834 28.6417C23.2058 28.7297 21.8116 28.7316 19.7607 28.7316H18.8029C16.752 28.7316 15.3578 28.7297 14.2802 28.6417C13.2305 28.5559 12.6937 28.4004 12.3192 28.2096C11.4182 27.7505 10.6856 27.018 10.2265 26.1169C10.0357 25.7425 9.88028 25.2057 9.79451 24.156C9.70646 23.0783 9.7046 21.6841 9.7046 19.6332V18.6755C9.7046 16.6246 9.70646 15.2304 9.79451 14.1528C9.88028 13.1031 10.0357 12.5662 10.2265 12.1918C10.6856 11.2907 11.4182 10.5582 12.3192 10.0991C12.6937 9.90829 13.2305 9.75283 14.2802 9.66707C15.3578 9.57902 16.752 9.57716 18.8029 9.57716Z" fill="white"/>
<defs>
<radialGradient id="paint0_radial_2_363" cx="0" cy="0" r="1" gradientUnits="userSpaceOnUse" gradientTransform="translate(14.4932 27.5344) rotate(-55.3758) scale(30.5508)">
<stop stop-color="#B13589"/>
<stop offset="0.79309" stop-color="#C62F94"/>
<stop offset="1" stop-color="#8A3AC8"/>
</radialGradient>
<radialGradient id="paint1_radial_2_363" cx="0" cy="0" r="1" gradientUnits="userSpaceOnUse" gradientTransform="translate(13.2961 37.1116) rotate(-65.1363) scale(27.0487)">
<stop stop-color="#E0E8B7"/>
<stop offset="0.444662" stop-color="#FB8A2E"/>
<stop offset="0.71474" stop-color="#E2425C"/>
<stop offset="1" stop-color="#E2425C" stop-opacity="0"/>
</radialGradient>
<radialGradient id="paint2_radial_2_363" cx="0" cy="0" r="1" gradientUnits="userSpaceOnUse" gradientTransform="translate(0.726006 3.59144) rotate(-8.1301) scale(46.5582 9.95832)">
<stop offset="0.156701" stop-color="#406ADC"/>
<stop offset="0.467799" stop-color="#6A45BE"/>
<stop offset="1" stop-color="#6A45BE" stop-opacity="0"/>
</radialGradient>
</defs>
</svg>
