<svg width="39" height="39" viewBox="0 0 39 39" fill="none" xmlns="http://www.w3.org/2000/svg">
<circle cx="19.1904" cy="19.1904" r="19.1904" fill="#0A66C2"/>
<path d="M28.4655 28.4708V28.47H28.4701V21.8147C28.4701 18.5588 27.7692 16.0508 23.9629 16.0508C22.1331 16.0508 20.9051 17.0549 20.4038 18.0069H20.3509V16.3547H16.7419V28.47H20.4998V22.471C20.4998 20.8914 20.7993 19.3641 22.7553 19.3641C24.6827 19.3641 24.7114 21.1667 24.7114 22.5723V28.4708H28.4655Z" fill="white"/>
<path d="M10.6226 16.3535H14.385V28.4688H10.6226V16.3535Z" fill="white"/>
<path d="M12.5024 10.3232C11.2994 10.3232 10.3232 11.2994 10.3232 12.5024C10.3232 13.7054 11.2994 14.7019 12.5024 14.7019C13.7054 14.7019 14.6815 13.7054 14.6815 12.5024C14.6807 11.2994 13.7046 10.3232 12.5024 10.3232V10.3232Z" fill="white"/>
</svg>
