<svg width="149" height="148" viewBox="0 0 149 148" fill="none" xmlns="http://www.w3.org/2000/svg">
<circle cx="74.99" cy="74" r="74" fill="#FF1C96"/>
<g clip-path="url(#clip0_616_1436)">
<path d="M54.5121 103.001C52.2818 103.001 50.1357 102.124 48.4996 100.486C46.3276 98.312 45.497 95.239 46.2776 92.2661C46.2876 92.2279 58.9418 52.6051 58.9418 52.6051C60.3384 47.4155 65.5547 44.1615 70.8456 45.1908C79.0024 46.7774 86.4363 50.7394 92.3438 56.6488C98.251 62.5578 102.212 69.9945 103.8 78.1546C104.831 83.4543 101.573 88.6734 96.3772 90.0662C96.3772 90.0662 56.7493 102.706 56.7105 102.716C55.979 102.907 55.2408 103.001 54.5121 103.001V103.001ZM56.1373 100.524H56.1385H56.1373ZM50.6472 93.4683C50.3026 94.8509 50.6963 96.2737 51.7054 97.2839C52.713 98.2925 54.1324 98.6869 55.5123 98.345C55.5123 98.345 95.1305 85.7087 95.1691 85.6985C98.0943 84.9337 99.9316 82 99.3519 79.0198C96.4897 64.3063 84.6862 52.4991 69.9805 49.6386C67.0059 49.0604 64.0755 50.8954 63.3083 53.8167C63.2984 53.855 63.2873 53.8931 63.2752 53.9307L50.6472 93.4683ZM90.5947 82.3464C91.8229 82.1074 92.6248 80.918 92.3859 79.6897C91.279 74.0018 88.5173 68.8186 84.3991 64.7004C80.2808 60.5821 75.0979 57.8207 69.4106 56.7148C68.1821 56.4758 66.9931 57.2781 66.7543 58.5063C66.5155 59.7345 67.3175 60.9238 68.5457 61.1626C78.2551 63.0507 86.0482 70.844 87.938 80.5552C88.1486 81.6374 89.0968 82.3885 90.1595 82.3885C90.303 82.3885 90.4486 82.3747 90.5947 82.3464ZM72.4887 82.5014C70.9246 82.5007 69.6561 83.7681 69.6554 85.3322C69.6547 86.8963 70.9221 88.1648 72.4862 88.1655H72.4886C74.0527 88.1662 75.3212 86.8988 75.3219 85.3347C75.3226 83.7706 74.0552 82.5021 72.4911 82.5014C72.4903 82.5014 72.4895 82.5014 72.4887 82.5014V82.5014ZM68.7529 67.888C67.1888 67.8873 65.9203 69.1547 65.9196 70.7188C65.9189 72.2829 67.1863 73.5514 68.7504 73.5521H68.7528C70.3169 73.5528 71.5854 72.2854 71.5861 70.7213C71.5868 69.1572 70.3194 67.8887 68.7553 67.888C68.7545 67.888 68.7537 67.888 68.7529 67.888ZM78.6059 73.099C77.0419 73.0983 75.7733 74.3657 75.7726 75.9298C75.772 77.4939 77.0394 78.7624 78.6034 78.7631H78.6058C80.1699 78.7637 81.4384 77.4963 81.4391 75.9323C81.4398 74.3682 80.1724 73.0996 78.6083 73.099C78.6075 73.099 78.6067 73.099 78.6059 73.099V73.099ZM62.0692 85.4467C60.5052 85.446 59.2366 86.7134 59.2359 88.2775C59.2353 89.8416 60.5027 91.1101 62.0668 91.1108H62.0691C63.6332 91.1115 64.9018 89.8441 64.9024 88.28C64.9031 86.7159 63.6357 85.4474 62.0716 85.4467C62.0708 85.4467 62.07 85.4467 62.0692 85.4467Z" fill="white"/>
</g>
<defs>
<clipPath id="clip0_616_1436">
<rect width="58" height="58" fill="white" transform="translate(45.99 45)"/>
</clipPath>
</defs>
</svg>
