<svg width="39" height="39" viewBox="0 0 39 39" fill="none" xmlns="http://www.w3.org/2000/svg">
<circle cx="19.5636" cy="19.1544" r="16.7601" fill="#FFFA37"/>
<path fill-rule="evenodd" clip-rule="evenodd" d="M25.58 9.79924C24.4242 8.34265 22.5174 7.18286 19.5778 7.18286C17.0606 7.20765 12.0262 8.60083 12.0262 13.9752C12.0262 14.7601 12.0883 15.8113 12.1426 16.5854C12.0786 16.5668 11.9999 16.532 11.8753 16.4723L11.858 16.464C11.6375 16.3581 11.3023 16.1972 10.8362 16.1972C10.3653 16.1972 9.90999 16.3817 9.57196 16.6552C9.23597 16.927 8.94894 17.3449 8.94894 17.8501C8.94894 18.482 9.30458 18.9016 9.72044 19.1706C10.0898 19.4095 10.5556 19.5621 10.9243 19.6829L10.9607 19.6948C11.3554 19.8243 11.6446 19.9229 11.8441 20.0473C11.9993 20.144 12.0229 20.2052 12.0258 20.2634C12.0238 20.2717 12.019 20.2895 12.0087 20.3185C11.9874 20.3783 11.952 20.4591 11.9003 20.5602C11.797 20.7618 11.6465 21.0097 11.4675 21.2741C11.1063 21.8074 10.6655 22.3543 10.3362 22.6711C10.0114 22.9835 9.47843 23.3719 8.9212 23.6809C8.64486 23.8342 8.37463 23.9611 8.13289 24.0484C7.88334 24.1384 7.70047 24.1728 7.58747 24.1728C7.49803 24.1728 7.42061 24.1911 7.38682 24.1996C7.33933 24.2115 7.29018 24.2271 7.24156 24.2454C7.14512 24.2817 7.03018 24.336 6.91634 24.4126C6.69882 24.559 6.39502 24.8542 6.39502 25.3199C6.39502 25.563 6.45208 25.7687 6.55071 25.9472C6.63704 26.1035 6.74803 26.222 6.8119 26.2903L6.82138 26.3004L6.83906 26.3194C7.19035 26.6973 7.77184 26.9603 8.33634 27.1408C8.82139 27.2958 9.36371 27.4113 9.89215 27.4807C9.89962 27.5147 9.90742 27.5514 9.91596 27.5917L9.91871 27.6046C9.95198 27.7615 9.99605 27.9694 10.0609 28.161C10.1222 28.3418 10.2331 28.6091 10.4601 28.7995C10.7493 29.042 11.1275 29.0666 11.3742 29.0656C11.6391 29.0645 11.9484 29.0272 12.2418 28.9918L12.2668 28.9888C12.6797 28.939 13.1117 28.8877 13.5591 28.8877C14.3756 28.8877 14.899 29.2288 15.7201 29.7895L15.7257 29.7933C16.0101 29.9876 16.3285 30.205 16.6905 30.4189C17.9023 31.135 18.8868 31.1288 19.4448 31.1253C19.4816 31.1251 19.5166 31.1248 19.5496 31.1248C19.5826 31.1248 19.6177 31.1251 19.6548 31.1253C20.2137 31.1289 21.2244 31.1354 22.4368 30.4189C22.7988 30.205 23.1173 29.9876 23.4017 29.7933L23.4072 29.7895C24.2284 29.2288 24.7517 28.8877 25.5682 28.8877C26.0156 28.8877 26.4476 28.939 26.8605 28.9888L26.8855 28.9918C27.179 29.0272 27.4882 29.0645 27.7531 29.0656C27.9999 29.0666 28.3781 29.042 28.6672 28.7995C28.8943 28.6091 29.0052 28.3418 29.0664 28.161C29.1313 27.9694 29.1753 27.7616 29.2086 27.6047L29.2114 27.5917C29.2199 27.5514 29.2277 27.5147 29.2352 27.4807C29.7636 27.4113 30.3059 27.2958 30.791 27.1408C31.3555 26.9603 31.9371 26.6973 32.2883 26.3193L32.306 26.3004L32.3154 26.2903C32.3793 26.2221 32.4903 26.1035 32.5766 25.9472C32.6753 25.7687 32.7323 25.563 32.7323 25.3199C32.7323 24.8542 32.4285 24.559 32.211 24.4126C32.0972 24.336 31.9822 24.2817 31.8858 24.2454C31.8372 24.2271 31.788 24.2115 31.7405 24.1996C31.7067 24.1911 31.6293 24.1728 31.5399 24.1728C31.4269 24.1728 31.244 24.1384 30.9945 24.0484C30.7527 23.9611 30.4825 23.8342 30.2061 23.6809C29.6489 23.3719 29.1159 22.9835 28.7912 22.6711C28.4619 22.3543 28.0211 21.8074 27.6599 21.2741C27.4808 21.0097 27.3303 20.7618 27.2271 20.5602C27.1753 20.4591 27.1399 20.3783 27.1187 20.3185C27.1083 20.2895 27.1036 20.2717 27.1016 20.2634C27.1045 20.2052 27.128 20.144 27.2833 20.0472C27.4827 19.9229 27.7719 19.8243 28.1666 19.6948L28.2031 19.6829C28.5718 19.5621 29.0375 19.4095 29.4069 19.1706C29.8228 18.9016 30.1784 18.482 30.1784 17.8501C30.1784 17.3449 29.8914 16.927 29.5554 16.6552C29.2174 16.3817 28.762 16.1972 28.2911 16.1972C27.825 16.1972 27.4898 16.3581 27.2694 16.464L27.2521 16.4723C27.1274 16.532 27.0488 16.5668 26.9848 16.5854C27.0391 15.8113 27.1012 14.7601 27.1012 13.9752C27.1012 12.9097 26.7138 11.2281 25.58 9.79924ZM14.5156 10.5022C13.5566 11.7027 13.228 13.1281 13.228 13.9752C13.228 14.7607 13.2945 15.8518 13.3507 16.6342C13.3693 16.8941 13.316 17.197 13.0891 17.4374C12.8594 17.6808 12.5469 17.7598 12.2678 17.7598C11.8647 17.7598 11.5581 17.6123 11.362 17.518L11.3392 17.507C11.1204 17.4021 11.0053 17.3533 10.8362 17.3533C10.6824 17.3533 10.4945 17.4194 10.3455 17.54C10.1946 17.6621 10.1508 17.7817 10.1508 17.8501C10.1508 17.9894 10.2022 18.089 10.391 18.2111C10.6141 18.3554 10.9319 18.4639 11.3486 18.6005L11.3849 18.6124C11.7309 18.7258 12.1594 18.8662 12.4976 19.077C12.8773 19.3136 13.228 19.6939 13.228 20.2798C13.228 20.4334 13.1855 20.5813 13.1457 20.6932C13.1024 20.8147 13.0439 20.943 12.9784 21.071C12.8472 21.3274 12.6696 21.617 12.4745 21.9052C12.0873 22.4769 11.5951 23.0951 11.186 23.4886C10.7725 23.8865 10.1505 24.3336 9.52148 24.6825C9.20468 24.8582 8.87394 25.0158 8.55501 25.1309C8.26953 25.2339 7.96184 25.3146 7.66668 25.3272C7.65932 25.3303 7.6512 25.334 7.64268 25.3383C7.62908 25.3451 7.61635 25.3525 7.60525 25.36L7.59956 25.3639C7.60068 25.3719 7.60195 25.3778 7.60301 25.3819C7.60537 25.3912 7.60818 25.3978 7.61195 25.4046C7.62352 25.4255 7.64177 25.4489 7.7156 25.528L7.73497 25.5487C7.86797 25.6918 8.19573 25.8775 8.71528 26.0436C9.21009 26.2017 9.79521 26.316 10.348 26.3684C10.6246 26.3946 10.784 26.5674 10.8515 26.6606C10.921 26.7564 10.9607 26.8576 10.9839 26.9248C11.0288 27.0548 11.0627 27.215 11.0895 27.3413L11.0935 27.3605C11.1301 27.5326 11.162 27.6798 11.2037 27.8028C11.2184 27.8463 11.232 27.8794 11.2437 27.9038C11.2701 27.9068 11.3105 27.9097 11.3691 27.9094C11.6233 27.9084 11.8778 27.8705 12.1296 27.8401C12.5326 27.7916 13.0312 27.7315 13.5591 27.7315C14.7836 27.7315 15.5915 28.2836 16.372 28.8169L16.4158 28.8468C16.7046 29.044 16.9941 29.2415 17.3196 29.4338C18.2369 29.9759 18.9348 29.972 19.4447 29.9691C19.4806 29.9689 19.5156 29.9687 19.5496 29.9687C19.5833 29.9687 19.6181 29.9689 19.6538 29.9691C20.1693 29.9719 20.8907 29.9758 21.8078 29.4338C22.1333 29.2415 22.4227 29.044 22.7115 28.8468L22.7553 28.8169C23.5358 28.2836 24.3438 27.7315 25.5682 27.7315C26.0961 27.7315 26.5948 27.7916 26.9977 27.8401L27.0099 27.8416C27.3357 27.8809 27.5742 27.9087 27.7582 27.9094C27.8168 27.9097 27.8573 27.9068 27.8837 27.9038C27.8953 27.8794 27.9089 27.8463 27.9237 27.8028C27.9653 27.6798 27.9973 27.5326 28.0338 27.3605L28.0379 27.3413C28.0646 27.2149 28.0985 27.0548 28.1435 26.9248C28.1667 26.8576 28.2064 26.7564 28.2758 26.6606C28.3433 26.5674 28.5027 26.3946 28.7793 26.3684C29.3321 26.316 29.9172 26.2017 30.4121 26.0436C30.9316 25.8775 31.2594 25.6919 31.3924 25.5488L31.4117 25.528C31.4855 25.4489 31.5038 25.4255 31.5154 25.4046C31.5192 25.3978 31.522 25.3912 31.5243 25.3819C31.5254 25.3778 31.5267 25.3719 31.5278 25.3639L31.5221 25.36C31.511 25.3525 31.4983 25.3451 31.4847 25.3383C31.4761 25.334 31.468 25.3303 31.4607 25.3272C31.1655 25.3146 30.8578 25.2339 30.5723 25.1309C30.2534 25.0158 29.9227 24.8582 29.6059 24.6825C28.9768 24.3336 28.3549 23.8865 27.9413 23.4886C27.5323 23.0951 27.0401 22.4769 26.6529 21.9052C26.4577 21.617 26.2802 21.3274 26.1489 21.071C26.0834 20.943 26.0249 20.8147 25.9817 20.6932C25.9418 20.5813 25.8993 20.4334 25.8993 20.2798C25.8993 19.6939 26.2501 19.3136 26.6297 19.077C26.9679 18.8662 27.3965 18.7258 27.7425 18.6124L27.7788 18.6005C28.1954 18.4639 28.5132 18.3554 28.7363 18.2111C28.9252 18.089 28.9766 17.9894 28.9766 17.8501C28.9766 17.7817 28.9328 17.6621 28.7818 17.54C28.6328 17.4194 28.445 17.3533 28.2911 17.3533C28.122 17.3533 28.007 17.4021 27.7881 17.507L27.7654 17.518C27.5692 17.6123 27.2627 17.7598 26.8596 17.7598C26.5804 17.7598 26.2679 17.6808 26.0382 17.4374C25.8113 17.197 25.758 16.8941 25.7767 16.6342C25.8328 15.8518 25.8993 14.7607 25.8993 13.9752C25.8993 13.1259 25.5766 11.7003 24.6247 10.5008C23.6948 9.32892 22.1403 8.33901 19.5778 8.33901C17.0149 8.33901 15.4527 9.32921 14.5156 10.5022Z" fill="black"/>
<path fill-rule="evenodd" clip-rule="evenodd" d="M14.5154 10.5023C13.5564 11.7028 13.2278 13.1282 13.2278 13.9753C13.2278 14.7608 13.2943 15.8519 13.3505 16.6343C13.3691 16.8942 13.3158 17.1971 13.0889 17.4375C12.8592 17.6809 12.5467 17.7599 12.2676 17.7599C11.8645 17.7599 11.5579 17.6124 11.3618 17.5181L11.339 17.5071C11.1202 17.4022 11.0051 17.3534 10.836 17.3534C10.6822 17.3534 10.4943 17.4196 10.3453 17.5401C10.1944 17.6622 10.1506 17.7818 10.1506 17.8502C10.1506 17.9895 10.202 18.0891 10.3908 18.2112C10.6139 18.3555 10.9317 18.464 11.3484 18.6006L11.3847 18.6125C11.7307 18.7259 12.1592 18.8663 12.4974 19.0771C12.8771 19.3137 13.2278 19.694 13.2278 20.2799C13.2278 20.4335 13.1853 20.5814 13.1455 20.6933C13.1022 20.8148 13.0437 20.9431 12.9782 21.0711C12.847 21.3275 12.6694 21.6171 12.4743 21.9053C12.0871 22.477 11.5949 23.0952 11.1858 23.4887C10.7723 23.8866 10.1503 24.3337 9.52128 24.6826C9.20449 24.8583 8.87374 25.0159 8.55481 25.131C8.26933 25.234 7.96165 25.3147 7.66648 25.3273C7.65913 25.3304 7.651 25.3341 7.64249 25.3384C7.62888 25.3452 7.61615 25.3526 7.60505 25.3601L7.59937 25.364C7.60048 25.372 7.60175 25.3779 7.60281 25.382C7.60518 25.3913 7.60798 25.3979 7.61175 25.4047C7.62332 25.4256 7.64157 25.449 7.7154 25.5281L7.73477 25.5489C7.86777 25.6919 8.19553 25.8776 8.71508 26.0437C9.20989 26.2018 9.79501 26.3161 10.3478 26.3685C10.6244 26.3947 10.7838 26.5676 10.8513 26.6607C10.9208 26.7565 10.9605 26.8577 10.9837 26.9249C11.0286 27.0549 11.0625 27.2151 11.0893 27.3414L11.0933 27.3606C11.1299 27.5327 11.1618 27.6799 11.2035 27.8029C11.2182 27.8464 11.2318 27.8795 11.2435 27.9039C11.2699 27.9069 11.3103 27.9098 11.3689 27.9095C11.6231 27.9085 11.8776 27.8706 12.1294 27.8403C12.5324 27.7917 13.031 27.7316 13.5589 27.7316C14.7834 27.7316 15.5913 28.2837 16.3718 28.817L16.4156 28.8469C16.7044 29.0441 16.9939 29.2416 17.3194 29.4339C18.2367 29.976 18.9346 29.9721 19.4445 29.9692C19.4804 29.969 19.5154 29.9688 19.5494 29.9688C19.5831 29.9688 19.6179 29.969 19.6536 29.9692C20.1691 29.972 20.8905 29.9759 21.8076 29.4339C22.1331 29.2416 22.4225 29.0441 22.7113 28.8469L22.7551 28.817C23.5356 28.2837 24.3436 27.7316 25.568 27.7316C26.0959 27.7316 26.5946 27.7917 26.9975 27.8403L27.0097 27.8417C27.3355 27.881 27.574 27.9088 27.758 27.9095C27.8166 27.9098 27.8571 27.9069 27.8835 27.9039C27.8952 27.8795 27.9087 27.8464 27.9235 27.8029C27.9651 27.6799 27.9971 27.5327 28.0336 27.3606L28.0377 27.3414C28.0644 27.215 28.0984 27.0549 28.1433 26.9249C28.1665 26.8577 28.2062 26.7565 28.2756 26.6607C28.3431 26.5675 28.5025 26.3947 28.7791 26.3685C29.3319 26.3161 29.9171 26.2018 30.4119 26.0437C30.9314 25.8776 31.2592 25.692 31.3922 25.5489L31.4115 25.5281C31.4853 25.449 31.5036 25.4256 31.5152 25.4047C31.519 25.3979 31.5218 25.3913 31.5241 25.382C31.5252 25.3779 31.5265 25.372 31.5276 25.364L31.5219 25.3601C31.5108 25.3526 31.4981 25.3452 31.4845 25.3384C31.4759 25.3341 31.4678 25.3304 31.4605 25.3273C31.1653 25.3147 30.8576 25.234 30.5721 25.131C30.2532 25.0159 29.9225 24.8583 29.6057 24.6826C28.9766 24.3337 28.3547 23.8866 27.9411 23.4887C27.5321 23.0952 27.0399 22.477 26.6527 21.9053C26.4575 21.6171 26.28 21.3275 26.1487 21.0711C26.0832 20.9431 26.0247 20.8148 25.9815 20.6933C25.9416 20.5814 25.8991 20.4335 25.8991 20.2799C25.8991 19.694 26.2499 19.3137 26.6295 19.0771C26.9677 18.8663 27.3963 18.7259 27.7423 18.6125L27.7786 18.6006C28.1952 18.464 28.513 18.3555 28.7361 18.2112C28.925 18.0891 28.9764 17.9895 28.9764 17.8502C28.9764 17.7818 28.9326 17.6622 28.7816 17.5401C28.6326 17.4196 28.4448 17.3534 28.2909 17.3534C28.1218 17.3534 28.0068 17.4022 27.7879 17.5071L27.7652 17.5181C27.569 17.6124 27.2625 17.7599 26.8594 17.7599C26.5802 17.7599 26.2677 17.6809 26.038 17.4375C25.8111 17.1971 25.7578 16.8942 25.7765 16.6343C25.8326 15.8519 25.8991 14.7608 25.8991 13.9753C25.8991 13.126 25.5764 11.7004 24.6245 10.5009C23.6946 9.32902 22.1402 8.33911 19.5776 8.33911C17.0147 8.33911 15.4525 9.32932 14.5154 10.5023Z" fill="white"/>
</svg>
