<svg width="97" height="96" viewBox="0 0 97 96" fill="none" xmlns="http://www.w3.org/2000/svg">
<circle cx="48.99" cy="48" r="48" fill="#FF1C96"/>
<g clip-path="url(#clip0_616_1435)">
<path d="M57.5451 39.7712C57.5454 39.7721 57.5458 39.7731 57.5462 39.774C57.5477 39.7778 57.5405 39.7609 57.5451 39.7712ZM59.8997 38.851L59.9001 38.8519C59.9038 38.8602 59.8971 38.8445 59.8997 38.851ZM53.8051 32.6902C50.585 31.3272 46.8034 31.442 43.5153 32.7385C37.1101 35.1423 33.6051 42.4627 36.3563 48.715C36.3563 48.715 36.9247 50.0745 36.9341 50.0941C34.8164 55.2011 39.0873 60.9897 44.823 60.6215C45.6226 60.5788 46.3657 61.0427 46.6598 61.7467C47.4545 63.6496 49.6857 64.5792 51.6336 63.8189L60.9949 60.1648C62.9428 59.4045 63.8809 57.2378 63.0862 55.3349L62.6807 54.3639C62.3846 53.655 62.2457 52.911 62.2678 52.1524C62.295 51.2179 62.2961 49.7402 62.1464 48.0074C62.0874 47.3252 61.4723 46.8148 60.7724 46.8673C60.0725 46.9196 59.5529 47.5152 59.6118 48.1974C59.7516 49.8154 59.7507 51.1932 59.7253 52.0642C59.6932 53.1692 59.8951 54.2522 60.3256 55.2831L60.7312 56.2541C60.9961 56.8884 60.6833 57.6106 60.034 57.8641L50.6727 61.5181C50.0234 61.7716 49.2797 61.4617 49.0148 60.8274C48.3081 59.1353 46.5553 58.0467 44.6653 58.1477C38.5974 58.3843 36.7056 50.3851 42.2651 48.0767C42.7536 47.8894 43.3126 47.9015 43.8009 48.1103C44.2744 48.3127 44.634 48.6743 44.8134 49.1284C45.1846 50.0681 44.7093 51.1362 43.7538 51.5091C43.1035 51.763 42.7914 52.4838 43.0567 53.1191C43.322 53.7544 44.0643 54.0637 44.7146 53.8098C45.8015 53.3856 46.656 52.5756 47.1206 51.529C47.5846 50.4839 47.608 49.3206 47.1864 48.2533C46.3296 45.9841 43.5597 44.9045 41.2928 45.7805C40.2561 46.1928 39.3403 46.8052 38.6079 47.5436C36.5729 42.6503 39.4783 36.8918 44.4761 35.0392C49.5339 33.0014 55.5381 34.6805 57.545 39.7711C57.5456 39.7726 57.546 39.7734 57.5461 39.774C58.2686 41.5521 57.2583 43.394 56.2703 44.6058C54.9106 46.2737 52.8016 47.7757 50.6287 48.6239C49.9784 48.8777 49.6663 49.5985 49.9316 50.2339C50.1969 50.8692 50.9392 51.1784 51.5895 50.9246C56.3171 49.1671 61.9983 43.7973 59.9001 38.8518L59.8997 38.8509C58.73 36.0193 56.6159 33.8722 53.8051 32.6902V32.6902ZM41.2929 45.7805C41.2993 45.778 41.2815 45.7846 41.2929 45.7805V45.7805ZM57.5331 54.8268C57.2677 54.1915 56.5255 53.8822 55.8751 54.1361L50.6351 56.1814C49.0982 56.852 50.0097 59.0313 51.596 58.4821L56.836 56.4368C57.4863 56.1829 57.7984 55.4621 57.5331 54.8268Z" fill="white"/>
</g>
<defs>
<clipPath id="clip0_616_1435">
<rect width="37.731" height="36.8246" fill="white" transform="matrix(0.931549 -0.363616 0.38537 0.922762 24 37.7197)"/>
</clipPath>
</defs>
</svg>
