<svg width="29" height="29" viewBox="0 0 29 29" fill="none" xmlns="http://www.w3.org/2000/svg">
<path d="M7.71161 17.7971C7.85212 16.6336 8.32929 15.9822 9.2285 15.3145C10.5151 14.4101 12.1222 14.9217 12.1222 14.9217V11.8868C12.513 11.8768 12.9038 11.9 13.2903 11.956V15.8616C13.2903 15.8616 11.6836 15.35 10.397 16.2549C9.49831 16.9222 9.02016 17.574 8.88013 18.7375C8.87574 19.3692 8.9943 20.1951 9.54027 20.9091C9.40528 20.8399 9.26769 20.7611 9.1275 20.6725C7.92482 19.8649 7.70575 18.6533 7.71161 17.7971ZM19.9263 6.2753C19.0412 5.30545 18.7065 4.32624 18.5855 3.63837H19.6989C19.6989 3.63837 19.4769 5.44199 21.0948 7.21569L21.1172 7.23954C20.6812 6.96526 20.2813 6.6415 19.9263 6.2753ZM25.2898 9.02493V12.852C25.2898 12.852 23.869 12.7963 22.8176 12.5288C21.3495 12.1547 20.4059 11.581 20.4059 11.581C20.4059 11.581 19.754 11.1718 19.7013 11.1433V19.0461C19.7013 19.4862 19.5808 20.5851 19.2134 21.5016C18.7338 22.7006 17.9937 23.4876 17.8575 23.6485C17.8575 23.6485 16.9574 24.7123 15.3692 25.4287C13.9377 26.075 12.6809 26.0586 12.3052 26.075C12.3052 26.075 10.1326 26.161 8.17755 24.8905C7.75479 24.6104 7.36016 24.2933 6.99878 23.9431L7.00854 23.9501C8.96405 25.2206 11.1362 25.1346 11.1362 25.1346C11.5124 25.1182 12.7692 25.1346 14.2002 24.4883C15.7869 23.7719 16.6885 22.7081 16.6885 22.7081C16.8232 22.5472 17.5668 21.7602 18.0444 20.5608C18.4108 19.6447 18.5323 18.5453 18.5323 18.1053V10.2033C18.585 10.2323 19.2364 10.6415 19.2364 10.6415C19.2364 10.6415 20.1805 11.2158 21.6486 11.5894C22.7005 11.8569 24.1208 11.9125 24.1208 11.9125V8.91364C24.6067 9.02259 25.0209 9.05205 25.2898 9.02493Z" fill="#EE1D52"/>
<path d="M24.1213 8.91363V11.9116C24.1213 11.9116 22.701 11.8559 21.6491 11.5884C20.181 11.2143 19.2369 10.6406 19.2369 10.6406C19.2369 10.6406 18.5855 10.2314 18.5329 10.2024V18.1062C18.5329 18.5462 18.4123 19.6456 18.0449 20.5617C17.5653 21.7611 16.8252 22.5482 16.6891 22.709C16.6891 22.709 15.7884 23.7729 14.2008 24.4893C12.7697 25.1355 11.5129 25.1192 11.1367 25.1355C11.1367 25.1355 8.96458 25.2216 7.00907 23.951L6.99931 23.944C6.79285 23.7441 6.59851 23.533 6.41724 23.3118C5.79321 22.551 5.4107 21.6513 5.31458 21.3945C5.31442 21.3934 5.31442 21.3923 5.31458 21.3913C5.15992 20.9451 4.83497 19.8738 4.87937 18.8362C4.95793 17.0054 5.60196 15.8817 5.77223 15.6002C6.2232 14.8325 6.80975 14.1457 7.50575 13.5702C8.11994 13.0737 8.8161 12.6786 9.56568 12.4012C10.376 12.0755 11.2437 11.9009 12.1223 11.8868V14.9217C12.1223 14.9217 10.5151 14.412 9.22903 15.3145C8.32982 15.9822 7.85265 16.6336 7.71214 17.7971C7.70628 18.6533 7.92535 19.8649 9.12706 20.673C9.26725 20.7618 9.40483 20.8407 9.53982 20.9096C9.74976 21.1825 10.0053 21.4203 10.2961 21.6134C11.47 22.3564 12.4536 22.4083 13.7114 21.9257C14.5501 21.6031 15.1814 20.8759 15.4742 20.0702C15.6581 19.567 15.6557 19.0606 15.6557 18.5369V3.63837H18.5831C18.7041 4.32624 19.0388 5.30545 19.9239 6.2753C20.2789 6.6415 20.6788 6.96526 21.1148 7.23954C21.2436 7.37281 21.9023 8.0317 22.7478 8.43619C23.1851 8.64527 23.6459 8.80547 24.1213 8.91363Z" fill="#F5F5F5"/>
<path d="M4.14941 20.4626V20.4649L4.22205 20.6618C4.21371 20.6389 4.18672 20.5692 4.14941 20.4626Z" fill="#69C9D0"/>
<path d="M9.56567 12.4012C8.81609 12.6787 8.11993 13.0737 7.50574 13.5703C6.80951 14.1471 6.22312 14.8353 5.77271 15.6045C5.60244 15.885 4.9584 17.0097 4.87985 18.8404C4.83545 19.8781 5.1604 20.9494 5.31506 21.3955C5.31489 21.3966 5.31489 21.3977 5.31506 21.3988C5.41264 21.6532 5.79369 22.5529 6.41772 23.3161C6.59899 23.5373 6.79333 23.7484 6.99979 23.9483C6.33829 23.5098 5.74833 22.9797 5.24919 22.3752C4.63053 21.6209 4.24899 20.7306 4.14946 20.4678C4.14934 20.4659 4.14934 20.464 4.14946 20.4622V20.4589C3.99431 20.0132 3.66839 18.9414 3.71376 17.9024C3.79232 16.0716 4.43635 14.9479 4.60663 14.6664C5.0569 13.8972 5.64331 13.2089 6.33966 12.6323C6.95372 12.1355 7.64991 11.7404 8.39958 11.4632C8.86719 11.2772 9.35432 11.1401 9.85256 11.054C10.6034 10.9284 11.3703 10.9175 12.1247 11.0218V11.8869C11.2453 11.9007 10.3768 12.0752 9.56567 12.4012Z" fill="#69C9D0"/>
<path d="M18.5853 3.63843H15.6579V18.5374C15.6579 19.0611 15.6579 19.5662 15.4764 20.0707C15.1807 20.876 14.5518 21.6032 13.7136 21.9258C12.4553 22.4103 11.4716 22.3565 10.2982 21.6134C10.0069 21.4212 9.75077 21.1842 9.54004 20.912C10.5398 21.4231 11.4346 21.4142 12.5431 20.9878C13.3808 20.6651 14.0107 19.9379 14.3054 19.1322C14.4898 18.6291 14.4874 18.1226 14.4874 17.5994V2.69757H18.5296C18.5296 2.69757 18.4843 3.06793 18.5853 3.63843ZM24.121 8.0846V8.9137C23.6465 8.80537 23.1864 8.64517 22.75 8.43626C21.9045 8.03176 21.2458 7.37288 21.117 7.2396C21.2665 7.33366 21.4216 7.41922 21.5815 7.49586C22.6095 7.9878 23.6219 8.13464 24.121 8.0846Z" fill="#69C9D0"/>
</svg>
