<svg width="39" height="39" viewBox="0 0 39 39" fill="none" xmlns="http://www.w3.org/2000/svg">
<path d="M10.8084 23.6949C10.9955 22.1459 11.6308 21.2786 12.828 20.3896C14.5409 19.1855 16.6807 19.8666 16.6807 19.8666V15.826C17.2008 15.8127 17.7212 15.8436 18.2358 15.9182V21.118C18.2358 21.118 16.0967 20.4369 14.3837 21.6416C13.1872 22.53 12.5506 23.3979 12.3642 24.9469C12.3583 25.788 12.5162 26.8875 13.2431 27.8382C13.0633 27.746 12.8802 27.641 12.6935 27.5231C11.0923 26.4479 10.8006 24.8348 10.8084 23.6949ZM27.0707 8.355C25.8924 7.06375 25.4468 5.76006 25.2857 4.84424H26.768C26.768 4.84424 26.4725 7.24555 28.6265 9.60701L28.6564 9.63876C28.0758 9.27359 27.5434 8.84254 27.0707 8.355ZM34.2116 12.0158V17.111C34.2116 17.111 32.32 17.0369 30.9202 16.6808C28.9656 16.1828 27.7093 15.4188 27.7093 15.4188C27.7093 15.4188 26.8414 14.8741 26.7713 14.8361V25.3578C26.7713 25.9436 26.6108 27.4067 26.1217 28.627C25.4832 30.2233 24.4977 31.2711 24.3165 31.4853C24.3165 31.4853 23.118 32.9017 21.0036 33.8555C19.0978 34.7159 17.4244 34.6941 16.9242 34.7159C16.9242 34.7159 14.0317 34.8304 11.4288 33.1389C10.8659 32.766 10.3405 32.3437 9.85938 31.8775L9.87237 31.8868C12.4759 33.5784 15.3678 33.4639 15.3678 33.4639C15.8687 33.4421 17.542 33.4639 19.4472 32.6034C21.5597 31.6496 22.7601 30.2333 22.7601 30.2333C22.9394 30.0191 23.9294 28.9713 24.5653 27.3743C25.0531 26.1547 25.2149 24.691 25.2149 24.1052V13.5847C25.285 13.6233 26.1522 14.1681 26.1522 14.1681C26.1522 14.1681 27.4092 14.9326 29.3638 15.4301C30.7643 15.7862 32.6552 15.8603 32.6552 15.8603V11.8676C33.3022 12.0127 33.8537 12.0519 34.2116 12.0158Z" fill="#EE1D52"/>
<path d="M32.6558 11.8676V15.859C32.6558 15.859 30.7648 15.7849 29.3643 15.4288C27.4097 14.9307 26.1528 14.1668 26.1528 14.1668C26.1528 14.1668 25.2856 13.6221 25.2154 13.5835V24.1064C25.2154 24.6922 25.055 26.1559 24.5658 27.3756C23.9273 28.9725 22.9419 30.0203 22.7607 30.2345C22.7607 30.2345 21.5615 31.6509 19.4478 32.6047C17.5425 33.4651 15.8692 33.4433 15.3684 33.4651C15.3684 33.4651 12.4764 33.5796 9.87291 31.8881L9.85992 31.8787C9.58504 31.6126 9.3263 31.3315 9.08497 31.037C8.25415 30.0241 7.74488 28.8262 7.61691 28.4844C7.61669 28.483 7.61669 28.4815 7.61691 28.4801C7.41099 27.8861 6.97837 26.4598 7.03748 25.0783C7.14206 22.6408 7.99951 21.1448 8.22622 20.77C8.82663 19.7479 9.60754 18.8335 10.5342 18.0673C11.3519 17.4062 12.2788 16.8802 13.2767 16.5109C14.3556 16.0772 15.5108 15.8448 16.6805 15.826V19.8666C16.6805 19.8666 14.5408 19.188 12.8285 20.3896C11.6313 21.2786 10.996 22.1459 10.809 23.6949C10.8012 24.8348 11.0928 26.4479 12.6928 27.5238C12.8794 27.6421 13.0626 27.7471 13.2423 27.8388C13.5218 28.2021 13.862 28.5187 14.2492 28.7758C15.8121 29.7651 17.1216 29.8342 18.7962 29.1917C19.9129 28.7621 20.7534 27.794 21.1432 26.7213C21.3881 26.0514 21.3848 25.3771 21.3848 24.6798V4.84424H25.2823C25.4434 5.76006 25.889 7.06375 27.0674 8.355C27.5401 8.84254 28.0725 9.27359 28.653 9.63876C28.8245 9.8162 29.7015 10.6934 30.8272 11.232C31.4093 11.5103 32.0228 11.7236 32.6558 11.8676Z" fill="black"/>
<path d="M6.06567 27.2434V27.2465L6.16238 27.5086C6.15128 27.4781 6.11534 27.3854 6.06567 27.2434Z" fill="#69C9D0"/>
<path d="M13.2768 16.5108C12.2788 16.8801 11.352 17.4061 10.5343 18.0672C9.60731 18.8351 8.8266 19.7515 8.22694 20.7755C8.00023 21.149 7.14278 22.6463 7.0382 25.0838C6.97909 26.4653 7.41171 27.8916 7.61763 28.4856C7.6174 28.487 7.6174 28.4885 7.61763 28.4899C7.74754 28.8286 8.25487 30.0265 9.08569 31.0425C9.32702 31.337 9.58576 31.6181 9.86064 31.8843C8.97993 31.3005 8.19447 30.5946 7.52993 29.7899C6.70626 28.7856 6.19829 27.6002 6.06577 27.2504C6.06562 27.2479 6.06562 27.2454 6.06577 27.2429V27.2385C5.8592 26.6452 5.42528 25.2182 5.48569 23.8349C5.59028 21.3974 6.44773 19.9014 6.67443 19.5266C7.27391 18.5024 8.05465 17.586 8.98175 16.8183C9.7993 16.157 10.7262 15.6309 11.7243 15.2619C12.3469 15.0143 12.9954 14.8316 13.6588 14.7171C14.6584 14.5498 15.6795 14.5353 16.6839 14.6741V15.8259C15.5131 15.8443 14.3567 16.0767 13.2768 16.5108Z" fill="#69C9D0"/>
<path d="M25.2853 4.84419H21.3878V24.6804C21.3878 25.3777 21.3878 26.0501 21.1462 26.7218C20.7525 27.7939 19.9152 28.762 18.7992 29.1916C17.1239 29.8366 15.8144 29.765 14.2521 28.7757C13.8643 28.5198 13.5232 28.2043 13.2427 27.8419C14.5737 28.5223 15.765 28.5105 17.2409 27.9427C18.3562 27.5131 19.1948 26.545 19.5872 25.4723C19.8327 24.8024 19.8295 24.1281 19.8295 23.4315V3.59155H25.2113C25.2113 3.59155 25.1508 4.08464 25.2853 4.84419ZM32.6555 10.7637V11.8676C32.0237 11.7233 31.4112 11.5101 30.8302 11.2319C29.7044 10.6934 28.8275 9.81616 28.656 9.63872C28.855 9.76394 29.0615 9.87786 29.2744 9.9799C30.6431 10.6349 31.991 10.8303 32.6555 10.7637Z" fill="#69C9D0"/>
</svg>
