<svg width="39" height="39" viewBox="0 0 39 39" fill="none" xmlns="http://www.w3.org/2000/svg">
<path d="M14.3947 33.5203C10.522 33.5203 6.91187 32.3939 3.87329 30.4503C6.45314 30.6173 11.006 30.2175 13.8379 27.5163C9.5778 27.3209 7.6566 24.0536 7.40601 22.6573C7.76797 22.7969 9.49427 22.9645 10.4688 22.5735C5.56833 21.3448 4.81656 17.0443 4.98362 15.7318C5.90246 16.3741 7.46169 16.5975 8.07425 16.5416C3.50791 13.2744 5.15068 8.3595 5.95814 7.29833C9.23512 11.8383 14.1463 14.3881 20.222 14.53C20.1075 14.0275 20.047 13.5044 20.047 12.9672C20.047 9.1115 23.1635 5.98584 27.0079 5.98584C29.0165 5.98584 30.8264 6.83911 32.0969 8.20396C33.4392 7.88943 35.4593 7.15314 36.4468 6.51642C35.949 8.30365 34.3993 9.79456 33.4619 10.3471C33.4697 10.3659 33.4543 10.3283 33.4619 10.3471C34.2854 10.2226 36.5133 9.79441 37.3935 9.19726C36.9582 10.2013 35.3152 11.8707 33.9669 12.8053C34.2178 23.8689 25.753 33.5203 14.3947 33.5203Z" fill="#47ACDF"/>
</svg>
