<svg width="37" height="36" viewBox="0 0 37 36" fill="none" xmlns="http://www.w3.org/2000/svg">
<path d="M25.2535 15.2941C27.9752 15.1885 30.5472 14.6619 32.4934 13.793L32.4934 13.793C32.8315 13.642 33.2281 13.7937 33.3792 14.132L33.3792 14.132C33.5302 14.4703 33.3785 14.8669 33.0402 15.0179L33.0402 15.0179C30.9724 15.9411 28.2258 16.5211 25.3056 16.6345L25.325 17.1332L25.3061 16.6345C25.2969 16.6348 25.2878 16.635 25.2787 16.635C24.9207 16.635 24.6234 16.3515 24.6094 15.9903L24.6094 15.9902C24.595 15.6202 24.8834 15.3085 25.2535 15.2941ZM25.2535 15.2941L25.2342 14.7953L25.2536 15.2941C25.2535 15.2941 25.2535 15.2941 25.2535 15.2941ZM30.5592 4.50302L30.5592 4.50303C31.9103 5.02124 32.636 5.62264 33.025 6.14399C33.411 6.66125 33.4909 7.13326 33.4909 7.44526C33.4909 7.75725 33.411 8.22925 33.025 8.7465C32.636 9.26785 31.9103 9.86925 30.5592 10.3875L30.7059 10.7699L30.5592 10.3875C28.8871 11.0289 26.6576 11.3913 24.2807 11.3913C21.9039 11.3913 19.6744 11.0289 18.0023 10.3875L17.8272 10.8439L18.0023 10.3875C16.6512 9.86925 15.9255 9.26784 15.5364 8.74647C15.1505 8.22921 15.0706 7.75719 15.0706 7.4452C15.0706 7.13321 15.1505 6.66121 15.5364 6.14396C15.9255 5.62261 16.6512 5.02121 18.0023 4.50296L17.824 4.03816L18.0023 4.50296C19.6744 3.86156 21.9039 3.49911 24.2807 3.49911C26.6576 3.49911 28.8871 3.86156 30.5592 4.50302ZM18.4826 5.75529L18.4826 5.7553C17.7859 6.02257 17.2992 6.30695 16.9766 6.56769C16.8159 6.69758 16.6877 6.82819 16.5949 6.95568C16.5169 7.06298 16.412 7.23794 16.412 7.4452C16.412 7.65245 16.5169 7.82741 16.5949 7.93472C16.6877 8.06221 16.8159 8.19282 16.9766 8.32271C17.2992 8.58345 17.7859 8.86782 18.4826 9.13509L18.4826 9.1351C20.0167 9.72347 22.1294 10.0499 24.2807 10.0499C26.4321 10.0499 28.5447 9.72347 30.0788 9.1351L30.0789 9.13509C30.7756 8.86783 31.2623 8.58345 31.5849 8.3227C31.7456 8.19281 31.8738 8.0622 31.9666 7.93471C32.0446 7.82739 32.1495 7.65244 32.1495 7.4452C32.1495 7.23794 32.0446 7.06298 31.9665 6.95568C31.8738 6.82819 31.7456 6.69758 31.5849 6.56769C31.2623 6.30695 30.7756 6.02257 30.0789 5.7553L30.0788 5.7553C28.5448 5.16692 26.4321 4.84047 24.2807 4.84047C22.1294 4.84047 20.0168 5.16692 18.4826 5.75529ZM23.8678 32.4451H23.8678C23.4973 32.4403 23.201 32.1362 23.2058 31.7659C23.2106 31.396 23.5158 31.0992 23.8852 31.1039C27.0826 31.1448 30.2191 30.6007 32.4934 29.5851L32.4935 29.5851C32.8315 29.4341 33.2281 29.5858 33.3792 29.9242C33.5302 30.2624 33.3785 30.659 33.0402 30.81C30.6829 31.8625 27.5698 32.4475 24.2367 32.4475C24.114 32.4475 23.9911 32.4467 23.8678 32.4451ZM26.799 27.122L26.7984 27.122C26.7774 27.124 26.7561 27.125 26.7347 27.125C26.3932 27.125 26.1011 26.8643 26.0683 26.5173L26.0683 26.5173C26.0335 26.1485 26.3043 25.8214 26.673 25.7866L26.6731 25.7866C28.8733 25.579 30.8875 25.0966 32.4934 24.3796L32.4935 24.3796C32.8315 24.2286 33.2281 24.3802 33.3792 24.7186C33.5302 25.0569 33.3785 25.4535 33.0402 25.6045C31.326 26.3698 29.1688 26.8984 26.799 27.122ZM33.3792 19.4546L33.3792 19.4546C33.5302 19.7928 33.3785 20.1894 33.0402 20.3404C31.4196 21.064 29.3891 21.5793 27.1657 21.8207L27.1655 21.8207C27.1407 21.8234 27.1161 21.8248 27.0919 21.8248C26.7544 21.8248 26.4638 21.5697 26.4265 21.2264C26.3865 20.8581 26.6527 20.5272 27.0208 20.4872L27.0209 20.4872C29.0831 20.2632 30.9767 19.7927 32.4933 19.1155L32.4934 19.1155C32.8315 18.9645 33.2281 19.1162 33.3792 19.4546ZM4.4891 23.0034C4.4891 17.7964 8.72616 13.5593 13.9332 13.5593C19.1402 13.5593 23.3773 17.7964 23.3773 23.0034C23.3773 28.2104 19.1402 32.4475 13.9332 32.4475C8.72616 32.4475 4.4891 28.2104 4.4891 23.0034ZM5.83046 23.0034C5.83046 27.4717 9.46491 31.1061 13.9332 31.1061C18.4015 31.1061 22.0359 27.4717 22.0359 23.0034C22.0359 18.535 18.4015 14.9007 13.9332 14.9007C9.46491 14.9007 5.83046 18.535 5.83046 23.0034Z" fill="white" stroke="white" stroke-width="0.99822"/>
<path d="M14.1486 25.1611C14.5406 25.1611 14.8886 25.0691 15.1926 24.8851C15.4966 24.7011 15.7366 24.4371 15.9126 24.0931H18.1686C17.9286 25.0051 17.4526 25.7251 16.7406 26.2531C16.0286 26.7731 15.1726 27.0331 14.1726 27.0331C13.1806 27.0331 12.3246 26.7731 11.6046 26.2531C10.8926 25.7331 10.4046 25.0291 10.1406 24.1411H9.20459V23.0731H9.96059C9.95259 23.0011 9.94859 22.8931 9.94859 22.7491C9.94859 22.5971 9.95259 22.4811 9.96059 22.4011H9.20459V21.3211H10.1526C10.4166 20.4411 10.9046 19.7451 11.6166 19.2331C12.3366 18.7131 13.1886 18.4531 14.1726 18.4531C15.1726 18.4531 16.0286 18.7171 16.7406 19.2451C17.4526 19.7731 17.9286 20.4931 18.1686 21.4051H15.9126C15.7366 21.0611 15.4966 20.8011 15.1926 20.6251C14.8886 20.4411 14.5406 20.3491 14.1486 20.3491C13.7646 20.3491 13.4206 20.4331 13.1166 20.6011C12.8126 20.7691 12.5686 21.0091 12.3846 21.3211H14.3886V22.4011H12.0486C12.0406 22.4731 12.0366 22.5891 12.0366 22.7491C12.0366 22.8931 12.0406 23.0011 12.0486 23.0731H14.3886V24.1411H12.3606C12.5446 24.4691 12.7886 24.7211 13.0926 24.8971C13.4046 25.0731 13.7566 25.1611 14.1486 25.1611Z" fill="white"/>
</svg>
