<svg width="42" height="42" viewBox="0 0 42 42" fill="none" xmlns="http://www.w3.org/2000/svg">
<path d="M7.19303 18.7648C6.50434 16.7176 7.60559 14.4998 9.65274 13.8111L25.6771 8.42031C27.7242 7.73162 29.942 8.83287 30.6307 10.88L31.2207 12.6336C31.5835 13.7123 31.0033 14.8809 29.9246 15.2438V15.2438C28.8459 15.6067 28.2656 16.7753 28.6285 17.854L28.977 18.89C29.3399 19.9687 30.5085 20.5489 31.5872 20.186V20.186C32.6659 19.8232 33.8345 20.4034 34.1974 21.4821L34.7874 23.2357C35.476 25.2828 34.3748 27.5007 32.3276 28.1894L16.3033 33.5802C14.2562 34.2689 12.0383 33.1676 11.3496 31.1205L10.7597 29.3669C10.3968 28.2882 10.9771 27.1196 12.0558 26.7567V26.7567C13.1345 26.3938 13.7148 25.2252 13.3519 24.1465L13.0034 23.1105C12.6405 22.0318 11.4718 21.4515 10.3932 21.8144V21.8144C9.31447 22.1773 8.14584 21.597 7.78295 20.5184L7.19303 18.7648Z" stroke="white" stroke-width="3"/>
<path d="M19.8679 19.5736C19.9061 18.9625 19.9251 18.657 20.0904 18.5599C20.1339 18.5344 20.1822 18.5181 20.2323 18.5122C20.4226 18.4896 20.6225 18.7215 21.0222 19.1853C21.2495 19.449 21.3632 19.5809 21.5146 19.6457C21.5571 19.6638 21.6013 19.6779 21.6466 19.6876C21.8081 19.7222 21.9811 19.6805 22.3272 19.597C22.9131 19.4558 23.206 19.3852 23.3466 19.5157C23.3757 19.5427 23.4 19.5744 23.4185 19.6095C23.5075 19.7788 23.3614 20.0365 23.0692 20.552L22.988 20.6951C22.8514 20.9361 22.7831 21.0566 22.7633 21.1849C22.7514 21.2619 22.7525 21.3402 22.7663 21.4166C22.7894 21.544 22.8608 21.6615 23.0035 21.8964L23.0546 21.9803C23.3106 22.4016 23.4386 22.6122 23.4122 22.7458C23.3885 22.8658 23.3041 22.9659 23.1888 23.0108C23.0604 23.0608 22.827 22.9752 22.3603 22.8039C22.0528 22.691 21.899 22.6346 21.7518 22.6419C21.6173 22.6485 21.4871 22.6923 21.3759 22.7683C21.2543 22.8515 21.1659 22.9894 20.9891 23.2652C20.7208 23.6837 20.5866 23.893 20.4541 23.9308C20.3351 23.9647 20.2074 23.9359 20.116 23.8547C20.0142 23.7642 19.9889 23.519 19.9382 23.0287L19.9281 22.931C19.8999 22.6576 19.8858 22.5209 19.8272 22.4054C19.792 22.3361 19.7455 22.2732 19.6895 22.219C19.5962 22.1287 19.4689 22.074 19.2144 21.9646L19.0633 21.8996C18.5189 21.6656 18.2467 21.5486 18.2153 21.3599C18.2088 21.3208 18.209 21.2809 18.2159 21.2418C18.249 21.0528 18.5251 20.932 19.0772 20.6904C19.4033 20.5477 19.5664 20.4763 19.6741 20.3512C19.7043 20.316 19.7311 20.2781 19.7539 20.238C19.8354 20.0949 19.8463 19.9211 19.8679 19.5736Z" fill="white" stroke="white"/>
</svg>
