<svg width="146" height="36" viewBox="0 0 146 36" fill="none" xmlns="http://www.w3.org/2000/svg">
<path d="M46.9994 5.25332C47.02 5.71482 46.9472 6.17572 46.7855 6.60827C46.6237 7.04082 46.3764 7.43606 46.0582 7.77018C45.7018 8.13927 45.2716 8.42871 44.7958 8.61955C44.3201 8.81038 43.8096 8.89832 43.2976 8.8776C42.7827 8.88911 42.2709 8.79453 41.7939 8.59972C41.3169 8.4049 40.8848 8.114 40.5244 7.74501C39.7932 6.99494 39.3838 5.98766 39.3838 4.93871C39.3838 3.88976 39.7932 2.88247 40.5244 2.13241C41.0834 1.58459 41.7914 1.21468 42.5594 1.06915C43.3275 0.923611 44.1212 1.00895 44.841 1.31443C45.2935 1.50097 45.6972 1.78947 46.0206 2.15758L45.3555 2.82454C45.1063 2.52349 44.7906 2.28485 44.4334 2.12757C44.0761 1.97028 43.6872 1.89869 43.2976 1.91847C42.8057 1.92189 42.3222 2.04607 41.8892 2.28017C41.4562 2.51426 41.087 2.85115 40.8139 3.26138C40.5407 3.67161 40.3719 4.1427 40.3222 4.63346C40.2725 5.12422 40.3434 5.61972 40.5288 6.07666C40.7141 6.53359 41.0082 6.93804 41.3854 7.25465C41.7626 7.57127 42.2114 7.79041 42.6925 7.89293C43.1737 7.99544 43.6725 7.97821 44.1455 7.84274C44.6185 7.70727 45.0512 7.45768 45.4057 7.11579C45.789 6.69435 46.0113 6.1505 46.0332 5.58051H43.2976V4.67444H46.9492C46.9778 4.86618 46.9945 5.05951 46.9994 5.25332Z" fill="#353535" stroke="#353535" stroke-width="0.411304" stroke-miterlimit="10"/>
<path d="M52.7465 2.10702H49.3584V4.49804H52.4453V5.40411H49.3584V7.79512H52.7465V8.72636H48.3796V1.17578H52.7465V2.10702Z" fill="#353535" stroke="#353535" stroke-width="0.411304" stroke-miterlimit="10"/>
<path d="M56.8625 8.72636H55.8962V2.10702H53.7881V1.17578H59.0208V2.10702H56.8625V8.72636Z" fill="#353535" stroke="#353535" stroke-width="0.411304" stroke-miterlimit="10"/>
<path d="M62.71 8.72636V1.17578H63.6762V8.72636H62.71Z" fill="#353535" stroke="#353535" stroke-width="0.411304" stroke-miterlimit="10"/>
<path d="M67.9677 8.72636H67.0015V2.10702H64.8933V1.17578H70.0633V2.10702H67.9677V8.72636Z" fill="#353535" stroke="#353535" stroke-width="0.411304" stroke-miterlimit="10"/>
<path d="M79.8637 7.74558C79.5013 8.10934 79.0709 8.39791 78.5972 8.5948C78.1235 8.79168 77.6158 8.89301 77.1031 8.89301C76.5903 8.89301 76.0826 8.79168 75.6089 8.5948C75.1352 8.39791 74.7048 8.10934 74.3424 7.74558C73.633 6.98933 73.238 5.99015 73.238 4.95187C73.238 3.91358 73.633 2.91441 74.3424 2.15815C74.697 1.78415 75.126 1.48896 75.6015 1.2917C76.0771 1.09443 76.5886 0.999477 77.1031 1.01298C77.6168 1.00483 78.1267 1.10223 78.6015 1.29917C79.0763 1.49612 79.5058 1.78845 79.8637 2.15815C80.2245 2.52623 80.5081 2.96308 80.6978 3.44292C80.8875 3.92275 80.9793 4.43584 80.968 4.95187C80.9844 5.46854 80.8949 5.9831 80.705 6.46366C80.515 6.94422 80.2287 7.38054 79.8637 7.74558ZM75.0577 7.11637C75.325 7.38803 75.6434 7.60374 75.9946 7.75097C76.3457 7.8982 76.7225 7.97402 77.1031 7.97402C77.4836 7.97402 77.8604 7.8982 78.2115 7.75097C78.5627 7.60374 78.8811 7.38803 79.1484 7.11637C79.6899 6.52632 79.9904 5.75374 79.9904 4.95187C79.9904 4.14999 79.6899 3.37741 79.1484 2.78737C78.8811 2.5157 78.5627 2.29999 78.2115 2.15276C77.8604 2.00553 77.4836 1.92972 77.1031 1.92972C76.7225 1.92972 76.3457 2.00553 75.9946 2.15276C75.6434 2.29999 75.325 2.5157 75.0577 2.78737C74.5162 3.37741 74.2157 4.14999 74.2157 4.95187C74.2157 5.75374 74.5162 6.52632 75.0577 7.11637Z" fill="#353535" stroke="#353535" stroke-width="0.411304" stroke-miterlimit="10"/>
<path d="M82.3357 8.72636V1.17578H83.5027L87.1668 7.05265V5.59287V1.17578H88.1331V8.72636H87.1292L83.3019 2.57264V4.01983V8.72636H82.3357Z" fill="#353535" stroke="#353535" stroke-width="0.411304" stroke-miterlimit="10"/>
<path d="M72.9996 19.7383C71.9424 19.7408 70.9096 20.0576 70.0319 20.6488C69.1542 21.2399 68.471 22.0788 68.0687 23.0593C67.6664 24.0398 67.563 25.118 67.7717 26.1574C67.9804 27.1968 68.4918 28.1508 69.2411 28.8988C69.9905 29.6468 70.9442 30.1551 71.9816 30.3595C73.019 30.5639 74.0936 30.4553 75.0695 30.0472C76.0453 29.6392 76.8786 28.9501 77.4639 28.0671C78.0492 27.1841 78.3603 26.1469 78.3578 25.0866C78.368 24.3793 78.2362 23.6772 77.9703 23.022C77.7043 22.3668 77.3096 21.772 76.8096 21.273C76.3097 20.7739 75.7147 20.3809 75.0602 20.1172C74.4056 19.8536 73.7049 19.7247 72.9996 19.7383V19.7383ZM72.9996 28.3334C72.3516 28.3788 71.7049 28.2277 71.1437 27.8997C70.5824 27.5717 70.1325 27.0819 69.8525 26.4941C69.5725 25.9063 69.4753 25.2476 69.5735 24.6036C69.6717 23.9596 69.9609 23.3602 70.4033 22.8832C70.8458 22.4062 71.4211 22.0737 72.0544 21.9289C72.6878 21.7842 73.3499 21.8339 73.9548 22.0715C74.5596 22.3092 75.0792 22.7238 75.4459 23.2615C75.8127 23.7992 76.0097 24.4352 76.0112 25.0866C76.0315 25.4994 75.969 25.9121 75.8277 26.3003C75.6864 26.6885 75.4689 27.0444 75.1882 27.347C74.9076 27.6496 74.5693 27.8928 74.1934 28.0622C73.8175 28.2316 73.4116 28.3238 72.9996 28.3334ZM61.3045 19.7383C60.2472 19.7408 59.2144 20.0576 58.3367 20.6488C57.459 21.2399 56.7758 22.0788 56.3735 23.0593C55.9712 24.0398 55.8679 25.118 56.0766 26.1574C56.2853 27.1968 56.7966 28.1508 57.546 28.8988C58.2953 29.6468 59.249 30.1551 60.2864 30.3595C61.3239 30.5639 62.3985 30.4553 63.3743 30.0472C64.3501 29.6392 65.1834 28.9501 65.7687 28.0671C66.354 27.1841 66.6651 26.1469 66.6626 25.0866C66.6729 24.3793 66.5411 23.6772 66.2751 23.022C66.0091 22.3668 65.6144 21.772 65.1145 21.273C64.6145 20.7739 64.0196 20.3809 63.365 20.1172C62.7105 19.8536 62.0097 19.7247 61.3045 19.7383V19.7383ZM61.3045 28.3334C60.6564 28.3788 60.0098 28.2277 59.4485 27.8997C58.8872 27.5717 58.4374 27.0819 58.1573 26.4941C57.8773 25.9063 57.7801 25.2476 57.8783 24.6036C57.9766 23.9596 58.2657 23.3602 58.7081 22.8832C59.1506 22.4062 59.7259 22.0737 60.3593 21.9289C60.9926 21.7842 61.6548 21.8339 62.2596 22.0715C62.8645 22.3092 63.384 22.7238 63.7508 23.2615C64.1175 23.7992 64.3145 24.4352 64.3161 25.0866C64.3363 25.4994 64.2739 25.9121 64.1325 26.3003C63.9912 26.6885 63.7738 27.0444 63.4931 27.347C63.2124 27.6496 62.8741 27.8928 62.4983 28.0622C62.1224 28.2316 61.7165 28.3238 61.3045 28.3334ZM47.4008 21.3868V23.652H52.8217C52.7367 24.7189 52.2945 25.7256 51.5669 26.5087C51.0231 27.0643 50.3691 27.4992 49.6471 27.7854C48.9251 28.0715 48.1513 28.2025 47.3757 28.1698C45.7782 28.1698 44.2462 27.5334 43.1166 26.4006C41.987 25.2678 41.3524 23.7313 41.3524 22.1293C41.3524 20.5273 41.987 18.9909 43.1166 17.8581C44.2462 16.7253 45.7782 16.0889 47.3757 16.0889C48.9072 16.066 50.3859 16.6493 51.4916 17.7122L53.0852 16.114C52.3373 15.3722 51.4493 14.7875 50.4732 14.3942C49.4971 14.0009 48.4526 13.807 47.4008 13.8237C46.2852 13.7801 45.1724 13.9629 44.1289 14.361C43.0855 14.7591 42.1329 15.3643 41.3283 16.1405C40.5237 16.9166 39.8835 17.8476 39.4463 18.8778C39.0091 19.9079 38.7837 21.016 38.7837 22.1356C38.7837 23.2552 39.0091 24.3633 39.4463 25.3934C39.8835 26.4236 40.5237 27.3546 41.3283 28.1308C42.1329 28.9069 43.0855 29.5121 44.1289 29.9102C45.1724 30.3083 46.2852 30.4911 47.4008 30.4475C48.4742 30.4905 49.5445 30.3053 50.5415 29.9041C51.5385 29.5029 52.4396 28.8947 53.1856 28.1194C54.5033 26.6677 55.2055 24.7584 55.1432 22.7963C55.1477 22.324 55.1099 21.8523 55.0302 21.3868H47.4008ZM104.258 23.1486C103.931 22.1831 103.319 21.34 102.503 20.731C101.687 20.122 100.706 19.7758 99.6902 19.7383C99.0038 19.737 98.3244 19.8768 97.694 20.1492C97.0636 20.4216 96.4957 20.8208 96.0252 21.3221C95.5548 21.8233 95.1919 22.416 94.9589 23.0636C94.7259 23.7111 94.6279 24.3996 94.6708 25.0866C94.6601 26.2354 95.0202 27.3568 95.6974 28.2834C96.3746 29.2099 97.3325 29.8919 98.4281 30.2275C99.5237 30.5631 100.698 30.5342 101.776 30.1451C102.854 29.7561 103.777 29.0279 104.408 28.0691L102.589 26.8107C102.318 27.2641 101.933 27.6385 101.473 27.8967C101.013 28.155 100.493 28.2882 99.9662 28.283C99.4224 28.3056 98.8844 28.1626 98.423 27.8728C97.9617 27.5831 97.5985 27.1602 97.3813 26.6597L104.521 23.7024L104.258 23.1486ZM96.9797 24.9356C96.9543 24.5447 97.0069 24.1527 97.1344 23.7824C97.2619 23.4121 97.4619 23.0711 97.7225 22.7793C97.983 22.4875 98.2991 22.2508 98.652 22.083C99.005 21.9152 99.3878 21.8197 99.778 21.8021C100.182 21.7774 100.585 21.8728 100.935 22.0765C101.286 22.2803 101.569 22.5832 101.748 22.9473L96.9797 24.9356ZM91.1823 30.1203H93.5289V14.39H91.1823V30.1203ZM87.3425 20.9338H87.2547C86.9041 20.5334 86.4715 20.2137 85.9864 19.9965C85.5012 19.7794 84.9751 19.6698 84.4438 19.6754C83.0725 19.7421 81.7793 20.3353 80.8323 21.3322C79.8853 22.3291 79.3571 23.6531 79.3571 25.03C79.3571 26.4068 79.8853 27.7309 80.8323 28.7278C81.7793 29.7247 83.0725 30.3179 84.4438 30.3846C84.9758 30.3953 85.5036 30.2881 85.9895 30.0705C86.4754 29.853 86.9074 29.5305 87.2547 29.1262H87.3425V29.8938C87.3425 31.9451 86.2508 33.0399 84.494 33.0399C83.9071 33.027 83.3373 32.8394 82.857 32.5011C82.3766 32.1628 82.0074 31.6889 81.7961 31.1397L79.7632 31.9828C80.1391 32.9295 80.7925 33.7395 81.6372 34.3057C82.4819 34.8719 83.4781 35.1678 84.494 35.1541C87.2421 35.1541 89.5134 33.5307 89.5134 29.5792V20.0529H87.3425V20.9338ZM84.6446 28.3334C83.8224 28.282 83.0507 27.9182 82.4866 27.3161C81.9225 26.7141 81.6085 25.919 81.6085 25.0929C81.6085 24.2668 81.9225 23.4718 82.4866 22.8697C83.0507 22.2676 83.8224 21.9039 84.6446 21.8525C85.0464 21.8699 85.4407 21.9681 85.8039 22.1414C86.1671 22.3148 86.4918 22.5596 86.7587 22.8613C87.0257 23.1631 87.2293 23.5156 87.3577 23.8979C87.486 24.2802 87.5363 24.6844 87.5056 25.0866C87.5399 25.4902 87.4921 25.8965 87.3653 26.2811C87.2385 26.6656 87.0352 27.0203 86.7677 27.3238C86.5003 27.6273 86.1742 27.8733 85.8093 28.0468C85.4444 28.2203 85.0481 28.3178 84.6446 28.3334V28.3334ZM115.25 14.39H109.629V30.1203H111.975V24.1554H115.25C115.919 24.2036 116.591 24.1131 117.223 23.8895C117.855 23.666 118.435 23.3142 118.926 22.856C119.417 22.3979 119.808 21.8433 120.076 21.2268C120.343 20.6103 120.481 19.9451 120.481 19.2727C120.481 18.6003 120.343 17.9351 120.076 17.3185C119.808 16.702 119.417 16.1474 118.926 15.6893C118.435 15.2312 117.855 14.8794 117.223 14.6558C116.591 14.4323 115.919 14.3418 115.25 14.39V14.39ZM115.25 21.9405H111.975V16.5796H115.3C115.653 16.5796 116.002 16.6493 116.328 16.7846C116.654 16.92 116.95 17.1183 117.199 17.3684C117.449 17.6185 117.646 17.9154 117.781 18.2421C117.916 18.5688 117.986 18.919 117.986 19.2727C117.986 19.6263 117.916 19.9765 117.781 20.3033C117.646 20.63 117.449 20.9269 117.199 21.1769C116.95 21.427 116.654 21.6254 116.328 21.7607C116.002 21.8961 115.653 21.9657 115.3 21.9657L115.25 21.9405ZM129.731 19.688C128.877 19.6351 128.025 19.8346 127.283 20.2618C126.54 20.689 125.939 21.3252 125.553 22.0916L127.623 22.9599C127.832 22.5816 128.146 22.2722 128.527 22.0689C128.908 21.8657 129.339 21.7774 129.769 21.8147C130.067 21.7798 130.369 21.8048 130.657 21.8881C130.945 21.9714 131.214 22.1115 131.447 22.3001C131.681 22.4887 131.875 22.7221 132.017 22.9866C132.16 23.2511 132.249 23.5415 132.278 23.8408V23.9918C131.524 23.594 130.684 23.3867 129.832 23.3877C127.598 23.3877 125.314 24.6462 125.314 26.9365C125.336 27.4233 125.456 27.9007 125.665 28.3404C125.875 28.78 126.171 29.1729 126.535 29.4957C126.899 29.8185 127.324 30.0646 127.784 30.2195C128.245 30.3744 128.732 30.4348 129.217 30.3972C129.806 30.4299 130.392 30.3049 130.917 30.0351C131.442 29.7653 131.886 29.3604 132.203 28.8619H132.278V30.1203H134.537V24.0673C134.537 21.3113 132.454 19.7131 129.781 19.7131L129.731 19.688ZM129.443 28.3082C128.677 28.3082 127.61 27.9181 127.61 26.9743C127.61 25.7158 128.941 25.288 130.12 25.288C130.866 25.2695 131.602 25.4521 132.253 25.8165C132.175 26.4999 131.851 27.1315 131.344 27.5943C130.836 28.0571 130.179 28.3197 129.493 28.3334L129.443 28.3082ZM142.769 20.0529L140.084 26.8736H140.008L137.223 20.0529H134.713L138.892 29.5918L136.507 34.8898H138.954L145.379 20.0529H142.769ZM121.688 30.1203H124.022V14.39H121.688V30.1203Z" fill="#353535"/>
<path d="M21.8807 23.5544L16.7358 18.3571V17.9795L21.8807 12.7822L21.9936 12.8577L28.1549 16.3562C29.9117 17.3503 29.9117 18.9863 28.1549 19.993L22.0187 23.4915L21.8807 23.5544Z" fill="url(#paint0_linear_605_1430)"/>
<path d="M0.595175 1.85567C0.181665 2.34598 -0.0293262 2.97626 0.00539647 3.61747V31.454C-0.0373009 32.0962 0.174668 32.7294 0.595175 33.2157L0.683014 33.3164L16.2305 17.7245V17.3469L0.683014 1.76758L0.595175 1.85567Z" fill="url(#paint1_linear_605_1430)"/>
<path d="M21.526 22.8467L16.2306 17.5361L0.595215 33.2162C0.949802 33.5327 1.40367 33.7148 1.87811 33.7309C2.35255 33.747 2.81764 33.596 3.19274 33.3043L21.526 22.8467" fill="url(#paint2_linear_605_1430)"/>
<path d="M21.526 12.2252L3.19274 1.78026C2.82009 1.48442 2.35535 1.32981 1.88027 1.34362C1.40518 1.35743 0.95016 1.53878 0.595215 1.85577L16.2306 17.5358L21.526 12.2252Z" fill="url(#paint3_linear_605_1430)"/>
<path opacity="0.25" d="M3.19268 1.957L27.6496 15.9004C27.9836 16.0496 28.278 16.2753 28.509 16.5595C28.74 16.8436 28.9013 17.1783 28.9797 17.5364C28.941 17.1423 28.797 16.766 28.5629 16.4471C28.3288 16.1282 28.0133 15.8784 27.6496 15.7242L3.19268 1.78082C1.44844 0.774076 0.00537109 1.60464 0.00537109 3.61813V3.80689C0.0430164 1.79341 1.44844 0.962842 3.19268 1.957Z" fill="#353535"/>
<defs>
<linearGradient id="paint0_linear_605_1430" x1="30.4513" y1="18.1683" x2="0.0965973" y2="18.1683" gradientUnits="userSpaceOnUse">
<stop stop-color="#FFE000"/>
<stop offset="0.41" stop-color="#FFBD00"/>
<stop offset="0.78" stop-color="#FFA500"/>
<stop offset="1" stop-color="#FF9C00"/>
</linearGradient>
<linearGradient id="paint1_linear_605_1430" x1="14.8502" y1="3.32803" x2="-6.26616" y2="24.3842" gradientUnits="userSpaceOnUse">
<stop stop-color="#00A0FF"/>
<stop offset="0.01" stop-color="#00A1FF"/>
<stop offset="0.26" stop-color="#00BEFF"/>
<stop offset="0.51" stop-color="#00D2FF"/>
<stop offset="0.76" stop-color="#00DFFF"/>
<stop offset="1" stop-color="#00E3FF"/>
</linearGradient>
<linearGradient id="paint2_linear_605_1430" x1="18.6524" y1="20.4305" x2="-9.98928" y2="48.9781" gradientUnits="userSpaceOnUse">
<stop stop-color="#FF3A44"/>
<stop offset="1" stop-color="#C31162"/>
</linearGradient>
<linearGradient id="paint3_linear_605_1430" x1="-3.345" y1="-7.40628" x2="9.4406" y2="5.34289" gradientUnits="userSpaceOnUse">
<stop stop-color="#32A071"/>
<stop offset="0.07" stop-color="#2DA771"/>
<stop offset="0.48" stop-color="#15CF74"/>
<stop offset="0.8" stop-color="#06E775"/>
<stop offset="1" stop-color="#00F076"/>
</linearGradient>
</defs>
</svg>
