<svg width="29" height="29" viewBox="0 0 29 29" fill="none" xmlns="http://www.w3.org/2000/svg">
<circle cx="14.4621" cy="14.3869" r="12.5885" fill="#FFFA37"/>
<path fill-rule="evenodd" clip-rule="evenodd" d="M18.9811 7.36019C18.113 6.26614 16.6808 5.39502 14.4729 5.39502C12.5822 5.41364 8.80084 6.46006 8.80084 10.4968C8.80084 11.0863 8.8475 11.8758 8.88828 12.4573C8.84022 12.4433 8.78114 12.4172 8.68751 12.3723L8.6745 12.3661C8.50894 12.2866 8.25719 12.1657 7.90707 12.1657C7.55338 12.1657 7.21139 12.3043 6.95749 12.5097C6.70513 12.7139 6.48954 13.0277 6.48954 13.4072C6.48954 13.8818 6.75667 14.197 7.06901 14.399C7.34645 14.5784 7.69629 14.6931 7.97322 14.7838L8.0006 14.7928C8.29703 14.89 8.51428 14.9641 8.66408 15.0575C8.78068 15.1302 8.79837 15.1761 8.80056 15.2198C8.79904 15.226 8.79548 15.2394 8.78772 15.2612C8.77173 15.3061 8.74514 15.3668 8.70628 15.4428C8.62875 15.5942 8.5157 15.7804 8.38122 15.9789C8.10991 16.3795 7.77882 16.7903 7.5315 17.0283C7.28755 17.2629 6.88724 17.5546 6.4687 17.7867C6.26115 17.9018 6.05818 17.9972 5.8766 18.0627C5.68917 18.1304 5.55181 18.1561 5.46694 18.1561C5.39976 18.1561 5.34161 18.1699 5.31623 18.1763C5.28056 18.1853 5.24364 18.197 5.20712 18.2107C5.13469 18.238 5.04836 18.2788 4.96285 18.3363C4.79947 18.4463 4.57129 18.668 4.57129 19.0177C4.57129 19.2003 4.61415 19.3549 4.68823 19.489C4.75307 19.6063 4.83643 19.6954 4.88441 19.7466L4.89153 19.7542L4.90481 19.7685C5.16866 20.0524 5.60542 20.2499 6.02942 20.3854C6.39374 20.5019 6.80107 20.5886 7.19799 20.6407C7.2036 20.6663 7.20946 20.6939 7.21587 20.7241L7.21793 20.7338C7.24293 20.8517 7.27603 21.0078 7.32477 21.1517C7.37076 21.2875 7.45405 21.4883 7.62458 21.6313C7.84176 21.8134 8.12582 21.8319 8.31116 21.8311C8.51012 21.8303 8.74241 21.8023 8.96284 21.7757L8.9816 21.7735C9.29175 21.7361 9.61621 21.6975 9.95227 21.6975C10.5655 21.6975 10.9586 21.9537 11.5754 22.3749L11.5795 22.3778C11.7932 22.5236 12.0324 22.687 12.3043 22.8477C13.2144 23.3855 13.9539 23.3808 14.373 23.3782C14.4006 23.378 14.4269 23.3779 14.4517 23.3779C14.4765 23.3779 14.5029 23.378 14.5307 23.3782C14.9505 23.3809 15.7097 23.3858 16.6203 22.8477C16.8922 22.687 17.1314 22.5237 17.345 22.3778L17.3492 22.3749C17.9659 21.9537 18.359 21.6975 18.9723 21.6975C19.3083 21.6975 19.6328 21.7361 19.943 21.7735L19.9617 21.7757C20.1821 21.8023 20.4144 21.8303 20.6134 21.8311C20.7987 21.8319 21.0828 21.8134 21.3 21.6313C21.4705 21.4883 21.5538 21.2875 21.5998 21.1517C21.6485 21.0078 21.6816 20.8517 21.7066 20.7339L21.7087 20.7241C21.7151 20.6939 21.721 20.6663 21.7266 20.6407C22.1235 20.5886 22.5308 20.5019 22.8951 20.3854C23.3191 20.2499 23.7559 20.0523 24.0198 19.7684L24.033 19.7542L24.0401 19.7467C24.0881 19.6954 24.1715 19.6063 24.2363 19.489C24.3104 19.3549 24.3533 19.2003 24.3533 19.0177C24.3533 18.668 24.1251 18.4463 23.9617 18.3363C23.8762 18.2788 23.7899 18.238 23.7174 18.2107C23.6809 18.197 23.644 18.1853 23.6083 18.1763C23.5829 18.1699 23.5248 18.1561 23.4576 18.1561C23.3727 18.1561 23.2354 18.1304 23.0479 18.0627C22.8664 17.9972 22.6634 17.9018 22.4558 17.7867C22.0373 17.5546 21.637 17.2629 21.393 17.0283C21.1457 16.7903 20.8146 16.3795 20.5433 15.9789C20.4088 15.7804 20.2958 15.5942 20.2183 15.4428C20.1794 15.3668 20.1528 15.3061 20.1368 15.2612C20.1291 15.2394 20.1255 15.226 20.124 15.2198C20.1262 15.1761 20.1439 15.1302 20.2605 15.0575C20.4103 14.9641 20.6275 14.89 20.924 14.7928L20.9513 14.7838C21.2283 14.6931 21.5781 14.5784 21.8555 14.399C22.1679 14.197 22.435 13.8818 22.435 13.4072C22.435 13.0277 22.2194 12.7139 21.9671 12.5097C21.7132 12.3043 21.3712 12.1657 21.0175 12.1657C20.6674 12.1657 20.4156 12.2866 20.25 12.3661L20.237 12.3723C20.1434 12.4172 20.0843 12.4433 20.0363 12.4573C20.077 11.8758 20.1237 11.0863 20.1237 10.4968C20.1237 9.69642 19.8327 8.43339 18.9811 7.36019ZM10.6706 7.88821C9.95033 8.78986 9.70355 9.86049 9.70355 10.4968C9.70355 11.0867 9.75351 11.9063 9.79569 12.4939C9.8097 12.6891 9.76968 12.9166 9.59923 13.0972C9.4267 13.28 9.19199 13.3394 8.98231 13.3394C8.67955 13.3394 8.44928 13.2286 8.30197 13.1577L8.28487 13.1495C8.12052 13.0707 8.03411 13.0341 7.90707 13.0341C7.79151 13.0341 7.65042 13.0837 7.53853 13.1742C7.42512 13.266 7.39225 13.3558 7.39225 13.4072C7.39225 13.5118 7.43085 13.5866 7.5727 13.6784C7.74024 13.7867 7.97897 13.8682 8.29191 13.9708L8.31916 13.9798C8.57904 14.0649 8.90094 14.1704 9.15496 14.3287C9.4401 14.5064 9.70355 14.7921 9.70355 15.2322C9.70355 15.3475 9.67165 15.4586 9.64171 15.5426C9.60921 15.6339 9.5653 15.7303 9.5161 15.8264C9.41749 16.019 9.28414 16.2365 9.13756 16.453C8.84674 16.8824 8.47706 17.3467 8.16981 17.6423C7.85919 17.9411 7.39205 18.277 6.91958 18.539C6.68163 18.671 6.43321 18.7893 6.19366 18.8758C5.97923 18.9532 5.74813 19.0138 5.52644 19.0232C5.52091 19.0256 5.51481 19.0284 5.50841 19.0316C5.49819 19.0367 5.48863 19.0423 5.48029 19.0479L5.47602 19.0508C5.47686 19.0568 5.47782 19.0612 5.47861 19.0644C5.48039 19.0713 5.48249 19.0762 5.48533 19.0814C5.49402 19.0971 5.50773 19.1146 5.56318 19.174L5.57773 19.1897C5.67762 19.2971 5.9238 19.4366 6.31404 19.5613C6.68569 19.6801 7.12517 19.7659 7.54039 19.8053C7.74814 19.825 7.86788 19.9548 7.91855 20.0247C7.97072 20.0967 8.00056 20.1728 8.01799 20.2232C8.05172 20.3209 8.07719 20.4411 8.09729 20.536L8.10034 20.5504C8.12778 20.6797 8.15177 20.7903 8.18307 20.8827C8.19413 20.9154 8.20434 20.9402 8.21313 20.9585C8.23294 20.9608 8.26331 20.9629 8.30732 20.9628C8.49824 20.962 8.68939 20.9335 8.87856 20.9107C9.1812 20.8743 9.55573 20.8291 9.95227 20.8291C10.8719 20.8291 11.4788 21.2438 12.065 21.6443L12.0979 21.6668C12.3149 21.815 12.5323 21.9633 12.7767 22.1077C13.4657 22.5149 13.9899 22.5119 14.3729 22.5098C14.3999 22.5096 14.4261 22.5095 14.4517 22.5095C14.477 22.5095 14.5031 22.5096 14.53 22.5098C14.9172 22.5119 15.459 22.5148 16.1478 22.1077C16.3923 21.9633 16.6097 21.815 16.8266 21.6668L16.8595 21.6443C17.4458 21.2438 18.0526 20.8291 18.9723 20.8291C19.3688 20.8291 19.7434 20.8743 20.046 20.9107L20.0551 20.9118C20.2999 20.9413 20.479 20.9622 20.6172 20.9628C20.6612 20.9629 20.6916 20.9608 20.7114 20.9585C20.7202 20.9402 20.7304 20.9154 20.7415 20.8827C20.7728 20.7903 20.7968 20.6797 20.8242 20.5504L20.8273 20.536C20.8474 20.4411 20.8728 20.3209 20.9066 20.2232C20.924 20.1728 20.9538 20.0967 21.006 20.0247C21.0567 19.9548 21.1764 19.825 21.3842 19.8053C21.7994 19.7659 22.2389 19.6801 22.6105 19.5613C23.0007 19.4366 23.2469 19.2971 23.3468 19.1897L23.3614 19.1741C23.4168 19.1147 23.4305 19.0971 23.4392 19.0814C23.4421 19.0762 23.4442 19.0713 23.4459 19.0644C23.4467 19.0612 23.4477 19.0568 23.4485 19.0508L23.4443 19.0479C23.4359 19.0423 23.4264 19.0367 23.4161 19.0316C23.4097 19.0283 23.4036 19.0256 23.3981 19.0232C23.1764 19.0138 22.9453 18.9532 22.7309 18.8758C22.4913 18.7893 22.2429 18.671 22.005 18.539C21.5325 18.277 21.0654 17.9411 20.7547 17.6423C20.4475 17.3467 20.0778 16.8824 19.787 16.453C19.6404 16.2365 19.5071 16.019 19.4084 15.8264C19.3592 15.7303 19.3153 15.6339 19.2828 15.5426C19.2529 15.4586 19.221 15.3475 19.221 15.2322C19.221 14.7921 19.4844 14.5064 19.7696 14.3287C20.0236 14.1704 20.3455 14.0649 20.6054 13.9798L20.6326 13.9708C20.9456 13.8682 21.1843 13.7867 21.3518 13.6784C21.4937 13.5866 21.5323 13.5118 21.5323 13.4072C21.5323 13.3558 21.4994 13.266 21.386 13.1742C21.2741 13.0837 21.133 13.0341 21.0175 13.0341C20.8904 13.0341 20.804 13.0707 20.6397 13.1495L20.6226 13.1577C20.4753 13.2286 20.245 13.3394 19.9422 13.3394C19.7326 13.3394 19.4978 13.28 19.3253 13.0972C19.1549 12.9166 19.1149 12.6891 19.1289 12.4939C19.171 11.9063 19.221 11.0867 19.221 10.4968C19.221 9.85884 18.9786 8.7881 18.2636 7.88709C17.5652 7.00692 16.3976 6.2634 14.4729 6.2634C12.5479 6.2634 11.3745 7.00715 10.6706 7.88821Z" fill="black"/>
<path fill-rule="evenodd" clip-rule="evenodd" d="M10.6707 7.88824C9.95038 8.78989 9.7036 9.86052 9.7036 10.4968C9.7036 11.0867 9.75357 11.9063 9.79574 12.494C9.80975 12.6891 9.76973 12.9166 9.59928 13.0972C9.42675 13.2801 9.19204 13.3394 8.98237 13.3394C8.6796 13.3394 8.44933 13.2286 8.30202 13.1578L8.28492 13.1495C8.12057 13.0708 8.03416 13.0341 7.90712 13.0341C7.79156 13.0341 7.65047 13.0838 7.53858 13.1743C7.42517 13.266 7.3923 13.3558 7.3923 13.4072C7.3923 13.5119 7.4309 13.5866 7.57275 13.6784C7.74029 13.7867 7.97902 13.8682 8.29196 13.9709L8.31921 13.9798C8.57909 14.0649 8.90099 14.1704 9.15501 14.3287C9.44015 14.5065 9.7036 14.7921 9.7036 15.2322C9.7036 15.3476 9.6717 15.4586 9.64176 15.5427C9.60926 15.6339 9.56536 15.7303 9.51615 15.8264C9.41754 16.0191 9.28419 16.2366 9.13761 16.453C8.84679 16.8824 8.47711 17.3467 8.16986 17.6423C7.85924 17.9411 7.3921 18.277 6.91963 18.539C6.68168 18.671 6.43326 18.7894 6.19371 18.8758C5.97928 18.9532 5.74818 19.0138 5.52649 19.0233C5.52096 19.0256 5.51486 19.0284 5.50846 19.0316C5.49824 19.0367 5.48868 19.0423 5.48034 19.0479L5.47607 19.0509C5.47691 19.0568 5.47787 19.0613 5.47866 19.0644C5.48044 19.0713 5.48254 19.0763 5.48538 19.0814C5.49407 19.0971 5.50778 19.1147 5.56323 19.1741L5.57778 19.1897C5.67767 19.2972 5.92385 19.4366 6.31409 19.5614C6.68574 19.6801 7.12522 19.7659 7.54044 19.8053C7.74819 19.825 7.86793 19.9548 7.91861 20.0248C7.97077 20.0968 8.00061 20.1728 8.01804 20.2233C8.05177 20.3209 8.07724 20.4412 8.09734 20.5361L8.10039 20.5505C8.12783 20.6798 8.15182 20.7903 8.18312 20.8827C8.19418 20.9154 8.20439 20.9403 8.21318 20.9585C8.23299 20.9608 8.26337 20.963 8.30737 20.9628C8.49829 20.962 8.68944 20.9336 8.87861 20.9108C9.18125 20.8743 9.55578 20.8292 9.95232 20.8292C10.872 20.8292 11.4788 21.2438 12.0651 21.6444L12.098 21.6668C12.3149 21.815 12.5323 21.9633 12.7768 22.1078C13.4658 22.5149 13.99 22.512 14.373 22.5098C14.3999 22.5097 14.4262 22.5095 14.4517 22.5095C14.4771 22.5095 14.5032 22.5097 14.53 22.5098C14.9172 22.5119 15.459 22.5148 16.1479 22.1078C16.3923 21.9633 16.6097 21.815 16.8267 21.6668L16.8596 21.6444C17.4458 21.2438 18.0527 20.8292 18.9723 20.8292C19.3689 20.8292 19.7434 20.8743 20.046 20.9108L20.0552 20.9119C20.2999 20.9413 20.479 20.9622 20.6173 20.9628C20.6613 20.963 20.6917 20.9608 20.7115 20.9585C20.7203 20.9403 20.7305 20.9154 20.7415 20.8827C20.7728 20.7903 20.7968 20.6798 20.8243 20.5505L20.8273 20.536C20.8474 20.4412 20.8729 20.3209 20.9066 20.2232C20.924 20.1728 20.9539 20.0968 21.006 20.0248C21.0567 19.9548 21.1765 19.825 21.3842 19.8053C21.7994 19.7659 22.2389 19.6801 22.6106 19.5614C23.0008 19.4366 23.247 19.2972 23.3469 19.1897L23.3614 19.1741C23.4169 19.1147 23.4306 19.0971 23.4393 19.0814C23.4421 19.0763 23.4442 19.0713 23.446 19.0644C23.4468 19.0613 23.4477 19.0568 23.4486 19.0509L23.4443 19.0479C23.436 19.0423 23.4264 19.0367 23.4162 19.0316C23.4098 19.0284 23.4037 19.0256 23.3982 19.0233C23.1765 19.0138 22.9454 18.9532 22.7309 18.8758C22.4914 18.7894 22.243 18.671 22.005 18.539C21.5326 18.277 21.0654 17.9411 20.7548 17.6423C20.4475 17.3467 20.0779 16.8824 19.787 16.453C19.6405 16.2366 19.5071 16.0191 19.4085 15.8264C19.3593 15.7303 19.3154 15.6339 19.2829 15.5427C19.253 15.4586 19.2211 15.3476 19.2211 15.2322C19.2211 14.7921 19.4845 14.5065 19.7696 14.3287C20.0237 14.1704 20.3456 14.0649 20.6054 13.9798L20.6327 13.9709C20.9456 13.8682 21.1844 13.7867 21.3519 13.6784C21.4938 13.5866 21.5324 13.5119 21.5324 13.4072C21.5324 13.3558 21.4995 13.266 21.3861 13.1743C21.2742 13.0838 21.1331 13.0341 21.0175 13.0341C20.8905 13.0341 20.8041 13.0708 20.6397 13.1495L20.6226 13.1578C20.4753 13.2286 20.245 13.3394 19.9423 13.3394C19.7326 13.3394 19.4979 13.2801 19.3254 13.0973C19.1549 12.9166 19.1149 12.6891 19.1289 12.494C19.1711 11.9063 19.2211 11.0867 19.2211 10.4968C19.2211 9.85887 18.9786 8.78813 18.2637 7.88712C17.5652 7.00695 16.3977 6.26343 14.4729 6.26343C12.5479 6.26343 11.3746 7.00717 10.6707 7.88824Z" fill="white"/>
</svg>
