<svg width="41" height="41" viewBox="0 0 41 41" fill="none" xmlns="http://www.w3.org/2000/svg">
<g clip-path="url(#clip0_620_1384)">
<path d="M25.3834 25.7096C24.8124 25.7096 24.2384 25.5727 23.7074 25.2955L20.952 23.8569C20.6595 23.7041 20.3104 23.7041 20.0179 23.8569L17.2624 25.2954C16.0356 25.936 14.579 25.8274 13.4615 25.012C12.3527 24.203 11.8085 22.8624 12.0415 21.5133L12.5678 18.4663C12.6223 18.1504 12.5163 17.8276 12.2842 17.6029L10.0549 15.445C9.06641 14.4882 8.71499 13.0823 9.13763 11.7759C9.56229 10.4632 10.6777 9.52488 12.0485 9.3271L15.1291 8.88251C15.4547 8.83551 15.7354 8.63389 15.8798 8.34301L17.2576 5.57075C17.8692 4.34018 19.1058 3.57568 20.4849 3.57568C21.8639 3.57568 23.1006 4.34018 23.7121 5.57075L25.0899 8.34294C25.2344 8.63382 25.5151 8.83551 25.8406 8.88251L28.9212 9.3271C30.292 9.52495 31.4074 10.4633 31.8321 11.7759C32.2548 13.0822 31.9033 14.4882 30.9148 15.445L28.6856 17.6029C28.4535 17.8276 28.3474 18.1504 28.402 18.4663L28.9283 21.5132C29.1613 22.8623 28.6172 24.2029 27.5083 25.0119C26.8745 25.4745 26.1315 25.7096 25.3834 25.7096V25.7096ZM20.4849 21.1385C21.0593 21.1385 21.6336 21.2751 22.1573 21.5485L24.9126 22.987C25.414 23.2487 25.8216 23.0192 25.9735 22.9083C26.1213 22.8005 26.4548 22.4921 26.3623 21.9564L25.836 18.9095C25.6348 17.7439 26.0231 16.556 26.8747 15.7318L29.1038 13.5739C29.4977 13.1925 29.4104 12.75 29.3546 12.5775C29.2978 12.4018 29.1056 11.9847 28.5495 11.9044L25.4689 11.4599C24.2966 11.2907 23.2833 10.5587 22.7581 9.50183L21.3803 6.72964C21.1336 6.2333 20.672 6.17972 20.485 6.17972C20.298 6.17972 19.8364 6.2333 19.5897 6.72964L18.2119 9.5019C17.6868 10.5587 16.6734 11.2907 15.5011 11.4599L12.4205 11.9044C11.8644 11.9847 11.6722 12.4018 11.6154 12.5775C11.5596 12.75 11.4723 13.1925 11.8662 13.5739L14.0954 15.7318C14.9469 16.556 15.3352 17.7439 15.134 18.9093L14.6077 21.9564C14.5152 22.492 14.8487 22.8005 14.9965 22.9082C15.1484 23.0191 15.5561 23.2488 16.0574 22.9869L18.8128 21.5483C19.3361 21.2752 19.9106 21.1385 20.4849 21.1385V21.1385ZM18.4237 6.15029H18.4243H18.4237ZM15.2981 36.908C14.8481 36.908 14.3958 36.8002 13.9772 36.5817L12.1344 35.6195C12.0637 35.5827 11.9795 35.5827 11.9088 35.6195L10.0659 36.5817C9.09896 37.0866 7.95094 37.0009 7.0701 36.3582C6.19506 35.7197 5.76578 34.6615 5.94969 33.5965L6.30163 31.5587C6.31381 31.4881 6.28959 31.4155 6.23699 31.3645L4.74614 29.9214C3.96595 29.1662 3.68855 28.0563 4.02227 27.0249C4.35728 25.9892 5.23688 25.249 6.31778 25.0931L8.37808 24.7958C8.42977 24.7883 8.47814 24.7641 8.51414 24.7278C9.01973 24.2164 9.84399 24.2116 10.3555 24.7171C10.8669 25.2226 10.8717 26.047 10.3661 26.5584C9.9337 26.9958 9.35983 27.2852 8.75008 27.3732L6.68971 27.6705C6.65358 27.6757 6.54362 27.6916 6.49994 27.8265C6.45847 27.9546 6.53294 28.0266 6.55736 28.0503L8.04821 29.4935C8.72026 30.144 9.02663 31.0817 8.86778 32.0018L8.51584 34.0397C8.51017 34.0726 8.49286 34.1727 8.60503 34.2545C8.68575 34.3134 8.77182 34.3196 8.86082 34.2733L10.7037 33.3112C11.5289 32.8803 12.5143 32.8803 13.3395 33.3112L15.1824 34.2733C15.2713 34.3197 15.3574 34.3134 15.4382 34.2546C15.5504 34.1728 15.533 34.0726 15.5274 34.0398L15.1754 32.002C15.0166 31.0818 15.323 30.1441 15.995 29.4935L17.4859 28.0504C18.0024 27.5503 18.8269 27.5635 19.327 28.0803C19.8271 28.597 19.8137 29.4213 19.297 29.9214L17.8062 31.3646C17.7535 31.4155 17.7293 31.4882 17.7415 31.5588L18.0935 33.5965C18.2774 34.6615 17.8481 35.7198 16.973 36.3582C16.4734 36.7227 15.8877 36.908 15.2981 36.908V36.908ZM34.0298 36.3581C34.9049 35.7197 35.3342 34.6614 35.1503 33.5964L34.7983 31.5587C34.7861 31.4881 34.8104 31.4154 34.863 31.3644L36.3538 29.9213C37.134 29.1661 37.4114 28.0562 37.0777 27.0248C36.7427 25.9892 35.8631 25.249 34.7822 25.093L32.7219 24.7957C32.6702 24.7882 32.6218 24.7641 32.5858 24.7277C32.0803 24.2163 31.2558 24.2115 30.7444 24.717C30.2331 25.2225 30.2282 26.0469 30.7338 26.5584C31.1662 26.9957 31.7401 27.2851 32.3499 27.3731L34.4102 27.6704C34.4464 27.6757 34.5563 27.6915 34.6 27.8264C34.6415 27.9546 34.567 28.0266 34.5426 28.0503L33.0517 29.4934C32.3797 30.144 32.0733 31.0816 32.2322 32.0018L32.5841 34.0396C32.5898 34.0725 32.6071 34.1726 32.4949 34.2545C32.4142 34.3133 32.3281 34.3196 32.2391 34.2732L30.3963 33.3111C29.571 32.8802 28.5856 32.8802 27.7604 33.3111L25.9175 34.2731C25.8286 34.3196 25.7426 34.3134 25.6618 34.2544C25.5496 34.1726 25.5669 34.0724 25.5726 34.0396L25.9245 32.0017C26.0834 31.0816 25.777 30.1439 25.1049 29.4933L23.6141 28.0502C23.0974 27.55 22.273 27.5634 21.773 28.0801C21.2728 28.5968 21.2862 29.4211 21.8029 29.9212L23.2938 31.3644C23.3465 31.4153 23.3706 31.488 23.3584 31.5586L23.0065 33.5963C22.8226 34.6614 23.2519 35.7196 24.1269 36.3581C25.0077 37.0008 26.1558 37.0864 27.1227 36.5815L28.9656 35.6194C29.0363 35.5826 29.1205 35.5826 29.1912 35.6194L31.034 36.5815C31.4526 36.8 31.9049 36.9079 32.3549 36.9079C32.9446 36.908 33.5302 36.7227 34.0298 36.3581V36.3581Z" fill="white"/>
</g>
<defs>
<clipPath id="clip0_620_1384">
<rect width="33.3333" height="33.3333" fill="white" transform="translate(3.8833 3.57471)"/>
</clipPath>
</defs>
</svg>
