<svg width="29" height="29" viewBox="0 0 29 29" fill="none" xmlns="http://www.w3.org/2000/svg">
<path d="M7.71185 17.7972C7.85237 16.6337 8.32953 15.9823 9.22874 15.3145C10.5153 14.4102 12.1225 14.9217 12.1225 14.9217V11.8869C12.5132 11.8769 12.9041 11.9 13.2905 11.9561V15.8617C13.2905 15.8617 11.6839 15.3501 10.3973 16.2549C9.49855 16.9222 9.02041 17.5741 8.88038 18.7375C8.87599 19.3693 8.99455 20.1951 9.54051 20.9092C9.40552 20.84 9.26794 20.7611 9.12774 20.6726C7.92506 19.865 7.70599 18.6534 7.71185 17.7972ZM19.9265 6.27536C19.0414 5.30551 18.7067 4.3263 18.5857 3.63843H19.6991C19.6991 3.63843 19.4771 5.44205 21.095 7.21575L21.1175 7.2396C20.6814 6.96532 20.2815 6.64156 19.9265 6.27536ZM25.29 9.02499V12.852C25.29 12.852 23.8692 12.7964 22.8178 12.5289C21.3497 12.1548 20.4061 11.581 20.4061 11.581C20.4061 11.581 19.7543 11.1719 19.7016 11.1433V19.0462C19.7016 19.4862 19.5811 20.5851 19.2137 21.5017C18.7341 22.7007 17.9939 23.4877 17.8578 23.6485C17.8578 23.6485 16.9576 24.7124 15.3695 25.4288C13.938 26.075 12.6811 26.0587 12.3055 26.075C12.3055 26.075 10.1328 26.1611 8.1778 24.8905C7.75504 24.6105 7.36041 24.2933 6.99902 23.9431L7.00878 23.9502C8.9643 25.2207 11.1364 25.1346 11.1364 25.1346C11.5126 25.1183 12.7695 25.1346 14.2005 24.4884C15.7871 23.772 16.6888 22.7081 16.6888 22.7081C16.8234 22.5473 17.567 21.7603 18.0447 20.5608C18.4111 19.6447 18.5326 18.5454 18.5326 18.1053V10.2034C18.5853 10.2324 19.2366 10.6416 19.2366 10.6416C19.2366 10.6416 20.1807 11.2158 21.6488 11.5894C22.7007 11.8569 24.121 11.9126 24.121 11.9126V8.9137C24.6069 9.02265 25.0212 9.05211 25.29 9.02499Z" fill="#EE1D52"/>
<path d="M24.121 8.9137V11.9116C24.121 11.9116 22.7008 11.856 21.6488 11.5885C20.1807 11.2144 19.2366 10.6406 19.2366 10.6406C19.2366 10.6406 18.5853 10.2315 18.5326 10.2025V18.1063C18.5326 18.5463 18.4121 19.6457 18.0447 20.5617C17.5651 21.7612 16.8249 22.5482 16.6888 22.7091C16.6888 22.7091 15.7882 23.7729 14.2005 24.4893C12.7695 25.1356 11.5127 25.1192 11.1365 25.1356C11.1365 25.1356 8.96434 25.2216 7.00882 23.9511L6.99907 23.9441C6.79261 23.7442 6.59827 23.5331 6.417 23.3118C5.79297 22.551 5.41045 21.6513 5.31434 21.3946C5.31417 21.3935 5.31417 21.3924 5.31434 21.3913C5.15967 20.9452 4.83473 19.8739 4.87913 18.8362C4.95768 17.0055 5.60171 15.8818 5.77199 15.6003C6.22296 14.8326 6.8095 14.1457 7.50551 13.5703C8.1197 13.0737 8.81586 12.6787 9.56544 12.4012C10.3758 12.0755 11.2435 11.9009 12.122 11.8869V14.9217C12.122 14.9217 10.5149 14.412 9.22878 15.3145C8.32958 15.9823 7.85241 16.6337 7.71189 17.7972C7.70604 18.6534 7.92511 19.865 9.12681 20.673C9.267 20.7619 9.40459 20.8408 9.53958 20.9097C9.74952 21.1826 10.005 21.4203 10.2958 21.6134C11.4697 22.3565 12.4533 22.4084 13.7111 21.9258C14.5499 21.6031 15.1812 20.876 15.4739 20.0703C15.6579 19.5671 15.6554 19.0607 15.6554 18.5369V3.63843H18.5829C18.7039 4.3263 19.0386 5.30551 19.9236 6.27536C20.2787 6.64156 20.6785 6.96532 21.1146 7.2396C21.2434 7.37287 21.9021 8.03176 22.7476 8.43625C23.1848 8.64534 23.6456 8.80554 24.121 8.9137V8.9137Z" fill="#F5F5F5"/>
<path d="M4.14941 20.4624V20.4647L4.22205 20.6616C4.21371 20.6387 4.18672 20.569 4.14941 20.4624Z" fill="#69C9D0"/>
<path d="M9.56567 12.4012C8.81609 12.6787 8.11993 13.0737 7.50574 13.5703C6.80951 14.1471 6.22312 14.8353 5.77271 15.6045C5.60244 15.885 4.9584 17.0097 4.87985 18.8404C4.83545 19.8781 5.1604 20.9494 5.31506 21.3955C5.31489 21.3966 5.31489 21.3977 5.31506 21.3988C5.41264 21.6532 5.79369 22.5529 6.41772 23.3161C6.59899 23.5373 6.79333 23.7484 6.99979 23.9483C6.33829 23.5098 5.74833 22.9797 5.24919 22.3752C4.63053 21.6209 4.24899 20.7306 4.14946 20.4678C4.14934 20.4659 4.14934 20.464 4.14946 20.4622V20.4589C3.99431 20.0132 3.66839 18.9414 3.71376 17.9024C3.79232 16.0716 4.43635 14.9479 4.60663 14.6664C5.0569 13.8972 5.64331 13.2089 6.33966 12.6323C6.95372 12.1355 7.64991 11.7404 8.39958 11.4632C8.86719 11.2772 9.35432 11.1401 9.85256 11.054C10.6034 10.9284 11.3703 10.9175 12.1247 11.0218V11.8869C11.2453 11.9007 10.3768 12.0752 9.56567 12.4012Z" fill="#69C9D0"/>
<path d="M18.5853 3.63837H15.6579V18.5373C15.6579 19.0611 15.6579 19.5661 15.4764 20.0707C15.1807 20.8759 14.5518 21.6031 13.7136 21.9258C12.4553 22.4102 11.4716 22.3564 10.2982 21.6134C10.0069 21.4212 9.75077 21.1842 9.54004 20.9119C10.5398 21.4231 11.4346 21.4142 12.5431 20.9877C13.3808 20.665 14.0107 19.9379 14.3054 19.1322C14.4898 18.629 14.4874 18.1226 14.4874 17.5993V2.69751H18.5296C18.5296 2.69751 18.4843 3.06787 18.5853 3.63837ZM24.121 8.08454V8.91364C23.6465 8.80531 23.1864 8.64511 22.75 8.43619C21.9045 8.0317 21.2458 7.37282 21.117 7.23954C21.2665 7.3336 21.4216 7.41916 21.5815 7.4958C22.6095 7.98774 23.6219 8.13458 24.121 8.08454Z" fill="#69C9D0"/>
</svg>
