<svg width="39" height="39" viewBox="0 0 39 39" fill="none" xmlns="http://www.w3.org/2000/svg">
<path d="M10.8084 23.6944C10.9955 22.1454 11.6308 21.2781 12.828 20.3891C14.5409 19.185 16.6807 19.8661 16.6807 19.8661V15.8255C17.2008 15.8122 17.7212 15.8431 18.2358 15.9177V21.1175C18.2358 21.1175 16.0967 20.4364 14.3837 21.6411C13.1872 22.5295 12.5506 23.3974 12.3642 24.9464C12.3583 25.7875 12.5162 26.887 13.2431 27.8377C13.0633 27.7455 12.8802 27.6405 12.6935 27.5227C11.0923 26.4475 10.8006 24.8343 10.8084 23.6944ZM27.0707 8.35451C25.8924 7.06327 25.4468 5.75957 25.2857 4.84375H26.768C26.768 4.84375 26.4725 7.24506 28.6265 9.60653L28.6564 9.63828C28.0758 9.2731 27.5434 8.84206 27.0707 8.35451ZM34.2116 12.0153V17.1105C34.2116 17.1105 32.32 17.0365 30.9202 16.6803C28.9656 16.1823 27.7093 15.4184 27.7093 15.4184C27.7093 15.4184 26.8414 14.8736 26.7713 14.8356V25.3573C26.7713 25.9432 26.6108 27.4062 26.1217 28.6265C25.4832 30.2228 24.4977 31.2706 24.3165 31.4848C24.3165 31.4848 23.118 32.9012 21.0036 33.855C19.0978 34.7154 17.4244 34.6936 16.9242 34.7154C16.9242 34.7154 14.0317 34.8299 11.4288 33.1384C10.8659 32.7655 10.3405 32.3433 9.85938 31.877L9.87237 31.8864C12.4759 33.5779 15.3678 33.4634 15.3678 33.4634C15.8687 33.4416 17.542 33.4634 19.4472 32.6029C21.5597 31.6491 22.7601 30.2328 22.7601 30.2328C22.9394 30.0186 23.9294 28.9708 24.5653 27.3739C25.0531 26.1542 25.2149 24.6905 25.2149 24.1047V13.5842C25.285 13.6228 26.1522 14.1676 26.1522 14.1676C26.1522 14.1676 27.4092 14.9321 29.3638 15.4296C30.7643 15.7857 32.6552 15.8598 32.6552 15.8598V11.8671C33.3022 12.0122 33.8537 12.0514 34.2116 12.0153Z" fill="#EE1D52"/>
<path d="M32.6555 11.8671V15.8585C32.6555 15.8585 30.7646 15.7844 29.3641 15.4283C27.4095 14.9302 26.1525 14.1663 26.1525 14.1663C26.1525 14.1663 25.2853 13.6216 25.2152 13.583V24.1059C25.2152 24.6918 25.0547 26.1555 24.5656 27.3751C23.9271 28.972 22.9416 30.0198 22.7604 30.234C22.7604 30.234 21.5613 31.6504 19.4475 32.6042C17.5423 33.4646 15.869 33.4428 15.3681 33.4646C15.3681 33.4646 12.4762 33.5792 9.87267 31.8876L9.85968 31.8783C9.5848 31.6121 9.32606 31.3311 9.08472 31.0365C8.2539 30.0236 7.74463 28.8257 7.61666 28.4839C7.61644 28.4825 7.61644 28.481 7.61666 28.4796C7.41075 27.8856 6.97812 26.4593 7.03724 25.0778C7.14182 22.6403 7.99927 21.1443 8.22597 20.7695C8.82638 19.7474 9.60729 18.833 10.5339 18.0668C11.3517 17.4057 12.2785 16.8797 13.2765 16.5104C14.3553 16.0767 15.5106 15.8443 16.6803 15.8255V19.8661C16.6803 19.8661 14.5406 19.1875 12.8283 20.3891C11.6311 21.2781 10.9958 22.1454 10.8087 23.6944C10.8009 24.8343 11.0926 26.4475 12.6925 27.5233C12.8792 27.6416 13.0623 27.7466 13.2421 27.8383C13.5216 28.2016 13.8618 28.5182 14.2489 28.7753C15.8118 29.7646 17.1214 29.8337 18.796 29.1912C19.9126 28.7616 20.7532 27.7935 21.1429 26.7208C21.3878 26.0509 21.3846 25.3766 21.3846 24.6793V4.84375H25.2821C25.4432 5.75957 25.8888 7.06327 27.0671 8.35451C27.5398 8.84206 28.0722 9.2731 28.6528 9.63828C28.8243 9.81571 29.7012 10.6929 30.8269 11.2315C31.409 11.5098 32.0226 11.7231 32.6555 11.8671V11.8671Z" fill="black"/>
<path d="M6.06592 27.2432V27.2463L6.16263 27.5084C6.15152 27.4779 6.11558 27.3851 6.06592 27.2432Z" fill="#69C9D0"/>
<path d="M13.2768 16.511C12.2788 16.8803 11.352 17.4064 10.5343 18.0675C9.60731 18.8353 8.8266 19.7517 8.22694 20.7757C8.00023 21.1493 7.14278 22.6466 7.0382 25.084C6.97909 26.4655 7.41171 27.8919 7.61763 28.4858C7.6174 28.4872 7.6174 28.4887 7.61763 28.4902C7.74754 28.8288 8.25487 30.0267 9.08569 31.0428C9.32702 31.3373 9.58576 31.6183 9.86064 31.8845C8.97993 31.3007 8.19447 30.5949 7.52993 29.7901C6.70626 28.7859 6.19829 27.6005 6.06577 27.2506C6.06562 27.2481 6.06562 27.2456 6.06577 27.2431V27.2388C5.8592 26.6454 5.42528 25.2185 5.48569 23.8351C5.59028 21.3977 6.44773 19.9016 6.67443 19.5268C7.27391 18.5027 8.05465 17.5863 8.98175 16.8186C9.7993 16.1572 10.7262 15.6312 11.7243 15.2621C12.3469 15.0145 12.9954 14.8319 13.6588 14.7173C14.6584 14.5501 15.6795 14.5356 16.6839 14.6744V15.8262C15.5131 15.8445 14.3567 16.077 13.2768 16.511Z" fill="#69C9D0"/>
<path d="M25.2853 4.84444H21.3878V24.6806C21.3878 25.3779 21.3878 26.0503 21.1462 26.7221C20.7525 27.7942 19.9152 28.7623 18.7992 29.1919C17.1239 29.8369 15.8144 29.7653 14.2521 28.776C13.8643 28.5201 13.5232 28.2045 13.2427 27.8421C14.5737 28.5226 15.765 28.5108 17.2409 27.943C18.3562 27.5134 19.1948 26.5453 19.5872 25.4725C19.8327 24.8026 19.8295 24.1284 19.8295 23.4317V3.5918H25.2113C25.2113 3.5918 25.1508 4.08488 25.2853 4.84444ZM32.6555 10.764V11.8678C32.0237 11.7236 31.4112 11.5103 30.8302 11.2322C29.7044 10.6936 28.8275 9.8164 28.656 9.63896C28.855 9.76418 29.0615 9.87811 29.2744 9.98014C30.6431 10.6351 31.991 10.8306 32.6555 10.764Z" fill="#69C9D0"/>
</svg>
