<svg width="48" height="48" viewBox="0 0 48 48" fill="none" xmlns="http://www.w3.org/2000/svg">
<path d="M42.9147 23.2227V8.22058C42.9147 7.15997 42.4934 6.14289 41.7438 5.39318C40.994 4.64345 39.977 4.22224 38.9168 4.22224H34.5187V1.33282C34.5187 0.596719 33.922 0 33.1859 0C32.4498 0 31.8531 0.596707 31.8531 1.33282V4.22224H10.8004V1.33282C10.8004 0.596719 10.2037 0 9.46762 0C8.73196 0 8.13525 0.596707 8.13525 1.33282V4.22224H3.99834C2.93773 4.22224 1.92065 4.6435 1.17094 5.39318C0.421212 6.14292 0 7.15996 0 8.22058V38.917C0 39.9772 0.421257 40.9943 1.17094 41.744C1.92068 42.4937 2.93771 42.9149 3.99834 42.9149H23.2218C25.7304 45.9556 29.4061 47.7963 33.3433 47.984C37.281 48.1722 41.1149 46.6904 43.9024 43.903C46.6898 41.1155 48.1717 37.2816 47.9835 33.3439C47.7957 29.4065 45.955 25.7309 42.9144 23.2223L42.9147 23.2227ZM3.99845 6.88776H8.13537V9.7719H8.13581C8.13581 10.5076 8.73251 11.1043 9.46817 11.1043C10.2043 11.1043 10.801 10.5076 10.801 9.7719V6.88776H31.8537V9.7719C31.8537 10.5076 32.4504 11.1043 33.1865 11.1043C33.9226 11.1043 34.5193 10.5076 34.5193 9.7719V6.88776H38.9174C39.2705 6.88776 39.6095 7.02804 39.8597 7.27779C40.1095 7.528 40.2502 7.86703 40.2502 8.22056V14.6603H2.66561V8.22056C2.66561 7.48446 3.26232 6.88774 3.99843 6.88774L3.99845 6.88776ZM3.99845 40.2499H3.99889C3.26279 40.2499 2.66608 39.6532 2.66608 38.917V17.3263H40.2506V21.4791C36.7262 19.7101 32.6183 19.5109 28.9397 20.9316C25.2609 22.3524 22.3531 25.2602 20.9323 28.939C19.5116 32.6178 19.7107 36.7256 21.4798 40.2499L3.99845 40.2499ZM33.9857 45.3141C30.9815 45.3141 28.1001 44.1207 25.9753 41.9959C23.851 39.8716 22.6571 36.9901 22.6571 33.9855C22.6571 30.9813 23.8509 28.0998 25.9753 25.9751C28.1001 23.8508 30.9816 22.6569 33.9857 22.6569C36.9903 22.6569 39.8718 23.8507 41.9961 25.9751C44.1209 28.0998 45.3143 30.9814 45.3143 33.9855C45.3117 36.9893 44.1169 39.869 41.9931 41.9929C39.8693 44.1167 36.9895 45.3114 33.9857 45.3141Z" fill="url(#paint0_linear_230_784)"/>
<path d="M35.3185 32.6541V28.1707C35.3185 27.4346 34.7218 26.8379 33.9856 26.8379C33.2495 26.8379 32.6528 27.4346 32.6528 28.1707V33.5872C32.6528 34.041 32.8331 34.4763 33.1541 34.7973C33.4751 35.1183 33.9104 35.2986 34.3642 35.2986H41.4917C42.2278 35.2986 42.8245 34.7019 42.8245 33.9658C42.8245 33.2297 42.2278 32.633 41.4917 32.633L35.3185 32.6541Z" fill="url(#paint1_linear_230_784)"/>
<defs>
<linearGradient id="paint0_linear_230_784" x1="-1.78812e-07" y1="24" x2="47.9994" y2="24" gradientUnits="userSpaceOnUse">
<stop stop-color="#FF1C96"/>
<stop offset="1" stop-color="#FCA650"/>
</linearGradient>
<linearGradient id="paint1_linear_230_784" x1="32.6528" y1="31.0682" x2="42.8245" y2="31.0682" gradientUnits="userSpaceOnUse">
<stop stop-color="#FF1C96"/>
<stop offset="1" stop-color="#FCA650"/>
</linearGradient>
</defs>
</svg>
