<svg width="96" height="96" viewBox="0 0 96 96" fill="none" xmlns="http://www.w3.org/2000/svg">
<g opacity="0.4" clip-path="url(#clip0_233_792)">
<path d="M1.2973 2.59459C2.01378 2.59459 2.59459 2.01378 2.59459 1.2973C2.59459 0.58082 2.01378 0 1.2973 0C0.58082 0 0 0.58082 0 1.2973C0 2.01378 0.58082 2.59459 1.2973 2.59459Z" fill="#525252"/>
<path d="M11.6757 2.59459C12.3922 2.59459 12.973 2.01378 12.973 1.2973C12.973 0.58082 12.3922 0 11.6757 0C10.9592 0 10.3784 0.58082 10.3784 1.2973C10.3784 2.01378 10.9592 2.59459 11.6757 2.59459Z" fill="#525252"/>
<path d="M22.0541 2.59459C22.7706 2.59459 23.3514 2.01378 23.3514 1.2973C23.3514 0.58082 22.7706 0 22.0541 0C21.3377 0 20.7568 0.58082 20.7568 1.2973C20.7568 2.01378 21.3377 2.59459 22.0541 2.59459Z" fill="#525252"/>
<path d="M32.4326 2.59459C33.149 2.59459 33.7299 2.01378 33.7299 1.2973C33.7299 0.58082 33.149 0 32.4326 0C31.7161 0 31.1353 0.58082 31.1353 1.2973C31.1353 2.01378 31.7161 2.59459 32.4326 2.59459Z" fill="#525252"/>
<path d="M42.811 2.59459C43.5274 2.59459 44.1083 2.01378 44.1083 1.2973C44.1083 0.58082 43.5274 0 42.811 0C42.0945 0 41.5137 0.58082 41.5137 1.2973C41.5137 2.01378 42.0945 2.59459 42.811 2.59459Z" fill="#525252"/>
<path d="M53.1894 2.59459C53.9059 2.59459 54.4867 2.01378 54.4867 1.2973C54.4867 0.58082 53.9059 0 53.1894 0C52.4729 0 51.8921 0.58082 51.8921 1.2973C51.8921 2.01378 52.4729 2.59459 53.1894 2.59459Z" fill="#525252"/>
<path d="M63.5673 2.59459C64.2838 2.59459 64.8646 2.01378 64.8646 1.2973C64.8646 0.58082 64.2838 0 63.5673 0C62.8508 0 62.27 0.58082 62.27 1.2973C62.27 2.01378 62.8508 2.59459 63.5673 2.59459Z" fill="#525252"/>
<path d="M73.9457 2.59459C74.6622 2.59459 75.243 2.01378 75.243 1.2973C75.243 0.58082 74.6622 0 73.9457 0C73.2293 0 72.6484 0.58082 72.6484 1.2973C72.6484 2.01378 73.2293 2.59459 73.9457 2.59459Z" fill="#525252"/>
<path d="M84.3242 2.59459C85.0406 2.59459 85.6214 2.01378 85.6214 1.2973C85.6214 0.58082 85.0406 0 84.3242 0C83.6077 0 83.0269 0.58082 83.0269 1.2973C83.0269 2.01378 83.6077 2.59459 84.3242 2.59459Z" fill="#525252"/>
<path d="M94.7026 2.59459C95.419 2.59459 95.9999 2.01378 95.9999 1.2973C95.9999 0.58082 95.419 0 94.7026 0C93.9861 0 93.4053 0.58082 93.4053 1.2973C93.4053 2.01378 93.9861 2.59459 94.7026 2.59459Z" fill="#525252"/>
<path d="M1.2973 13.1891C2.01378 13.1891 2.59459 12.6083 2.59459 11.8918C2.59459 11.1753 2.01378 10.5945 1.2973 10.5945C0.58082 10.5945 0 11.1753 0 11.8918C0 12.6083 0.58082 13.1891 1.2973 13.1891Z" fill="#525252"/>
<path d="M11.6757 13.1891C12.3922 13.1891 12.973 12.6083 12.973 11.8918C12.973 11.1753 12.3922 10.5945 11.6757 10.5945C10.9592 10.5945 10.3784 11.1753 10.3784 11.8918C10.3784 12.6083 10.9592 13.1891 11.6757 13.1891Z" fill="#525252"/>
<path d="M22.0541 13.1891C22.7706 13.1891 23.3514 12.6083 23.3514 11.8918C23.3514 11.1753 22.7706 10.5945 22.0541 10.5945C21.3377 10.5945 20.7568 11.1753 20.7568 11.8918C20.7568 12.6083 21.3377 13.1891 22.0541 13.1891Z" fill="#525252"/>
<path d="M32.4326 13.1891C33.149 13.1891 33.7299 12.6083 33.7299 11.8918C33.7299 11.1753 33.149 10.5945 32.4326 10.5945C31.7161 10.5945 31.1353 11.1753 31.1353 11.8918C31.1353 12.6083 31.7161 13.1891 32.4326 13.1891Z" fill="#525252"/>
<path d="M42.811 13.1891C43.5274 13.1891 44.1083 12.6083 44.1083 11.8918C44.1083 11.1753 43.5274 10.5945 42.811 10.5945C42.0945 10.5945 41.5137 11.1753 41.5137 11.8918C41.5137 12.6083 42.0945 13.1891 42.811 13.1891Z" fill="#525252"/>
<path d="M53.1894 13.1891C53.9059 13.1891 54.4867 12.6083 54.4867 11.8918C54.4867 11.1753 53.9059 10.5945 53.1894 10.5945C52.4729 10.5945 51.8921 11.1753 51.8921 11.8918C51.8921 12.6083 52.4729 13.1891 53.1894 13.1891Z" fill="#525252"/>
<path d="M63.5673 13.1891C64.2838 13.1891 64.8646 12.6083 64.8646 11.8918C64.8646 11.1753 64.2838 10.5945 63.5673 10.5945C62.8508 10.5945 62.27 11.1753 62.27 11.8918C62.27 12.6083 62.8508 13.1891 63.5673 13.1891Z" fill="#525252"/>
<path d="M73.9457 13.1891C74.6622 13.1891 75.243 12.6083 75.243 11.8918C75.243 11.1753 74.6622 10.5945 73.9457 10.5945C73.2293 10.5945 72.6484 11.1753 72.6484 11.8918C72.6484 12.6083 73.2293 13.1891 73.9457 13.1891Z" fill="#525252"/>
<path d="M84.3242 13.1891C85.0406 13.1891 85.6214 12.6083 85.6214 11.8918C85.6214 11.1753 85.0406 10.5945 84.3242 10.5945C83.6077 10.5945 83.0269 11.1753 83.0269 11.8918C83.0269 12.6083 83.6077 13.1891 84.3242 13.1891Z" fill="#525252"/>
<path d="M94.7026 13.1891C95.419 13.1891 95.9999 12.6083 95.9999 11.8918C95.9999 11.1753 95.419 10.5945 94.7026 10.5945C93.9861 10.5945 93.4053 11.1753 93.4053 11.8918C93.4053 12.6083 93.9861 13.1891 94.7026 13.1891Z" fill="#525252"/>
<path d="M1.2973 23.7836C2.01378 23.7836 2.59459 23.2027 2.59459 22.4863C2.59459 21.7698 2.01378 21.189 1.2973 21.189C0.58082 21.189 0 21.7698 0 22.4863C0 23.2027 0.58082 23.7836 1.2973 23.7836Z" fill="#525252"/>
<path d="M11.6757 23.7836C12.3922 23.7836 12.973 23.2027 12.973 22.4863C12.973 21.7698 12.3922 21.189 11.6757 21.189C10.9592 21.189 10.3784 21.7698 10.3784 22.4863C10.3784 23.2027 10.9592 23.7836 11.6757 23.7836Z" fill="#525252"/>
<path d="M22.0541 23.7836C22.7706 23.7836 23.3514 23.2027 23.3514 22.4863C23.3514 21.7698 22.7706 21.189 22.0541 21.189C21.3377 21.189 20.7568 21.7698 20.7568 22.4863C20.7568 23.2027 21.3377 23.7836 22.0541 23.7836Z" fill="#525252"/>
<path d="M32.4326 23.7836C33.149 23.7836 33.7299 23.2027 33.7299 22.4863C33.7299 21.7698 33.149 21.189 32.4326 21.189C31.7161 21.189 31.1353 21.7698 31.1353 22.4863C31.1353 23.2027 31.7161 23.7836 32.4326 23.7836Z" fill="#525252"/>
<path d="M42.811 23.7836C43.5274 23.7836 44.1083 23.2027 44.1083 22.4863C44.1083 21.7698 43.5274 21.189 42.811 21.189C42.0945 21.189 41.5137 21.7698 41.5137 22.4863C41.5137 23.2027 42.0945 23.7836 42.811 23.7836Z" fill="#525252"/>
<path d="M53.1894 23.7836C53.9059 23.7836 54.4867 23.2027 54.4867 22.4863C54.4867 21.7698 53.9059 21.189 53.1894 21.189C52.4729 21.189 51.8921 21.7698 51.8921 22.4863C51.8921 23.2027 52.4729 23.7836 53.1894 23.7836Z" fill="#525252"/>
<path d="M63.5673 23.7836C64.2838 23.7836 64.8646 23.2027 64.8646 22.4863C64.8646 21.7698 64.2838 21.189 63.5673 21.189C62.8508 21.189 62.27 21.7698 62.27 22.4863C62.27 23.2027 62.8508 23.7836 63.5673 23.7836Z" fill="#525252"/>
<path d="M73.9457 23.7836C74.6622 23.7836 75.243 23.2027 75.243 22.4863C75.243 21.7698 74.6622 21.189 73.9457 21.189C73.2293 21.189 72.6484 21.7698 72.6484 22.4863C72.6484 23.2027 73.2293 23.7836 73.9457 23.7836Z" fill="#525252"/>
<path d="M84.3242 23.7836C85.0406 23.7836 85.6214 23.2027 85.6214 22.4863C85.6214 21.7698 85.0406 21.189 84.3242 21.189C83.6077 21.189 83.0269 21.7698 83.0269 22.4863C83.0269 23.2027 83.6077 23.7836 84.3242 23.7836Z" fill="#525252"/>
<path d="M94.7026 23.7836C95.419 23.7836 95.9999 23.2027 95.9999 22.4863C95.9999 21.7698 95.419 21.189 94.7026 21.189C93.9861 21.189 93.4053 21.7698 93.4053 22.4863C93.4053 23.2027 93.9861 23.7836 94.7026 23.7836Z" fill="#525252"/>
<path d="M1.2973 34.378C2.01378 34.378 2.59459 33.7972 2.59459 33.0807C2.59459 32.3643 2.01378 31.7834 1.2973 31.7834C0.58082 31.7834 0 32.3643 0 33.0807C0 33.7972 0.58082 34.378 1.2973 34.378Z" fill="#525252"/>
<path d="M11.6757 34.378C12.3922 34.378 12.973 33.7972 12.973 33.0807C12.973 32.3643 12.3922 31.7834 11.6757 31.7834C10.9592 31.7834 10.3784 32.3643 10.3784 33.0807C10.3784 33.7972 10.9592 34.378 11.6757 34.378Z" fill="#525252"/>
<path d="M22.0541 34.378C22.7706 34.378 23.3514 33.7972 23.3514 33.0807C23.3514 32.3643 22.7706 31.7834 22.0541 31.7834C21.3377 31.7834 20.7568 32.3643 20.7568 33.0807C20.7568 33.7972 21.3377 34.378 22.0541 34.378Z" fill="#525252"/>
<path d="M32.4326 34.378C33.149 34.378 33.7299 33.7972 33.7299 33.0807C33.7299 32.3643 33.149 31.7834 32.4326 31.7834C31.7161 31.7834 31.1353 32.3643 31.1353 33.0807C31.1353 33.7972 31.7161 34.378 32.4326 34.378Z" fill="#525252"/>
<path d="M42.811 34.378C43.5274 34.378 44.1083 33.7972 44.1083 33.0807C44.1083 32.3643 43.5274 31.7834 42.811 31.7834C42.0945 31.7834 41.5137 32.3643 41.5137 33.0807C41.5137 33.7972 42.0945 34.378 42.811 34.378Z" fill="#525252"/>
<path d="M53.1894 34.378C53.9059 34.378 54.4867 33.7972 54.4867 33.0807C54.4867 32.3643 53.9059 31.7834 53.1894 31.7834C52.4729 31.7834 51.8921 32.3643 51.8921 33.0807C51.8921 33.7972 52.4729 34.378 53.1894 34.378Z" fill="#525252"/>
<path d="M63.5673 34.378C64.2838 34.378 64.8646 33.7972 64.8646 33.0807C64.8646 32.3643 64.2838 31.7834 63.5673 31.7834C62.8508 31.7834 62.27 32.3643 62.27 33.0807C62.27 33.7972 62.8508 34.378 63.5673 34.378Z" fill="#525252"/>
<path d="M73.9457 34.378C74.6622 34.378 75.243 33.7972 75.243 33.0807C75.243 32.3643 74.6622 31.7834 73.9457 31.7834C73.2293 31.7834 72.6484 32.3643 72.6484 33.0807C72.6484 33.7972 73.2293 34.378 73.9457 34.378Z" fill="#525252"/>
<path d="M84.3242 34.378C85.0406 34.378 85.6214 33.7972 85.6214 33.0807C85.6214 32.3643 85.0406 31.7834 84.3242 31.7834C83.6077 31.7834 83.0269 32.3643 83.0269 33.0807C83.0269 33.7972 83.6077 34.378 84.3242 34.378Z" fill="#525252"/>
<path d="M94.7026 34.378C95.419 34.378 95.9999 33.7972 95.9999 33.0807C95.9999 32.3643 95.419 31.7834 94.7026 31.7834C93.9861 31.7834 93.4053 32.3643 93.4053 33.0807C93.4053 33.7972 93.9861 34.378 94.7026 34.378Z" fill="#525252"/>
<path d="M1.2973 44.9725C2.01378 44.9725 2.59459 44.3917 2.59459 43.6752C2.59459 42.9587 2.01378 42.3779 1.2973 42.3779C0.58082 42.3779 0 42.9587 0 43.6752C0 44.3917 0.58082 44.9725 1.2973 44.9725Z" fill="#525252"/>
<path d="M11.6757 44.9725C12.3922 44.9725 12.973 44.3917 12.973 43.6752C12.973 42.9587 12.3922 42.3779 11.6757 42.3779C10.9592 42.3779 10.3784 42.9587 10.3784 43.6752C10.3784 44.3917 10.9592 44.9725 11.6757 44.9725Z" fill="#525252"/>
<path d="M22.0541 44.9725C22.7706 44.9725 23.3514 44.3917 23.3514 43.6752C23.3514 42.9587 22.7706 42.3779 22.0541 42.3779C21.3377 42.3779 20.7568 42.9587 20.7568 43.6752C20.7568 44.3917 21.3377 44.9725 22.0541 44.9725Z" fill="#525252"/>
<path d="M32.4326 44.9725C33.149 44.9725 33.7299 44.3917 33.7299 43.6752C33.7299 42.9587 33.149 42.3779 32.4326 42.3779C31.7161 42.3779 31.1353 42.9587 31.1353 43.6752C31.1353 44.3917 31.7161 44.9725 32.4326 44.9725Z" fill="#525252"/>
<path d="M42.811 44.9725C43.5274 44.9725 44.1083 44.3917 44.1083 43.6752C44.1083 42.9587 43.5274 42.3779 42.811 42.3779C42.0945 42.3779 41.5137 42.9587 41.5137 43.6752C41.5137 44.3917 42.0945 44.9725 42.811 44.9725Z" fill="#525252"/>
<path d="M53.1894 44.9725C53.9059 44.9725 54.4867 44.3917 54.4867 43.6752C54.4867 42.9587 53.9059 42.3779 53.1894 42.3779C52.4729 42.3779 51.8921 42.9587 51.8921 43.6752C51.8921 44.3917 52.4729 44.9725 53.1894 44.9725Z" fill="#525252"/>
<path d="M63.5673 44.9725C64.2838 44.9725 64.8646 44.3917 64.8646 43.6752C64.8646 42.9587 64.2838 42.3779 63.5673 42.3779C62.8508 42.3779 62.27 42.9587 62.27 43.6752C62.27 44.3917 62.8508 44.9725 63.5673 44.9725Z" fill="#525252"/>
<path d="M73.9457 44.9725C74.6622 44.9725 75.243 44.3917 75.243 43.6752C75.243 42.9587 74.6622 42.3779 73.9457 42.3779C73.2293 42.3779 72.6484 42.9587 72.6484 43.6752C72.6484 44.3917 73.2293 44.9725 73.9457 44.9725Z" fill="#525252"/>
<path d="M84.3242 44.9725C85.0406 44.9725 85.6214 44.3917 85.6214 43.6752C85.6214 42.9587 85.0406 42.3779 84.3242 42.3779C83.6077 42.3779 83.0269 42.9587 83.0269 43.6752C83.0269 44.3917 83.6077 44.9725 84.3242 44.9725Z" fill="#525252"/>
<path d="M94.7026 44.9725C95.419 44.9725 95.9999 44.3917 95.9999 43.6752C95.9999 42.9587 95.419 42.3779 94.7026 42.3779C93.9861 42.3779 93.4053 42.9587 93.4053 43.6752C93.4053 44.3917 93.9861 44.9725 94.7026 44.9725Z" fill="#525252"/>
<path d="M1.2973 55.567C2.01378 55.567 2.59459 54.9862 2.59459 54.2697C2.59459 53.5532 2.01378 52.9724 1.2973 52.9724C0.58082 52.9724 0 53.5532 0 54.2697C0 54.9862 0.58082 55.567 1.2973 55.567Z" fill="#525252"/>
<path d="M11.6757 55.567C12.3922 55.567 12.973 54.9862 12.973 54.2697C12.973 53.5532 12.3922 52.9724 11.6757 52.9724C10.9592 52.9724 10.3784 53.5532 10.3784 54.2697C10.3784 54.9862 10.9592 55.567 11.6757 55.567Z" fill="#525252"/>
<path d="M22.0541 55.567C22.7706 55.567 23.3514 54.9862 23.3514 54.2697C23.3514 53.5532 22.7706 52.9724 22.0541 52.9724C21.3377 52.9724 20.7568 53.5532 20.7568 54.2697C20.7568 54.9862 21.3377 55.567 22.0541 55.567Z" fill="#525252"/>
<path d="M32.4326 55.567C33.149 55.567 33.7299 54.9862 33.7299 54.2697C33.7299 53.5532 33.149 52.9724 32.4326 52.9724C31.7161 52.9724 31.1353 53.5532 31.1353 54.2697C31.1353 54.9862 31.7161 55.567 32.4326 55.567Z" fill="#525252"/>
<path d="M42.811 55.567C43.5274 55.567 44.1083 54.9862 44.1083 54.2697C44.1083 53.5532 43.5274 52.9724 42.811 52.9724C42.0945 52.9724 41.5137 53.5532 41.5137 54.2697C41.5137 54.9862 42.0945 55.567 42.811 55.567Z" fill="#525252"/>
<path d="M53.1894 55.567C53.9059 55.567 54.4867 54.9862 54.4867 54.2697C54.4867 53.5532 53.9059 52.9724 53.1894 52.9724C52.4729 52.9724 51.8921 53.5532 51.8921 54.2697C51.8921 54.9862 52.4729 55.567 53.1894 55.567Z" fill="#525252"/>
<path d="M63.5673 55.567C64.2838 55.567 64.8646 54.9862 64.8646 54.2697C64.8646 53.5532 64.2838 52.9724 63.5673 52.9724C62.8508 52.9724 62.27 53.5532 62.27 54.2697C62.27 54.9862 62.8508 55.567 63.5673 55.567Z" fill="#525252"/>
<path d="M73.9457 55.567C74.6622 55.567 75.243 54.9862 75.243 54.2697C75.243 53.5532 74.6622 52.9724 73.9457 52.9724C73.2293 52.9724 72.6484 53.5532 72.6484 54.2697C72.6484 54.9862 73.2293 55.567 73.9457 55.567Z" fill="#525252"/>
<path d="M84.3242 55.567C85.0406 55.567 85.6214 54.9862 85.6214 54.2697C85.6214 53.5532 85.0406 52.9724 84.3242 52.9724C83.6077 52.9724 83.0269 53.5532 83.0269 54.2697C83.0269 54.9862 83.6077 55.567 84.3242 55.567Z" fill="#525252"/>
<path d="M94.7026 55.567C95.419 55.567 95.9999 54.9862 95.9999 54.2697C95.9999 53.5532 95.419 52.9724 94.7026 52.9724C93.9861 52.9724 93.4053 53.5532 93.4053 54.2697C93.4053 54.9862 93.9861 55.567 94.7026 55.567Z" fill="#525252"/>
<path d="M1.2973 66.1617C2.01378 66.1617 2.59459 65.5809 2.59459 64.8644C2.59459 64.148 2.01378 63.5671 1.2973 63.5671C0.58082 63.5671 0 64.148 0 64.8644C0 65.5809 0.58082 66.1617 1.2973 66.1617Z" fill="#525252"/>
<path d="M11.6757 66.1617C12.3922 66.1617 12.973 65.5809 12.973 64.8644C12.973 64.148 12.3922 63.5671 11.6757 63.5671C10.9592 63.5671 10.3784 64.148 10.3784 64.8644C10.3784 65.5809 10.9592 66.1617 11.6757 66.1617Z" fill="#525252"/>
<path d="M22.0541 66.1617C22.7706 66.1617 23.3514 65.5809 23.3514 64.8644C23.3514 64.148 22.7706 63.5671 22.0541 63.5671C21.3377 63.5671 20.7568 64.148 20.7568 64.8644C20.7568 65.5809 21.3377 66.1617 22.0541 66.1617Z" fill="#525252"/>
<path d="M32.4326 66.1617C33.149 66.1617 33.7299 65.5809 33.7299 64.8644C33.7299 64.148 33.149 63.5671 32.4326 63.5671C31.7161 63.5671 31.1353 64.148 31.1353 64.8644C31.1353 65.5809 31.7161 66.1617 32.4326 66.1617Z" fill="#525252"/>
<path d="M42.811 66.1617C43.5274 66.1617 44.1083 65.5809 44.1083 64.8644C44.1083 64.148 43.5274 63.5671 42.811 63.5671C42.0945 63.5671 41.5137 64.148 41.5137 64.8644C41.5137 65.5809 42.0945 66.1617 42.811 66.1617Z" fill="#525252"/>
<path d="M53.1894 66.1617C53.9059 66.1617 54.4867 65.5809 54.4867 64.8644C54.4867 64.148 53.9059 63.5671 53.1894 63.5671C52.4729 63.5671 51.8921 64.148 51.8921 64.8644C51.8921 65.5809 52.4729 66.1617 53.1894 66.1617Z" fill="#525252"/>
<path d="M63.5673 66.1617C64.2838 66.1617 64.8646 65.5809 64.8646 64.8644C64.8646 64.148 64.2838 63.5671 63.5673 63.5671C62.8508 63.5671 62.27 64.148 62.27 64.8644C62.27 65.5809 62.8508 66.1617 63.5673 66.1617Z" fill="#525252"/>
<path d="M73.9457 66.1617C74.6622 66.1617 75.243 65.5809 75.243 64.8644C75.243 64.148 74.6622 63.5671 73.9457 63.5671C73.2293 63.5671 72.6484 64.148 72.6484 64.8644C72.6484 65.5809 73.2293 66.1617 73.9457 66.1617Z" fill="#525252"/>
<path d="M84.3242 66.1617C85.0406 66.1617 85.6214 65.5809 85.6214 64.8644C85.6214 64.148 85.0406 63.5671 84.3242 63.5671C83.6077 63.5671 83.0269 64.148 83.0269 64.8644C83.0269 65.5809 83.6077 66.1617 84.3242 66.1617Z" fill="#525252"/>
<path d="M94.7026 66.1617C95.419 66.1617 95.9999 65.5809 95.9999 64.8644C95.9999 64.148 95.419 63.5671 94.7026 63.5671C93.9861 63.5671 93.4053 64.148 93.4053 64.8644C93.4053 65.5809 93.9861 66.1617 94.7026 66.1617Z" fill="#525252"/>
<path d="M1.2973 76.7562C2.01378 76.7562 2.59459 76.1754 2.59459 75.4589C2.59459 74.7424 2.01378 74.1616 1.2973 74.1616C0.58082 74.1616 0 74.7424 0 75.4589C0 76.1754 0.58082 76.7562 1.2973 76.7562Z" fill="#525252"/>
<path d="M11.6757 76.7562C12.3922 76.7562 12.973 76.1754 12.973 75.4589C12.973 74.7424 12.3922 74.1616 11.6757 74.1616C10.9592 74.1616 10.3784 74.7424 10.3784 75.4589C10.3784 76.1754 10.9592 76.7562 11.6757 76.7562Z" fill="#525252"/>
<path d="M22.0541 76.7562C22.7706 76.7562 23.3514 76.1754 23.3514 75.4589C23.3514 74.7424 22.7706 74.1616 22.0541 74.1616C21.3377 74.1616 20.7568 74.7424 20.7568 75.4589C20.7568 76.1754 21.3377 76.7562 22.0541 76.7562Z" fill="#525252"/>
<path d="M32.4326 76.7562C33.149 76.7562 33.7299 76.1754 33.7299 75.4589C33.7299 74.7424 33.149 74.1616 32.4326 74.1616C31.7161 74.1616 31.1353 74.7424 31.1353 75.4589C31.1353 76.1754 31.7161 76.7562 32.4326 76.7562Z" fill="#525252"/>
<path d="M42.811 76.7562C43.5274 76.7562 44.1083 76.1754 44.1083 75.4589C44.1083 74.7424 43.5274 74.1616 42.811 74.1616C42.0945 74.1616 41.5137 74.7424 41.5137 75.4589C41.5137 76.1754 42.0945 76.7562 42.811 76.7562Z" fill="#525252"/>
<path d="M53.1894 76.7562C53.9059 76.7562 54.4867 76.1754 54.4867 75.4589C54.4867 74.7424 53.9059 74.1616 53.1894 74.1616C52.4729 74.1616 51.8921 74.7424 51.8921 75.4589C51.8921 76.1754 52.4729 76.7562 53.1894 76.7562Z" fill="#525252"/>
<path d="M63.5673 76.7562C64.2838 76.7562 64.8646 76.1754 64.8646 75.4589C64.8646 74.7424 64.2838 74.1616 63.5673 74.1616C62.8508 74.1616 62.27 74.7424 62.27 75.4589C62.27 76.1754 62.8508 76.7562 63.5673 76.7562Z" fill="#525252"/>
<path d="M73.9457 76.7562C74.6622 76.7562 75.243 76.1754 75.243 75.4589C75.243 74.7424 74.6622 74.1616 73.9457 74.1616C73.2293 74.1616 72.6484 74.7424 72.6484 75.4589C72.6484 76.1754 73.2293 76.7562 73.9457 76.7562Z" fill="#525252"/>
<path d="M84.3242 76.7562C85.0406 76.7562 85.6214 76.1754 85.6214 75.4589C85.6214 74.7424 85.0406 74.1616 84.3242 74.1616C83.6077 74.1616 83.0269 74.7424 83.0269 75.4589C83.0269 76.1754 83.6077 76.7562 84.3242 76.7562Z" fill="#525252"/>
<path d="M94.7026 76.7562C95.419 76.7562 95.9999 76.1754 95.9999 75.4589C95.9999 74.7424 95.419 74.1616 94.7026 74.1616C93.9861 74.1616 93.4053 74.7424 93.4053 75.4589C93.4053 76.1754 93.9861 76.7562 94.7026 76.7562Z" fill="#525252"/>
<path d="M1.2973 87.3507C2.01378 87.3507 2.59459 86.7699 2.59459 86.0534C2.59459 85.3369 2.01378 84.7561 1.2973 84.7561C0.58082 84.7561 0 85.3369 0 86.0534C0 86.7699 0.58082 87.3507 1.2973 87.3507Z" fill="#525252"/>
<path d="M11.6757 87.3507C12.3922 87.3507 12.973 86.7699 12.973 86.0534C12.973 85.3369 12.3922 84.7561 11.6757 84.7561C10.9592 84.7561 10.3784 85.3369 10.3784 86.0534C10.3784 86.7699 10.9592 87.3507 11.6757 87.3507Z" fill="#525252"/>
<path d="M22.0541 87.3507C22.7706 87.3507 23.3514 86.7699 23.3514 86.0534C23.3514 85.3369 22.7706 84.7561 22.0541 84.7561C21.3377 84.7561 20.7568 85.3369 20.7568 86.0534C20.7568 86.7699 21.3377 87.3507 22.0541 87.3507Z" fill="#525252"/>
<path d="M32.4326 87.3507C33.149 87.3507 33.7299 86.7699 33.7299 86.0534C33.7299 85.3369 33.149 84.7561 32.4326 84.7561C31.7161 84.7561 31.1353 85.3369 31.1353 86.0534C31.1353 86.7699 31.7161 87.3507 32.4326 87.3507Z" fill="#525252"/>
<path d="M42.811 87.3507C43.5274 87.3507 44.1083 86.7699 44.1083 86.0534C44.1083 85.3369 43.5274 84.7561 42.811 84.7561C42.0945 84.7561 41.5137 85.3369 41.5137 86.0534C41.5137 86.7699 42.0945 87.3507 42.811 87.3507Z" fill="#525252"/>
<path d="M53.1894 87.3507C53.9059 87.3507 54.4867 86.7699 54.4867 86.0534C54.4867 85.3369 53.9059 84.7561 53.1894 84.7561C52.4729 84.7561 51.8921 85.3369 51.8921 86.0534C51.8921 86.7699 52.4729 87.3507 53.1894 87.3507Z" fill="#525252"/>
<path d="M63.5673 87.3507C64.2838 87.3507 64.8646 86.7699 64.8646 86.0534C64.8646 85.3369 64.2838 84.7561 63.5673 84.7561C62.8508 84.7561 62.27 85.3369 62.27 86.0534C62.27 86.7699 62.8508 87.3507 63.5673 87.3507Z" fill="#525252"/>
<path d="M73.9457 87.3507C74.6622 87.3507 75.243 86.7699 75.243 86.0534C75.243 85.3369 74.6622 84.7561 73.9457 84.7561C73.2293 84.7561 72.6484 85.3369 72.6484 86.0534C72.6484 86.7699 73.2293 87.3507 73.9457 87.3507Z" fill="#525252"/>
<path d="M84.3242 87.3507C85.0406 87.3507 85.6214 86.7699 85.6214 86.0534C85.6214 85.3369 85.0406 84.7561 84.3242 84.7561C83.6077 84.7561 83.0269 85.3369 83.0269 86.0534C83.0269 86.7699 83.6077 87.3507 84.3242 87.3507Z" fill="#525252"/>
<path d="M94.7026 87.3507C95.419 87.3507 95.9999 86.7699 95.9999 86.0534C95.9999 85.3369 95.419 84.7561 94.7026 84.7561C93.9861 84.7561 93.4053 85.3369 93.4053 86.0534C93.4053 86.7699 93.9861 87.3507 94.7026 87.3507Z" fill="#525252"/>
<path d="M1.2973 97.9452C2.01378 97.9452 2.59459 97.3644 2.59459 96.6479C2.59459 95.9314 2.01378 95.3506 1.2973 95.3506C0.58082 95.3506 0 95.9314 0 96.6479C0 97.3644 0.58082 97.9452 1.2973 97.9452Z" fill="#525252"/>
<path d="M11.6757 97.9452C12.3922 97.9452 12.973 97.3644 12.973 96.6479C12.973 95.9314 12.3922 95.3506 11.6757 95.3506C10.9592 95.3506 10.3784 95.9314 10.3784 96.6479C10.3784 97.3644 10.9592 97.9452 11.6757 97.9452Z" fill="#525252"/>
<path d="M22.0541 97.9452C22.7706 97.9452 23.3514 97.3644 23.3514 96.6479C23.3514 95.9314 22.7706 95.3506 22.0541 95.3506C21.3377 95.3506 20.7568 95.9314 20.7568 96.6479C20.7568 97.3644 21.3377 97.9452 22.0541 97.9452Z" fill="#525252"/>
<path d="M32.4326 97.9452C33.149 97.9452 33.7299 97.3644 33.7299 96.6479C33.7299 95.9314 33.149 95.3506 32.4326 95.3506C31.7161 95.3506 31.1353 95.9314 31.1353 96.6479C31.1353 97.3644 31.7161 97.9452 32.4326 97.9452Z" fill="#525252"/>
<path d="M42.811 97.9452C43.5274 97.9452 44.1083 97.3644 44.1083 96.6479C44.1083 95.9314 43.5274 95.3506 42.811 95.3506C42.0945 95.3506 41.5137 95.9314 41.5137 96.6479C41.5137 97.3644 42.0945 97.9452 42.811 97.9452Z" fill="#525252"/>
<path d="M53.1894 97.9452C53.9059 97.9452 54.4867 97.3644 54.4867 96.6479C54.4867 95.9314 53.9059 95.3506 53.1894 95.3506C52.4729 95.3506 51.8921 95.9314 51.8921 96.6479C51.8921 97.3644 52.4729 97.9452 53.1894 97.9452Z" fill="#525252"/>
<path d="M63.5673 97.9452C64.2838 97.9452 64.8646 97.3644 64.8646 96.6479C64.8646 95.9314 64.2838 95.3506 63.5673 95.3506C62.8508 95.3506 62.27 95.9314 62.27 96.6479C62.27 97.3644 62.8508 97.9452 63.5673 97.9452Z" fill="#525252"/>
<path d="M73.9457 97.9452C74.6622 97.9452 75.243 97.3644 75.243 96.6479C75.243 95.9314 74.6622 95.3506 73.9457 95.3506C73.2293 95.3506 72.6484 95.9314 72.6484 96.6479C72.6484 97.3644 73.2293 97.9452 73.9457 97.9452Z" fill="#525252"/>
<path d="M84.3242 97.9452C85.0406 97.9452 85.6214 97.3644 85.6214 96.6479C85.6214 95.9314 85.0406 95.3506 84.3242 95.3506C83.6077 95.3506 83.0269 95.9314 83.0269 96.6479C83.0269 97.3644 83.6077 97.9452 84.3242 97.9452Z" fill="#525252"/>
<path d="M94.7026 97.9452C95.419 97.9452 95.9999 97.3644 95.9999 96.6479C95.9999 95.9314 95.419 95.3506 94.7026 95.3506C93.9861 95.3506 93.4053 95.9314 93.4053 96.6479C93.4053 97.3644 93.9861 97.9452 94.7026 97.9452Z" fill="#525252"/>
</g>
<defs>
<clipPath id="clip0_233_792">
<rect width="96" height="96" fill="white"/>
</clipPath>
</defs>
</svg>
