<svg width="49" height="49" viewBox="0 0 49 49" fill="none" xmlns="http://www.w3.org/2000/svg">
<path d="M35.0909 19.3948C33.552 18.0936 31.9787 17.0538 30.4151 16.3045C28.4171 15.3467 26.4269 14.8611 24.4996 14.8611C22.5726 14.8611 20.5822 15.3467 18.5841 16.3042C17.0205 17.0536 15.4473 18.0933 13.9084 19.3945C11.3102 21.5913 9.70789 23.7683 9.64097 23.8599C9.36252 24.2412 9.36252 24.759 9.64097 25.14C9.70791 25.2316 11.3102 27.4083 13.9084 29.6055C15.4473 30.9066 17.0205 31.9464 18.5841 32.6957C20.5822 33.6532 22.5723 34.1389 24.4996 34.1389C26.4267 34.1389 28.4171 33.6532 30.4151 32.6957C31.9787 31.9464 33.552 30.9066 35.0909 29.6055C37.6891 27.4086 39.2914 25.2316 39.3583 25.14C39.6367 24.7587 39.6367 24.241 39.3583 23.8599C39.2913 23.7686 37.6891 21.5916 35.0909 19.3948ZM24.4998 31.9692C18.6116 31.9692 13.4924 26.4159 11.9019 24.5C13.4932 22.5831 18.612 17.0308 24.4998 17.0308C30.3876 17.0308 35.5066 22.5833 37.0978 24.5C35.5067 26.4169 30.3876 31.9692 24.4998 31.9692Z" fill="url(#paint0_linear_226_559)"/>
<path d="M24.4997 19.0156C21.4754 19.0156 19.0151 21.4759 19.0151 24.5002C19.0151 27.5246 21.4754 29.9848 24.4997 29.9848C27.5241 29.9848 29.9844 27.5246 29.9844 24.5002C29.9844 21.4762 27.5241 19.0156 24.4997 19.0156ZM24.4997 27.8154C22.672 27.8154 21.185 26.3285 21.185 24.5007C21.185 22.6729 22.672 21.186 24.4997 21.186C26.3275 21.186 27.8145 22.6729 27.8145 24.5007C27.8147 26.3285 26.3278 27.8154 24.4997 27.8154Z" fill="url(#paint1_linear_226_559)"/>
<defs>
<linearGradient id="paint0_linear_226_559" x1="9.43213" y1="24.5" x2="39.5671" y2="24.5" gradientUnits="userSpaceOnUse">
<stop stop-color="#FF1C96"/>
<stop offset="1" stop-color="#FCA650"/>
</linearGradient>
<linearGradient id="paint1_linear_226_559" x1="19.0151" y1="24.5002" x2="29.9844" y2="24.5002" gradientUnits="userSpaceOnUse">
<stop stop-color="#FF1C96"/>
<stop offset="1" stop-color="#FCA650"/>
</linearGradient>
</defs>
</svg>
