<svg width="40" height="46" viewBox="0 0 40 46" fill="none" xmlns="http://www.w3.org/2000/svg">
<path d="M39.4655 5.3483C39.0987 5.07426 38.6173 5.00397 38.1871 5.16151C32.3954 7.31054 24.8349 3.93648 21.8531 2.38663C17.0094 -0.129846 11.3536 -0.703417 7.09303 0.890873V0.891344C5.44885 1.48331 3.97878 2.47573 2.8178 3.77804L2.6408 3.19032C2.54424 2.84316 2.31138 2.54929 1.99476 2.37524C1.67859 2.20119 1.3047 2.1611 0.958716 2.26487C0.612263 2.36817 0.32261 2.60637 0.154121 2.92524C-0.013896 3.24409 -0.0460756 3.61721 0.0651435 3.96012L1.02357 7.14689C1.03635 7.35113 1.09598 7.55017 1.19821 7.728L6.05042 23.8569V23.8573C6.06888 24.0087 6.11337 24.1564 6.18152 24.2936L12.4162 45.0195C12.5132 45.3662 12.7461 45.6596 13.0627 45.8337C13.3789 46.0073 13.7523 46.0469 14.0983 45.9436C14.4443 45.8403 14.7339 45.6025 14.9019 45.2842C15.0704 44.9653 15.1026 44.5927 14.9923 44.2498L8.80781 23.6905C10.9329 17.3109 15.2115 14.6972 21.5554 15.9497C28.8261 17.3827 33.5926 14.8148 35.7835 13.1573C38.2432 11.298 39.8179 8.81734 39.9959 6.52209C40.0318 6.06644 39.8316 5.62352 39.4653 5.34852L39.4655 5.3483ZM34.1579 11.0222C32.3253 12.4081 28.3151 14.55 22.0771 13.3197C15.5589 12.034 10.5368 14.2947 7.60665 19.6993L3.81934 7.10971H3.81886C4.67647 5.36497 6.1939 4.03102 8.03775 3.40033C11.6031 2.0659 16.4193 2.58714 20.6084 4.7635C23.5135 6.2729 30.3796 9.33324 36.6237 8.3252C35.9848 9.37565 35.147 10.2916 34.1565 11.0218L34.1579 11.0222Z" fill="url(#paint0_linear_230_787)"/>
<defs>
<linearGradient id="paint0_linear_230_787" x1="-1.49012e-07" y1="23" x2="40" y2="23" gradientUnits="userSpaceOnUse">
<stop stop-color="#FF1C96"/>
<stop offset="1" stop-color="#FCA650"/>
</linearGradient>
</defs>
</svg>
