<svg width="49" height="49" viewBox="0 0 49 49" fill="none" xmlns="http://www.w3.org/2000/svg">
<path d="M29.1794 19.7793C29.1794 16.4391 26.5317 13.7896 23.252 13.7896C19.9111 13.7896 17.2623 16.4384 17.2623 19.7793C17.2623 23.0587 19.9118 25.7068 23.252 25.7068C26.5307 25.7068 29.1794 23.0583 29.1794 19.7793ZM18.7023 19.7793C18.7023 17.2308 20.7032 15.2297 23.252 15.2297C25.7377 15.2297 27.7397 17.2297 27.7397 19.7793C27.7397 22.2659 25.7386 24.2671 23.252 24.2671C20.7026 24.2671 18.7023 22.265 18.7023 19.7793Z" fill="url(#paint0_linear_226_556)" stroke="url(#paint1_linear_226_556)" stroke-width="0.2"/>
<path d="M32.094 34.4103H32.0946L32.0933 34.3991C31.5913 29.9465 27.7672 26.4984 23.2523 26.4984C18.6754 26.4984 14.9142 29.9462 14.4115 34.3965C14.3434 34.8128 14.6194 35.1867 14.9981 35.1922C15.4108 35.2568 15.7804 34.9837 15.7883 34.6087L15.7884 34.6076C16.2165 30.8147 19.4595 27.9389 23.2525 27.9389C27.0426 27.9389 30.2232 30.811 30.654 34.6023C30.6578 34.9803 31.0292 35.2572 31.4444 35.1922C31.8237 35.1867 32.094 34.814 32.094 34.4103Z" fill="url(#paint2_linear_226_556)" stroke="url(#paint3_linear_226_556)" stroke-width="0.2"/>
<path d="M39.4088 23.4368C39.4088 20.901 37.3172 18.8111 34.721 18.8111C32.186 18.8111 30.0953 20.9019 30.0953 23.4368C30.0953 26.033 32.1851 28.1246 34.721 28.1246C37.318 28.1246 39.4088 26.0339 39.4088 23.4368ZM31.5353 23.4368C31.5353 21.6943 32.9782 20.2512 34.721 20.2512C36.5268 20.2512 37.9687 21.6953 37.9687 23.4368C37.9687 25.2414 36.5256 26.6846 34.721 26.6846C32.9797 26.6846 31.5353 25.2427 31.5353 23.4368Z" fill="url(#paint4_linear_226_556)" stroke="url(#paint5_linear_226_556)" stroke-width="0.2"/>
<path d="M31.2803 30.2936L31.2833 30.301L31.2874 30.3079C31.4964 30.6561 31.9242 30.8077 32.2879 30.593C33.0203 30.2271 33.8722 29.9845 34.7213 29.9845C37.4005 29.9845 39.7128 31.933 40.0778 34.6098L40.0776 34.6098L40.0788 34.6158C40.1504 34.9744 40.5056 35.2586 40.9292 35.1921C41.122 35.1888 41.2855 35.0728 41.3898 34.9251C41.4953 34.7757 41.5515 34.5788 41.5151 34.393C41.0109 31.0596 38.1177 28.5445 34.721 28.5445C33.6482 28.5445 32.5797 28.8596 31.641 29.2977L31.6407 29.2972L31.6318 29.3026C31.2814 29.5129 31.1374 29.936 31.2803 30.2936Z" fill="url(#paint6_linear_226_556)" stroke="url(#paint7_linear_226_556)" stroke-width="0.2"/>
<path d="M16.3458 23.4368C16.3458 20.9019 14.2551 18.8111 11.7201 18.8111C9.12394 18.8111 7.03232 20.901 7.03232 23.4368C7.03232 26.0339 9.12305 28.1246 11.7201 28.1246C14.2559 28.1246 16.3458 26.033 16.3458 23.4368ZM8.47234 23.4368C8.47234 21.6955 9.91427 20.2512 11.7201 20.2512C13.4626 20.2512 14.9058 21.6941 14.9058 23.4368C14.9058 25.2427 13.4616 26.6846 11.7201 26.6846C9.91549 26.6846 8.47234 25.2414 8.47234 23.4368Z" fill="url(#paint8_linear_226_556)" stroke="url(#paint9_linear_226_556)" stroke-width="0.2"/>
<path d="M6.36312 34.6159L6.3871 34.4963H6.38086C6.79479 31.8781 9.07912 29.9845 11.7206 29.9845C12.5688 29.9845 13.4203 30.2267 14.1523 30.5922C14.5164 30.8081 14.945 30.6566 15.1542 30.3079L15.1583 30.301L15.1613 30.2936C15.3032 29.9387 15.1622 29.5198 14.8805 29.3084L14.8712 29.3014L14.8606 29.2967C13.8617 28.86 12.7935 28.5445 11.7207 28.5445C8.32379 28.5445 5.43069 31.0599 4.92653 34.393C4.85605 34.7546 5.13774 35.1856 5.57322 35.1921C5.94386 35.26 6.29288 34.9665 6.36312 34.6159Z" fill="url(#paint10_linear_226_556)" stroke="url(#paint11_linear_226_556)" stroke-width="0.2"/>
<defs>
<linearGradient id="paint0_linear_226_556" x1="17.3623" y1="19.7482" x2="29.0794" y2="19.7482" gradientUnits="userSpaceOnUse">
<stop stop-color="#FF1C96"/>
<stop offset="1" stop-color="#FCA650"/>
</linearGradient>
<linearGradient id="paint1_linear_226_556" x1="17.3623" y1="19.7482" x2="29.0794" y2="19.7482" gradientUnits="userSpaceOnUse">
<stop stop-color="#FF1C96"/>
<stop offset="1" stop-color="#FCA650"/>
</linearGradient>
<linearGradient id="paint2_linear_226_556" x1="14.501" y1="30.8501" x2="31.994" y2="30.8501" gradientUnits="userSpaceOnUse">
<stop stop-color="#FF1C96"/>
<stop offset="1" stop-color="#FCA650"/>
</linearGradient>
<linearGradient id="paint3_linear_226_556" x1="14.501" y1="30.8501" x2="31.994" y2="30.8501" gradientUnits="userSpaceOnUse">
<stop stop-color="#FF1C96"/>
<stop offset="1" stop-color="#FCA650"/>
</linearGradient>
<linearGradient id="paint4_linear_226_556" x1="30.1953" y1="23.4679" x2="39.3088" y2="23.4679" gradientUnits="userSpaceOnUse">
<stop stop-color="#FF1C96"/>
<stop offset="1" stop-color="#FCA650"/>
</linearGradient>
<linearGradient id="paint5_linear_226_556" x1="30.1953" y1="23.4679" x2="39.3088" y2="23.4679" gradientUnits="userSpaceOnUse">
<stop stop-color="#FF1C96"/>
<stop offset="1" stop-color="#FCA650"/>
</linearGradient>
<linearGradient id="paint6_linear_226_556" x1="31.3257" y1="31.8731" x2="41.4262" y2="31.8731" gradientUnits="userSpaceOnUse">
<stop stop-color="#FF1C96"/>
<stop offset="1" stop-color="#FCA650"/>
</linearGradient>
<linearGradient id="paint7_linear_226_556" x1="31.3257" y1="31.8731" x2="41.4262" y2="31.8731" gradientUnits="userSpaceOnUse">
<stop stop-color="#FF1C96"/>
<stop offset="1" stop-color="#FCA650"/>
</linearGradient>
<linearGradient id="paint8_linear_226_556" x1="7.13232" y1="23.4679" x2="16.2458" y2="23.4679" gradientUnits="userSpaceOnUse">
<stop stop-color="#FF1C96"/>
<stop offset="1" stop-color="#FCA650"/>
</linearGradient>
<linearGradient id="paint9_linear_226_556" x1="7.13232" y1="23.4679" x2="16.2458" y2="23.4679" gradientUnits="userSpaceOnUse">
<stop stop-color="#FF1C96"/>
<stop offset="1" stop-color="#FCA650"/>
</linearGradient>
<linearGradient id="paint10_linear_226_556" x1="5.01562" y1="31.8731" x2="15.1171" y2="31.8731" gradientUnits="userSpaceOnUse">
<stop stop-color="#FF1C96"/>
<stop offset="1" stop-color="#FCA650"/>
</linearGradient>
<linearGradient id="paint11_linear_226_556" x1="5.01562" y1="31.8731" x2="15.1171" y2="31.8731" gradientUnits="userSpaceOnUse">
<stop stop-color="#FF1C96"/>
<stop offset="1" stop-color="#FCA650"/>
</linearGradient>
</defs>
</svg>
