<svg width="29" height="29" viewBox="0 0 29 29" fill="none" xmlns="http://www.w3.org/2000/svg">
<rect x="1.83594" y="1.79834" width="25.1771" height="25.1771" rx="5.39508" fill="url(#paint0_radial_211_466)"/>
<rect x="1.83594" y="1.79834" width="25.1771" height="25.1771" rx="5.39508" fill="url(#paint1_radial_211_466)"/>
<rect x="1.83594" y="1.79834" width="25.1771" height="25.1771" rx="5.39508" fill="url(#paint2_radial_211_466)"/>
<path d="M20.7187 9.44133C20.7187 10.1862 20.1148 10.7901 19.3699 10.7901C18.625 10.7901 18.0211 10.1862 18.0211 9.44133C18.0211 8.69643 18.625 8.09256 19.3699 8.09256C20.1148 8.09256 20.7187 8.69643 20.7187 9.44133Z" fill="white"/>
<path fill-rule="evenodd" clip-rule="evenodd" d="M14.4244 18.8827C16.9074 18.8827 18.9203 16.8698 18.9203 14.3868C18.9203 11.9038 16.9074 9.89092 14.4244 9.89092C11.9414 9.89092 9.92852 11.9038 9.92852 14.3868C9.92852 16.8698 11.9414 18.8827 14.4244 18.8827ZM14.4244 17.0844C15.9142 17.0844 17.122 15.8766 17.122 14.3868C17.122 12.897 15.9142 11.6893 14.4244 11.6893C12.9346 11.6893 11.7269 12.897 11.7269 14.3868C11.7269 15.8766 12.9346 17.0844 14.4244 17.0844Z" fill="white"/>
<path fill-rule="evenodd" clip-rule="evenodd" d="M5.43262 14.0272C5.43262 11.0056 5.43262 9.49486 6.02065 8.34079C6.53789 7.32564 7.36323 6.50029 8.37838 5.98305C9.53246 5.39502 11.0432 5.39502 14.0648 5.39502H14.7841C17.8056 5.39502 19.3164 5.39502 20.4705 5.98305C21.4856 6.50029 22.311 7.32564 22.8282 8.34079C23.4162 9.49486 23.4162 11.0056 23.4162 14.0272V14.7465C23.4162 17.768 23.4162 19.2788 22.8282 20.4329C22.311 21.448 21.4856 22.2734 20.4705 22.7906C19.3164 23.3786 17.8056 23.3786 14.7841 23.3786H14.0648C11.0432 23.3786 9.53246 23.3786 8.37838 22.7906C7.36323 22.2734 6.53789 21.448 6.02065 20.4329C5.43262 19.2788 5.43262 17.768 5.43262 14.7465V14.0272ZM14.0648 7.19338H14.7841C16.3245 7.19338 17.3717 7.19478 18.1811 7.26091C18.9696 7.32533 19.3728 7.44209 19.654 7.5854C20.3308 7.93023 20.881 8.48046 21.2258 9.15723C21.3692 9.43849 21.4859 9.84169 21.5503 10.6301C21.6165 11.4395 21.6179 12.4867 21.6179 14.0272V14.7465C21.6179 16.2869 21.6165 17.3341 21.5503 18.1435C21.4859 18.932 21.3692 19.3352 21.2258 19.6164C20.881 20.2932 20.3308 20.8434 19.654 21.1882C19.3728 21.3316 18.9696 21.4483 18.1811 21.5127C17.3717 21.5789 16.3245 21.5803 14.7841 21.5803H14.0648C12.5243 21.5803 11.4771 21.5789 10.6677 21.5127C9.87929 21.4483 9.47609 21.3316 9.19482 21.1882C8.51806 20.8434 7.96783 20.2932 7.623 19.6164C7.47969 19.3352 7.36293 18.932 7.29851 18.1435C7.23238 17.3341 7.23098 16.2869 7.23098 14.7465V14.0272C7.23098 12.4867 7.23238 11.4395 7.29851 10.6301C7.36293 9.84169 7.47969 9.43849 7.623 9.15723C7.96783 8.48046 8.51806 7.93023 9.19482 7.5854C9.47609 7.44209 9.87929 7.32533 10.6677 7.26091C11.4771 7.19478 12.5243 7.19338 14.0648 7.19338Z" fill="white"/>
<defs>
<radialGradient id="paint0_radial_211_466" cx="0" cy="0" r="1" gradientUnits="userSpaceOnUse" gradientTransform="translate(10.8277 20.6811) rotate(-55.3758) scale(22.9467)">
<stop stop-color="#B13589"/>
<stop offset="0.79309" stop-color="#C62F94"/>
<stop offset="1" stop-color="#8A3AC8"/>
</radialGradient>
<radialGradient id="paint1_radial_211_466" cx="0" cy="0" r="1" gradientUnits="userSpaceOnUse" gradientTransform="translate(9.92856 27.8746) rotate(-65.1363) scale(20.3163)">
<stop stop-color="#E0E8B7"/>
<stop offset="0.444662" stop-color="#FB8A2E"/>
<stop offset="0.71474" stop-color="#E2425C"/>
<stop offset="1" stop-color="#E2425C" stop-opacity="0"/>
</radialGradient>
<radialGradient id="paint2_radial_211_466" cx="0" cy="0" r="1" gradientUnits="userSpaceOnUse" gradientTransform="translate(0.487168 2.69752) rotate(-8.1301) scale(34.9699 7.4797)">
<stop offset="0.156701" stop-color="#406ADC"/>
<stop offset="0.467799" stop-color="#6A45BE"/>
<stop offset="1" stop-color="#6A45BE" stop-opacity="0"/>
</radialGradient>
</defs>
</svg>
