<svg width="29" height="29" viewBox="0 0 29 29" fill="none" xmlns="http://www.w3.org/2000/svg">
<rect x="1.79834" y="1.79834" width="25.1771" height="25.1771" rx="12.5885" fill="#1275B1"/>
<path d="M11.3465 8.71491C11.3465 9.55523 10.6181 10.2365 9.71964 10.2365C8.82115 10.2365 8.09277 9.55523 8.09277 8.71491C8.09277 7.87458 8.82115 7.19336 9.71964 7.19336C10.6181 7.19336 11.3465 7.87458 11.3465 8.71491Z" fill="white"/>
<path d="M8.31525 11.3549H11.0962V19.7819H8.31525V11.3549Z" fill="white"/>
<path d="M15.5736 11.3549H12.7926V19.7819H15.5736C15.5736 19.7819 15.5736 17.1289 15.5736 15.4702C15.5736 14.4746 15.9135 13.4746 17.27 13.4746C18.8029 13.4746 18.7937 14.7775 18.7866 15.7869C18.7772 17.1063 18.7995 18.4528 18.7995 19.7819H21.5805V15.3343C21.5569 12.4944 20.8169 11.1858 18.3824 11.1858C16.9366 11.1858 16.0404 11.8422 15.5736 12.436V11.3549Z" fill="white"/>
</svg>
