<svg width="49" height="49" viewBox="0 0 49 49" fill="none" xmlns="http://www.w3.org/2000/svg">
<path d="M29.7458 19.2539H19.2538C18.7293 19.2539 18.3281 19.655 18.3281 20.1796C18.3281 20.7042 18.7293 21.1054 19.2538 21.1054H29.7458C30.2704 21.1054 30.6716 20.7042 30.6716 20.1796C30.6718 19.655 30.2707 19.2539 29.7461 19.2539H29.7458Z" fill="url(#paint0_linear_226_558)"/>
<path d="M29.7458 22.6489H19.2538C18.7293 22.6489 18.3281 23.0501 18.3281 23.5746C18.3281 24.0992 18.7293 24.5004 19.2538 24.5004H29.7458C30.2704 24.5004 30.6716 24.0992 30.6716 23.5746C30.6718 23.0501 30.2707 22.6489 29.7461 22.6489H29.7458Z" fill="url(#paint1_linear_226_558)"/>
<path d="M29.7458 26.043H19.2538C18.7293 26.043 18.3281 26.4441 18.3281 26.9687C18.3281 27.4933 18.7293 27.8944 19.2538 27.8944H29.7458C30.2704 27.8944 30.6716 27.4933 30.6716 26.9687C30.6718 26.4441 30.2707 26.043 29.7461 26.043H29.7458Z" fill="url(#paint2_linear_226_558)"/>
<path d="M26.3205 11.848H22.6791C16.3841 11.848 11.2612 16.9704 11.2612 23.2659V35.9179C11.2612 36.6586 11.6624 36.9671 11.9093 37.0597C12.0635 37.1213 12.187 37.1524 12.3412 37.1524C12.8658 37.1524 13.2977 36.7512 13.8223 36.2575C14.5011 35.6402 15.5503 34.6837 16.507 34.6837H26.3201C32.6151 34.6837 37.738 29.5613 37.738 23.2658C37.7382 16.9708 32.6159 11.8479 26.3207 11.8479L26.3205 11.848ZM26.3205 32.832H16.5074C15.1498 32.832 13.9771 33.665 13.113 34.4365V23.2662C13.113 17.9896 17.4023 13.7001 22.6791 13.7001H26.3204C31.597 13.7001 35.8865 17.9895 35.8865 23.2662C35.8867 28.5428 31.5974 32.8323 26.3204 32.8323L26.3205 32.832Z" fill="url(#paint3_linear_226_558)"/>
<defs>
<linearGradient id="paint0_linear_226_558" x1="18.3281" y1="20.1796" x2="30.6716" y2="20.1796" gradientUnits="userSpaceOnUse">
<stop stop-color="#FF1C96"/>
<stop offset="1" stop-color="#FCA650"/>
</linearGradient>
<linearGradient id="paint1_linear_226_558" x1="18.3281" y1="23.5746" x2="30.6716" y2="23.5746" gradientUnits="userSpaceOnUse">
<stop stop-color="#FF1C96"/>
<stop offset="1" stop-color="#FCA650"/>
</linearGradient>
<linearGradient id="paint2_linear_226_558" x1="18.3281" y1="26.9687" x2="30.6716" y2="26.9687" gradientUnits="userSpaceOnUse">
<stop stop-color="#FF1C96"/>
<stop offset="1" stop-color="#FCA650"/>
</linearGradient>
<linearGradient id="paint3_linear_226_558" x1="11.2612" y1="24.5001" x2="37.738" y2="24.5001" gradientUnits="userSpaceOnUse">
<stop stop-color="#FF1C96"/>
<stop offset="1" stop-color="#FCA650"/>
</linearGradient>
</defs>
</svg>
