<svg width="56" height="38" viewBox="0 0 56 38" fill="none" xmlns="http://www.w3.org/2000/svg">
<path d="M46.1284 0H9.25203C4.16349 0 0 4.16349 0 9.25203V28.748C0 33.8365 4.16349 38 9.25203 38H46.194C51.2825 38 55.446 33.8365 55.446 28.748L55.4466 9.25342C55.3806 4.16432 51.2831 0.000836815 46.1281 0.000836815L46.1284 0ZM52.7372 28.6822C52.7372 32.317 49.7632 35.291 46.1284 35.291H9.25203C5.61728 35.291 2.64328 32.317 2.64328 28.6822L2.64382 9.25328C2.64382 5.61853 5.61782 2.64453 9.25257 2.64453H46.1945C49.8293 2.64453 52.8033 5.61853 52.8033 9.25328L52.8027 28.6822H52.7372Z" fill="url(#paint0_linear_230_786)"/>
<path d="M29.9366 16.6545H36.2811C37.0082 16.6545 37.6029 16.0598 37.6029 15.3326C37.6029 14.6054 37.0082 14.0107 36.2811 14.0107H29.9366C29.2095 14.0107 28.6147 14.6054 28.6147 15.3326C28.6153 16.0598 29.21 16.6545 29.9366 16.6545Z" fill="url(#paint1_linear_230_786)"/>
<path d="M45.5337 21.2812H29.9366C29.2095 21.2812 28.6147 21.876 28.6147 22.6031C28.6147 23.3303 29.2095 23.925 29.9366 23.925L45.5337 23.9245C46.2608 23.9245 46.8555 23.3298 46.8555 22.6026C46.8555 21.876 46.2608 21.2812 45.5337 21.2812Z" fill="url(#paint2_linear_230_786)"/>
<path d="M15.7953 11.0361C11.4334 11.0361 7.86523 14.6049 7.86523 18.9662C7.86523 23.3282 11.434 26.8963 15.7953 26.8963C20.1573 26.8963 23.7255 23.3276 23.7255 18.9662C23.7255 14.6049 20.1567 11.0361 15.7953 11.0361ZM15.7953 24.2532C12.8878 24.2532 10.5084 21.8738 10.5084 18.9662C10.5084 16.0587 12.8878 13.6793 15.7953 13.6793C18.7029 13.6793 21.0823 16.0587 21.0823 18.9662C21.0823 21.8744 18.7029 24.2532 15.7953 24.2532Z" fill="url(#paint3_linear_230_786)"/>
<defs>
<linearGradient id="paint0_linear_230_786" x1="-2.06555e-07" y1="19" x2="55.4466" y2="19" gradientUnits="userSpaceOnUse">
<stop stop-color="#FF1C96"/>
<stop offset="1" stop-color="#FCA650"/>
</linearGradient>
<linearGradient id="paint1_linear_230_786" x1="28.6147" y1="15.3326" x2="37.6029" y2="15.3326" gradientUnits="userSpaceOnUse">
<stop stop-color="#FF1C96"/>
<stop offset="1" stop-color="#FCA650"/>
</linearGradient>
<linearGradient id="paint2_linear_230_786" x1="28.6147" y1="22.6031" x2="46.8555" y2="22.6031" gradientUnits="userSpaceOnUse">
<stop stop-color="#FF1C96"/>
<stop offset="1" stop-color="#FCA650"/>
</linearGradient>
<linearGradient id="paint3_linear_230_786" x1="7.86523" y1="18.9662" x2="23.7255" y2="18.9662" gradientUnits="userSpaceOnUse">
<stop stop-color="#FF1C96"/>
<stop offset="1" stop-color="#FCA650"/>
</linearGradient>
</defs>
</svg>
