<svg width="59" height="59" viewBox="0 0 59 59" fill="none" xmlns="http://www.w3.org/2000/svg">
<path d="M30.6209 1.88416C30.3349 1.6618 30.0489 1.44842 29.7494 1.23952C29.2998 0.91721 28.7008 0.917217 28.2565 1.23503C27.9615 1.4484 27.671 1.66628 27.385 1.88865C22.1609 5.9507 18.8161 11.937 17.7957 18.4581C16.3073 19.0301 14.9319 19.9061 13.7703 21.0677C11.592 23.246 10.3936 26.1506 10.3937 29.2367L10.3892 36.9386C10.3892 39.0626 12.1183 40.7917 14.2424 40.7917L20.7869 40.7917L20.9729 41.6224C21.3271 43.2202 22.607 44.3728 24.1815 44.5951C22.9835 46.3561 22.8881 48.6842 24.0456 50.5679L27.9127 56.8674C28.144 57.244 28.5569 57.4757 29.0065 57.4798C29.3517 57.4798 29.6736 57.3391 29.9094 57.1032C29.9821 57.0306 30.0412 56.9535 30.1 56.867L33.9626 50.563C35.1245 48.6748 35.0291 46.3556 33.8128 44.5861C34.648 44.4682 35.4194 44.0868 36.0005 43.5057C36.5044 43.0019 36.8719 42.3528 37.0307 41.622L37.2167 40.7913L43.7656 40.7869L43.7701 40.7914C44.8273 40.7869 45.7897 40.3606 46.4886 39.6616C47.1875 38.9627 47.6143 38.0007 47.6139 36.9386L47.6184 29.2368C47.6139 24.3306 44.5367 20.1371 40.2115 18.4713C39.19 11.9416 35.8452 5.95526 30.6213 1.88367L30.6209 1.88416ZM14.241 38.2242C13.5327 38.2242 12.9566 37.6481 12.9566 36.9399L12.9566 29.2425C12.9566 26.8369 13.8869 24.5815 15.5842 22.8842C16.1607 22.3077 16.8005 21.8311 17.4904 21.4406C17.377 23.8233 17.5724 26.2514 18.1032 28.6615L20.2227 38.2239L14.241 38.2242ZM31.7735 49.2213L29.0053 53.7416L26.2325 49.2258C25.5152 48.0549 25.7017 46.5709 26.6776 45.595L26.7274 45.5452C27.9849 44.3424 30.0269 44.3428 31.2795 45.5408C32.3 46.5163 32.5044 48.0369 31.7736 49.2214L31.7735 49.2213ZM34.5239 41.0698C34.3966 41.6508 33.8703 42.0776 33.2713 42.0776L24.7346 42.0732C24.1267 42.0732 23.609 41.6648 23.4776 41.0699L20.6093 28.1077C18.7888 19.8798 21.2397 11.3929 26.8942 5.73839C27.5433 5.08927 28.2329 4.48131 28.9636 3.91383C28.9726 3.90485 28.9864 3.891 29.0044 3.88202C29.0134 3.891 29.0272 3.90485 29.0452 3.91383C36.1477 9.44636 39.4244 18.9402 37.396 28.1042L34.5239 41.0698ZM45.0483 29.2382L45.0483 36.9446C45.0528 37.6483 44.4766 38.2245 43.7684 38.2244L37.7863 38.2244L39.901 28.6572C40.4367 26.2519 40.6272 23.8281 40.5137 21.4453C43.2199 22.9977 45.0486 25.9068 45.0482 29.2381L45.0483 29.2382Z" fill="url(#paint0_linear_2_862)"/>
<path d="M33.4937 18.3271C33.4937 17.1292 33.0261 15.9991 32.1775 15.1505C31.3289 14.3019 30.1988 13.8343 29.0008 13.8343C27.8029 13.8343 26.6728 14.3019 25.8242 15.1505C24.9755 15.9991 24.508 17.1292 24.508 18.3271C24.508 19.5251 24.9755 20.6552 25.8242 21.5038C26.6728 22.3524 27.8029 22.82 29.0008 22.82C30.1988 22.82 31.3289 22.3524 32.1775 21.5038C33.0266 20.6556 33.4938 19.5257 33.4937 18.3271ZM27.639 19.689C27.2758 19.3259 27.0763 18.8449 27.0763 18.3275C27.0763 17.8102 27.2758 17.3291 27.639 16.966C28.0021 16.6029 28.4876 16.3989 29.0005 16.4034C29.5178 16.4034 29.9989 16.6029 30.362 16.966C30.7251 17.3291 30.9291 17.8147 30.9246 18.3275C30.9291 18.8404 30.7067 19.3263 30.353 19.6801C29.9988 20.0342 29.5133 20.2562 29.0005 20.2517C28.4876 20.2562 28.0021 20.0522 27.639 19.689Z" fill="url(#paint1_linear_2_862)"/>
<defs>
<linearGradient id="paint0_linear_2_862" x1="14.5022" y1="43.5061" x2="43.5059" y2="14.5024" gradientUnits="userSpaceOnUse">
<stop stop-color="#FF1C96"/>
<stop offset="1" stop-color="#FCA650"/>
</linearGradient>
<linearGradient id="paint1_linear_2_862" x1="25.8242" y1="21.5038" x2="32.1775" y2="15.1505" gradientUnits="userSpaceOnUse">
<stop stop-color="#FF1C96"/>
<stop offset="1" stop-color="#FCA650"/>
</linearGradient>
</defs>
</svg>
