<svg width="49" height="49" viewBox="0 0 49 49" fill="none" xmlns="http://www.w3.org/2000/svg">
<path d="M14.3787 34.9301C14.3171 34.9301 14.2244 34.9301 14.1626 34.8993C13.6996 34.8067 13.3911 34.4674 13.3295 34.0044C13.2368 33.3872 13.2061 32.7702 13.2061 32.1222C13.2061 25.5182 18.0816 19.8715 24.5927 18.9456V15.3969C24.5927 14.8723 24.9012 14.3786 25.4258 14.1627C25.9195 13.9466 26.5057 14.0701 26.8761 14.4404L35.3931 22.9574C35.7016 23.2659 35.8561 23.6363 35.8561 24.0685C35.8561 24.5004 35.7018 24.8707 35.3931 25.1795L26.8455 33.6959C26.4751 34.0662 25.8889 34.1897 25.3951 33.9736C24.9014 33.7575 24.5621 33.2947 24.5621 32.7394V28.7893C20.7357 29.0362 17.2792 31.1346 15.2736 34.4055C15.0883 34.745 14.749 34.9301 14.3787 34.9301L14.3787 34.9301ZM26.1354 15.9218V19.1001C26.1354 19.7789 25.6108 20.3653 24.932 20.4577C19.0997 21.2292 14.7182 26.2592 14.7182 32.1219V32.4923C17.0942 29.345 20.7353 27.4009 24.7163 27.2157C25.0866 27.1849 25.4259 27.3391 25.7038 27.586C25.9815 27.8329 26.1358 28.2032 26.1358 28.5736V32.2456L34.282 24.0994V24.0686L26.1354 15.9218Z" fill="url(#paint0_linear_226_557)"/>
<defs>
<linearGradient id="paint0_linear_226_557" x1="13.2061" y1="24.4933" x2="35.8561" y2="24.4933" gradientUnits="userSpaceOnUse">
<stop stop-color="#FF1C96"/>
<stop offset="1" stop-color="#FCA650"/>
</linearGradient>
</defs>
</svg>
