<svg width="46" height="46" viewBox="0 0 46 46" fill="none" xmlns="http://www.w3.org/2000/svg">
<path fill-rule="evenodd" clip-rule="evenodd" d="M22.9996 29.6503C21.2316 29.6503 19.536 28.9469 18.2854 27.6953C17.0351 26.4438 16.3328 24.7466 16.3328 22.9764C16.3328 21.2065 17.0351 19.5093 18.2854 18.2574C19.536 17.0059 21.2316 16.3029 22.9996 16.3029C24.768 16.3029 26.4635 17.0059 27.7138 18.2574C28.964 19.5093 29.6667 21.2065 29.6667 22.9764C29.6648 24.7458 28.9617 26.4422 27.7119 27.6933C26.4621 28.9445 24.7673 29.6482 22.9997 29.6502L22.9996 29.6503ZM22.9996 14.1471V14.1467C20.6605 14.1467 18.417 15.0771 16.7626 16.7329C15.1086 18.389 14.1791 20.6347 14.1791 22.9762C14.1791 25.318 15.1085 27.5638 16.7626 29.2195C18.417 30.8756 20.6605 31.8056 22.9996 31.8056C25.339 31.8056 27.5825 30.8756 29.2366 29.2195C30.891 27.5638 31.8201 25.318 31.8201 22.9762C31.8169 20.6355 30.8863 18.3917 29.2331 16.7368C27.5794 15.0815 25.3378 14.1502 22.9996 14.1467V14.1471ZM24.0763 39.4724L24.0767 39.472C28.0736 39.2054 31.838 37.4957 34.671 34.6598C37.5036 31.8244 39.212 28.0562 39.4784 24.0547H35.9772C35.3916 24.0418 34.9232 23.5631 34.9232 22.9766C34.9232 22.3901 35.3916 21.9113 35.9772 21.8984H39.4784C39.212 17.8974 37.504 14.1288 34.671 11.2933C31.8384 8.45788 28.074 6.74807 24.0767 6.48149V9.98581V9.98541C24.0829 10.2755 23.9721 10.5559 23.7696 10.7633C23.5667 10.9707 23.2894 11.0875 22.9995 11.0875C22.7097 11.0875 22.432 10.9707 22.2295 10.7633C22.0266 10.5559 21.9162 10.2755 21.9224 9.98541V6.4815C17.9255 6.7481 14.1607 8.45788 11.3281 11.2933C8.49553 14.1292 6.78747 17.8974 6.52115 21.8984H10.0219H10.0215C10.3114 21.8921 10.5914 22.0031 10.7986 22.2058C11.0058 22.4085 11.1225 22.6865 11.1225 22.9766C11.1225 23.2667 11.0058 23.5447 10.7986 23.7474C10.5914 23.9505 10.3114 24.0611 10.0215 24.0548H6.52116C6.7875 28.0558 8.49554 31.824 11.3281 34.6599C14.1607 37.4957 17.9251 39.2055 21.9225 39.4721V35.967C21.935 35.3809 22.4136 34.9119 22.9995 34.9119C23.5855 34.9119 24.0637 35.3808 24.0766 35.967V39.4721L24.0763 39.4724ZM44.899 21.8987H41.6363C41.3661 17.3252 39.4292 13.0097 36.1929 9.77C32.9565 6.53036 28.6454 4.59192 24.0765 4.32142V1.05509C24.0635 0.468546 23.5853 0 22.9994 0C22.4135 0 21.9348 0.468526 21.9223 1.05509V4.32142C17.3531 4.59156 13.0419 6.53036 9.80589 9.77C6.56953 13.0096 4.63305 17.3255 4.36323 21.8987H1.1006C0.810768 21.8924 0.530719 22.0034 0.323525 22.2061C0.116722 22.4088 0 22.6868 0 22.9769C0 23.267 0.116722 23.545 0.323525 23.7477C0.530719 23.9508 0.810768 24.0613 1.1006 24.0551H4.36323C4.63348 28.6285 6.56993 32.944 9.80629 36.1838C13.0426 39.423 17.3538 41.3618 21.9227 41.6323V44.8983C21.9164 45.188 22.0269 45.4683 22.2298 45.6758C22.4323 45.8832 22.71 46 22.9998 46C23.2896 46 23.5669 45.8832 23.7698 45.6758C23.9723 45.4683 24.0832 45.188 24.0769 44.8983V41.6323C28.6457 41.3618 32.9569 39.4234 36.1933 36.1838C39.4297 32.9441 41.3666 28.6286 41.6368 24.0551H44.8994C45.1888 24.0613 45.4689 23.9508 45.6761 23.7477C45.8833 23.545 46 23.267 46 22.9769C46 22.6868 45.8833 22.4088 45.6761 22.2061C45.4689 22.0034 45.1888 21.8924 44.8994 21.8987H44.899Z" fill="url(#paint0_linear_230_783)"/>
<defs>
<linearGradient id="paint0_linear_230_783" x1="-1.71363e-07" y1="23" x2="46" y2="23" gradientUnits="userSpaceOnUse">
<stop stop-color="#FF1C96"/>
<stop offset="1" stop-color="#FCA650"/>
</linearGradient>
</defs>
</svg>
