<svg width="49" height="49" viewBox="0 0 49 49" fill="none" xmlns="http://www.w3.org/2000/svg">
<path d="M16.3014 39.9293H11.503C10.1731 39.9293 9.09131 38.8473 9.09131 37.5166V23.0557C9.09131 21.7258 10.1731 20.6431 11.503 20.6431H16.3014C17.6313 20.6431 18.7141 21.7258 18.7141 23.0557V37.5166C18.7141 38.8473 17.6313 39.9293 16.3014 39.9293ZM11.503 22.5714C11.2368 22.5714 11.0199 22.7883 11.0199 23.0555V37.5164C11.0199 37.7824 11.2368 38.0002 11.503 38.0002H16.3014C16.5687 38.0002 16.7855 37.7824 16.7855 37.5164V23.0555C16.7855 22.7885 16.5687 22.5714 16.3014 22.5714H11.503Z" fill="url(#paint0_linear_226_555)"/>
<path d="M33.9762 39.9292H22.2885C21.6934 39.9292 21.0986 39.7885 20.5654 39.5222L17.3176 37.8983C16.8411 37.6601 16.6484 37.0805 16.8864 36.6043C17.1246 36.1278 17.7032 35.9351 18.1804 36.1731L21.4282 37.7971C21.6944 37.9302 21.9915 38.0004 22.2885 38.0004H33.9762C34.3282 38.0004 34.656 37.8105 34.8316 37.5038L35.9203 35.5984C37.281 33.2176 38.0003 30.5079 38.0003 27.7656V24.5023C38.0003 23.4376 37.1344 22.5717 36.0699 22.5717H28.8118C28.1724 22.5717 27.5766 22.2553 27.2177 21.7259C26.8598 21.1965 26.7875 20.5253 27.0248 19.9323C27.909 17.7222 28.3575 15.3932 28.3575 13.0104V11.8927C28.3575 11.4007 27.9573 10.9996 27.4646 10.9996H26.8647C26.4684 10.9996 26.1153 11.2658 26.0064 11.6466L25.6284 12.9686C24.8185 15.8008 23.4751 18.4026 21.6351 20.7037C20.6862 21.8909 19.2708 22.5717 17.75 22.5717H14.857C14.3248 22.5717 13.8926 22.1398 13.8926 21.6073C13.8926 21.0751 14.3245 20.6429 14.857 20.6429H17.75C18.6805 20.6429 19.5485 20.2254 20.1298 19.4983C21.8087 17.3979 23.0352 15.0229 23.7739 12.4382L24.1519 11.1162C24.4963 9.91278 25.6121 9.07104 26.8647 9.07104H27.4646C29.0211 9.07104 30.2861 10.3363 30.2861 11.8928V13.0104C30.2861 15.6402 29.7905 18.2099 28.8154 20.6491L36.0703 20.6432C38.1984 20.6432 39.9295 22.374 39.9295 24.5024V27.7657C39.9295 30.8437 39.1224 33.8843 37.5949 36.5564L36.5063 38.4618C35.9884 39.3674 35.0191 39.9297 33.9766 39.9297L33.9762 39.9292Z" fill="url(#paint1_linear_226_555)"/>
<path d="M14.8568 35.1072C14.8568 35.64 14.4251 36.0717 13.8924 36.0717C13.3599 36.0717 12.9282 35.64 12.9282 35.1072C12.9282 34.5748 13.3599 34.1431 13.8924 34.1431C14.4251 34.1431 14.8568 34.5747 14.8568 35.1072Z" fill="url(#paint2_linear_226_555)"/>
<defs>
<linearGradient id="paint0_linear_226_555" x1="9.09131" y1="30.2862" x2="18.7141" y2="30.2862" gradientUnits="userSpaceOnUse">
<stop stop-color="#FF1C96"/>
<stop offset="1" stop-color="#FCA650"/>
</linearGradient>
<linearGradient id="paint1_linear_226_555" x1="13.8926" y1="24.5003" x2="39.9295" y2="24.5003" gradientUnits="userSpaceOnUse">
<stop stop-color="#FF1C96"/>
<stop offset="1" stop-color="#FCA650"/>
</linearGradient>
<linearGradient id="paint2_linear_226_555" x1="12.9282" y1="35.1074" x2="14.8568" y2="35.1074" gradientUnits="userSpaceOnUse">
<stop stop-color="#FF1C96"/>
<stop offset="1" stop-color="#FCA650"/>
</linearGradient>
</defs>
</svg>
