<svg width="29" height="29" viewBox="0 0 29 29" fill="none" xmlns="http://www.w3.org/2000/svg">
<path d="M7.82513 17.7971C7.96565 16.6337 8.44282 15.9823 9.34202 15.3145C10.6286 14.4101 12.2358 14.9217 12.2358 14.9217V11.8868C12.6265 11.8768 13.0174 11.9 13.4038 11.956V15.8616C13.4038 15.8616 11.7971 15.35 10.5105 16.2549C9.61183 16.9222 9.13369 17.5741 8.99366 18.7375C8.98927 19.3693 9.10783 20.1951 9.65379 20.9091C9.5188 20.8399 9.38122 20.7611 9.24103 20.6725C8.03835 19.8649 7.81928 18.6533 7.82513 17.7971ZM20.0398 6.27531C19.1547 5.30546 18.82 4.32626 18.699 3.63838H19.8124C19.8124 3.63838 19.5904 5.44201 21.2083 7.21571L21.2307 7.23956C20.7947 6.96527 20.3948 6.64151 20.0398 6.27531ZM25.4033 9.02495V12.852C25.4033 12.852 23.9825 12.7963 22.9311 12.5289C21.463 12.1548 20.5194 11.581 20.5194 11.581C20.5194 11.581 19.8676 11.1718 19.8149 11.1433V19.0461C19.8149 19.4862 19.6943 20.5851 19.327 21.5016C18.8473 22.7006 18.1072 23.4876 17.9711 23.6485C17.9711 23.6485 17.0709 24.7123 15.4828 25.4287C14.0513 26.075 12.7944 26.0586 12.4187 26.075C12.4187 26.075 10.2461 26.161 8.29108 24.8905C7.86832 24.6105 7.47369 24.2933 7.1123 23.9431L7.12206 23.9501C9.07758 25.2206 11.2497 25.1346 11.2497 25.1346C11.6259 25.1182 12.8827 25.1346 14.3138 24.4883C15.9004 23.7719 16.8021 22.7081 16.8021 22.7081C16.9367 22.5472 17.6803 21.7602 18.1579 20.5608C18.5244 19.6447 18.6458 18.5453 18.6458 18.1053V10.2034C18.6985 10.2324 19.3499 10.6415 19.3499 10.6415C19.3499 10.6415 20.294 11.2158 21.7621 11.5894C22.814 11.8569 24.2343 11.9125 24.2343 11.9125V8.91365C24.7202 9.02261 25.1345 9.05207 25.4033 9.02495Z" fill="#EE1D52"/>
<path d="M24.2343 8.91365V11.9116C24.2343 11.9116 22.814 11.8559 21.7621 11.5885C20.294 11.2144 19.3499 10.6406 19.3499 10.6406C19.3499 10.6406 18.6986 10.2314 18.6459 10.2024V18.1062C18.6459 18.5462 18.5254 19.6456 18.158 20.5617C17.6784 21.7612 16.9382 22.5482 16.8021 22.709C16.8021 22.709 15.9014 23.7729 14.3138 24.4893C12.8828 25.1355 11.6259 25.1192 11.2498 25.1355C11.2498 25.1355 9.07762 25.2216 7.12211 23.951L7.11235 23.944C6.90589 23.7441 6.71155 23.533 6.53028 23.3118C5.90625 22.551 5.52374 21.6513 5.42762 21.3945C5.42745 21.3935 5.42745 21.3924 5.42762 21.3913C5.27295 20.9452 4.94801 19.8738 4.99241 18.8362C5.07096 17.0054 5.71499 15.8817 5.88527 15.6002C6.33624 14.8325 6.92278 14.1457 7.61879 13.5703C8.23298 13.0737 8.92914 12.6786 9.67872 12.4012C10.489 12.0755 11.3568 11.9009 12.2353 11.8868V14.9217C12.2353 14.9217 10.6282 14.412 9.34206 15.3145C8.44286 15.9823 7.96569 16.6337 7.82517 17.7971C7.81932 18.6533 8.03839 19.8649 9.24009 20.673C9.38028 20.7618 9.51787 20.8407 9.65286 20.9096C9.8628 21.1825 10.1183 21.4203 10.4091 21.6134C11.583 22.3564 12.5666 22.4083 13.8244 21.9258C14.6631 21.6031 15.2945 20.8759 15.5872 20.0702C15.7712 19.5671 15.7687 19.0606 15.7687 18.5369V3.63838H18.6961C18.8171 4.32626 19.1518 5.30546 20.0369 6.27531C20.3919 6.64151 20.7918 6.96527 21.2279 7.23956C21.3567 7.37283 22.0153 8.03171 22.8609 8.43621C23.2981 8.64529 23.7589 8.80549 24.2343 8.91365V8.91365Z" fill="black"/>
<path d="M4.2627 20.4626V20.465L4.33533 20.6618C4.32699 20.6389 4.3 20.5692 4.2627 20.4626Z" fill="#69C9D0"/>
<path d="M9.67895 12.4012C8.92937 12.6786 8.23321 13.0737 7.61903 13.5703C6.92279 14.147 6.3364 14.8353 5.886 15.6045C5.71572 15.885 5.07169 17.0097 4.99313 18.8404C4.94873 19.8781 5.27368 20.9494 5.42834 21.3955C5.42818 21.3966 5.42818 21.3977 5.42834 21.3988C5.52592 21.6532 5.90698 22.5529 6.531 23.316C6.71227 23.5373 6.90661 23.7484 7.11307 23.9483C6.45157 23.5098 5.86161 22.9797 5.36248 22.3752C4.74381 21.6209 4.36227 20.7306 4.26274 20.4677C4.26263 20.4659 4.26263 20.464 4.26274 20.4621V20.4589C4.10759 20.0132 3.78167 18.9414 3.82705 17.9024C3.9056 16.0716 4.54963 14.9479 4.71991 14.6664C5.17018 13.8972 5.75659 13.2089 6.45294 12.6322C7.067 12.1355 7.76319 11.7404 8.51286 11.4632C8.98047 11.2772 9.4676 11.14 9.96584 11.054C10.7167 10.9284 11.4836 10.9175 12.238 11.0217V11.8868C11.3586 11.9006 10.49 12.0752 9.67895 12.4012Z" fill="#69C9D0"/>
<path d="M18.6986 3.6384H15.7711V18.5374C15.7711 19.0611 15.7711 19.5661 15.5896 20.0707C15.294 20.876 14.6651 21.6031 13.8268 21.9258C12.5685 22.4102 11.5849 22.3565 10.4115 21.6134C10.1202 21.4212 9.86405 21.1842 9.65332 20.912C10.653 21.4231 11.5478 21.4142 12.6564 20.9877C13.4941 20.6651 14.124 19.9379 14.4187 19.1322C14.6031 18.629 14.6007 18.1226 14.6007 17.5993V2.69754H18.6429C18.6429 2.69754 18.5976 3.0679 18.6986 3.6384ZM24.2343 8.08457V8.91367C23.7597 8.80534 23.2997 8.64514 22.8633 8.43623C22.0178 8.03173 21.3591 7.37285 21.2303 7.23957C21.3797 7.33363 21.5348 7.41919 21.6948 7.49583C22.7228 7.98777 23.7352 8.13461 24.2343 8.08457Z" fill="#69C9D0"/>
</svg>
