<svg width="29" height="29" viewBox="0 0 29 29" fill="none" xmlns="http://www.w3.org/2000/svg">
<path d="M10.638 25.177C7.72917 25.177 5.01763 24.331 2.73535 22.8712C4.67308 22.9965 8.09273 22.6963 10.2198 20.6674C7.02002 20.5206 5.577 18.0665 5.38878 17.0178C5.66065 17.1227 6.95728 17.2485 7.68924 16.9549C4.0085 16.032 3.44384 12.8019 3.56932 11.8161C4.25946 12.2985 5.4306 12.4663 5.8907 12.4243C2.46092 9.97027 3.6948 6.27871 4.30129 5.48167C6.76262 8.89164 10.4514 10.8068 15.0149 10.9133C14.9289 10.536 14.8834 10.1431 14.8834 9.73955C14.8834 6.84353 17.2242 4.49585 20.1117 4.49585C21.6204 4.49585 22.9799 5.13674 23.9342 6.16189C24.9423 5.92564 26.4596 5.37261 27.2014 4.89437C26.8275 6.23676 25.6635 7.35658 24.9594 7.77163C24.9653 7.78575 24.9537 7.75745 24.9594 7.77163C25.5779 7.67808 27.2513 7.35647 27.9124 6.90795C27.5855 7.66209 26.3514 8.91598 25.3387 9.61796C25.5271 17.9279 19.1692 25.177 10.638 25.177Z" fill="#47ACDF"/>
</svg>
